<svg version="1.1" viewBox="0.0 0.0 883.6509186351706 76.8005249343832" fill="none" stroke="none" stroke-linecap="square" stroke-miterlimit="10" xmlns:xlink="http://www.w3.org/1999/xlink" xmlns="http://www.w3.org/2000/svg"><clipPath id="p.0"><path d="m0 0l883.65094 0l0 76.80052l-883.65094 0l0 -76.80052z" clip-rule="nonzero"/></clipPath><g clip-path="url(#p.0)"><path fill="#000000" fill-opacity="0.0" d="m0 0l883.65094 0l0 76.80052l-883.65094 0z" fill-rule="evenodd"/><defs><linearGradient id="p.1" gradientUnits="userSpaceOnUse" gradientTransform="matrix(8.763024609922383 0.0 0.0 8.763024609922383 0.0 0.0)" spreadMethod="pad" x1="0.0017971012819137065" y1="0.06163492308393159" x2="0.0017653792387706925" y2="8.824659532948894"><stop offset="0.0" stop-color="#1c4587"/><stop offset="0.39" stop-color="#4675ae"/><stop offset="1.0" stop-color="#70a4d5"/></linearGradient></defs><path fill="url(#p.1)" d="m0.015748031 0.54330707l883.6221 0l0 76.78741l-883.6221 0z" fill-rule="evenodd"/><path fill="#000000" fill-opacity="0.0" d="m0.015748031 4.4643273l369.73227 0l0 67.874016l-369.73227 0z" fill-rule="evenodd"/><path fill="#ffffff" d="m10.468873 42.551826l5.625001 -0.546875q0.5 2.828125 2.046875 4.15625q1.5625 1.328125 4.203125 1.328125q2.78125 0 4.203125 -1.171875q1.421875 -1.1875 1.421875 -2.78125q0 -1.015625 -0.609375 -1.71875q-0.59375 -0.71875 -2.078125 -1.25q-1.015625 -0.34375 -4.625 -1.25q-4.640625 -1.140625 -6.515626 -2.828125q-2.640625 -2.359375 -2.640625 -5.765627q0 -2.1875 1.234375 -4.078125q1.25 -1.90625 3.578126 -2.90625q2.328125 -1.0 5.640625 -1.0q5.390625 0 8.109375 2.375q2.718748 2.359375 2.859373 6.296875l-5.781248 0.25q-0.375 -2.203125 -1.59375 -3.171875q-1.21875 -0.96875 -3.65625 -0.96875q-2.515625 0 -3.953125 1.046875q-0.90625 0.65625 -0.90625 1.765625q0 1.015625 0.859375 1.7500019q1.09375 0.90625 5.3125 1.90625q4.21875 1.0 6.234375 2.0625q2.015625 1.0625 3.156248 2.90625q1.15625 1.84375 1.15625 4.5625q0 2.46875 -1.375 4.625q-1.3593731 2.140625 -3.859373 3.1875q-2.5 1.046875 -6.234375 1.046875q-5.4375 0 -8.343751 -2.515625q-2.90625 -2.515625 -3.46875 -7.3125zm33.570312 -19.328127l0 10.531252q2.65625 -3.109377 6.34375 -3.109377q1.890625 0 3.40625 0.703125q1.53125 0.7031269 2.296875 1.7968769q0.78125 1.09375 1.0625 2.421875q0.28125 1.328125 0.28125 4.125l0 12.171875l-5.484375 0l0 -10.953125q0 -3.265625 -0.3125 -4.140625q-0.3125 -0.890625 -1.109375 -1.40625q-0.78125 -0.515625 -1.96875 -0.515625q-1.375 0 -2.453125 0.671875q-1.0625 0.65625 -1.5625 2.0q-0.5 1.328125 -0.5 3.953125l0 10.390625l-5.484375 0l0 -28.640627l5.484375 0zm17.699219 17.968752q0 -2.734375 1.34375 -5.28125q1.34375 -2.5625 3.8125 -3.90625q2.46875 -1.3593769 5.515625 -1.3593769q4.71875 0 7.71875 3.062502q3.015625 3.0625 3.015625 7.71875q0 4.71875 -3.046875 7.8125q-3.03125 3.09375 -7.640625 3.09375q-2.859375 0 -5.453125 -1.28125q-2.578125 -1.296875 -3.921875 -3.78125q-1.34375 -2.5 -1.34375 -6.078125zm5.625 0.296875q0 3.09375 1.453125 4.734375q1.46875 1.640625 3.625 1.640625q2.140625 0 3.59375 -1.640625q1.453125 -1.640625 1.453125 -4.765625q0 -3.046875 -1.453125 -4.6875q-1.453125 -1.640625 -3.59375 -1.640625q-2.15625 0 -3.625 1.640625q-1.453125 1.640625 -1.453125 4.71875zm25.324219 10.375l-5.484375 0l0 -20.750002l5.09375 0l0 2.953127q1.3125 -2.093752 2.359375 -2.750002q1.046875 -0.671875 2.375 -0.671875q1.875 0 3.609375 1.046875l-1.703125 4.781252q-1.390625 -0.90625 -2.578125 -0.90625q-1.15625 0 -1.953125 0.640625q-0.796875 0.640625 -1.265625 2.296875q-0.453125 1.65625 -0.453125 6.953125l0 6.40625zm19.832031 -20.750002l0 4.375002l-3.75 0l0 8.359375q0 2.546875 0.09375 2.96875q0.109375 0.421875 0.484375 0.703125q0.390625 0.265625 0.9375 0.265625q0.765625 0 2.203125 -0.53125l0.46875 4.25q-1.90625 0.828125 -4.328125 0.828125q-1.484375 0 -2.6875 -0.5q-1.1875 -0.5 -1.75 -1.28125q-0.546875 -0.796875 -0.765625 -2.140625q-0.171875 -0.96875 -0.171875 -3.875l0 -9.046875l-2.515625 0l0 -4.375002l2.515625 0l0 -4.109375l5.515625 -3.203125l0 7.3125l3.75 0zm14.980469 -7.890625l11.4375 0q3.40625 0 5.0625 0.296875q1.671875 0.28125 2.984375 1.1875q1.328125 0.890625 2.203125 2.390625q0.890625 1.484375 0.890625 3.34375q0 2.000002 -1.09375 3.687502q-1.078125 1.671875 -2.9375 2.515625q2.625 0.765625 4.03125 2.609375q1.40625 1.828125 1.40625 4.3125q0 1.953125 -0.921875 3.796875q-0.90625 1.84375 -2.484375 2.953125q-1.5625 1.09375 -3.859375 1.34375q-1.453125 0.15625 -6.984375 0.203125l-9.734375 0l0 -28.640627zm5.78125 4.765625l0 6.625002l3.78125 0q3.375 0 4.203125 -0.09375q1.484375 -0.171875 2.328125 -1.015625q0.859375 -0.859375 0.859375 -2.250002q0 -1.328125 -0.734375 -2.15625q-0.734375 -0.828125 -2.1875 -1.0q-0.859375 -0.109375 -4.9375 -0.109375l-3.3125 0zm0 11.390627l0 7.65625l5.34375 0q3.125 0 3.96875 -0.171875q1.28125 -0.234375 2.09375 -1.140625q0.8125 -0.90625 0.8125 -2.4375q0 -1.28125 -0.625 -2.171875q-0.625 -0.90625 -1.8125 -1.3125q-1.171875 -0.421875 -5.125 -0.421875l-4.65625 0zm23.042969 -11.078127l0 -5.078125l5.484375 0l0 5.078125l-5.484375 0zm0 23.562502l0 -20.750002l5.484375 0l0 20.750002l-5.484375 0zm9.847656 -10.671875q0 -2.734375 1.34375 -5.28125q1.34375 -2.5625 3.8125 -3.90625q2.46875 -1.3593769 5.515625 -1.3593769q4.71875 0 7.71875 3.062502q3.015625 3.0625 3.015625 7.71875q0 4.71875 -3.046875 7.8125q-3.03125 3.09375 -7.640625 3.09375q-2.859375 0 -5.453125 -1.28125q-2.578125 -1.296875 -3.921875 -3.78125q-1.34375 -2.5 -1.34375 -6.078125zm5.625 0.296875q0 3.09375 1.453125 4.734375q1.46875 1.640625 3.625 1.640625q2.140625 0 3.59375 -1.640625q1.453125 -1.640625 1.453125 -4.765625q0 -3.046875 -1.453125 -4.6875q-1.453125 -1.640625 -3.59375 -1.640625q-2.15625 0 -3.625 1.640625q-1.453125 1.640625 -1.453125 4.71875z" fill-rule="nonzero"/></g></svg>