<svg version="1.1" viewBox="0.0 0.0 883.6509186351706 48.0" fill="none" stroke="none" stroke-linecap="square" stroke-miterlimit="10" xmlns:xlink="http://www.w3.org/1999/xlink" xmlns="http://www.w3.org/2000/svg"><clipPath id="p.0"><path d="m0 0l883.65094 0l0 48.0l-883.65094 0l0 -48.0z" clip-rule="nonzero"/></clipPath><g clip-path="url(#p.0)"><path fill="#000000" fill-opacity="0.0" d="m0 0l883.65094 0l0 48.0l-883.65094 0z" fill-rule="evenodd"/><defs><radialGradient id="p.1" gradientUnits="userSpaceOnUse" gradientTransform="matrix(29.75173272926639 0.0 0.0 29.75173272926639 0.0 0.0)" spreadMethod="pad" cx="29.701351336670733" cy="1.7382696968838387" fx="29.701351336670733" fy="1.7382696968838387" r="29.751731872558594"><stop offset="0.0" stop-color="#073763"/><stop offset="0.19" stop-color="#08345b"/><stop offset="0.6" stop-color="#093357"/><stop offset="1.0" stop-color="#093153"/></radialGradient></defs><path fill="url(#p.1)" d="m0.0131233595 0l883.65356 0l0 51.716534l-883.65356 0z" fill-rule="evenodd"/><path fill="#000000" fill-opacity="0.0" d="m0.0131233595 -15.590551l688.53546 0l0 79.1811l-688.53546 0z" fill-rule="evenodd"/><path fill="#ffffff" d="m32.184998 7.3631954l0.265625 10.890625l-0.984375 0q-0.703125 -4.09375 -3.4375 -6.578125q-2.734375 -2.5 -5.90625 -2.5q-2.46875 0 -3.90625 1.3125q-1.421875 1.3125 -1.421875 3.015625q0 1.078125 0.5 1.921875q0.703125 1.140625 2.25 2.25q1.125 0.796875 5.21875 2.8125q5.734375 2.8125 7.734375 5.328125q1.96875 2.5 1.96875 5.734375q0 4.093752 -3.1875 7.046877q-3.1875 2.9375 -8.109375 2.9375q-1.53125 0 -2.90625 -0.3125q-1.375 -0.3125 -3.453125 -1.171875q-1.156249 -0.484375 -1.890624 -0.484375q-0.625 0 -1.328125 0.484375q-0.703125 0.484375 -1.140625 1.46875l-0.890625 0l0 -12.328127l0.890625 0q1.0625 5.203127 4.078124 7.937502q3.03125 2.71875 6.53125 2.71875q2.6875 0 4.28125 -1.46875q1.609375 -1.46875 1.609375 -3.421875q0 -1.140625 -0.609375 -2.21875q-0.609375 -1.0937519 -1.875 -2.062502q-1.25 -0.984375 -4.421875 -2.546875q-4.453125 -2.203125 -6.406249 -3.734375q-1.953125 -1.546875 -3.0 -3.4375q-1.046875 -1.90625 -1.046875 -4.203125q0 -3.90625 2.859375 -6.640625q2.874999 -2.75 7.234374 -2.75q1.59375 0 3.078125 0.390625q1.140625 0.28125 2.765625 1.0625q1.625 0.78125 2.265625 0.78125q0.625 0 0.984375 -0.375q0.375 -0.390625 0.6875 -1.859375l0.71875 0zm15.12146 0.75l0 13.03125q1.859375 -1.953125 3.390625 -2.75q1.546875 -0.8125 3.21875 -0.8125q2.109375 0 3.609375 1.203125q1.515625 1.203125 2.0 2.828125q0.5 1.625 0.5 5.46875l0 8.796877q0 2.578125 0.484375 3.21875q0.484375 0.640625 1.953125 0.8125l0 0.859375l-11.421875 0l0 -0.859375q1.203125 -0.171875 1.8125 -0.96875q0.4375 -0.625 0.4375 -3.0625l0 -10.046877q0 -2.796875 -0.21875 -3.5q-0.21875 -0.703125 -0.75 -1.09375q-0.515625 -0.40625 -1.15625 -0.40625q-0.96875 0 -1.890625 0.65625q-0.90625 0.65625 -1.96875 2.328125l0 12.062502q0 2.40625 0.359375 3.015625q0.46875 0.8125 1.890625 1.015625l0 0.859375l-11.421875 0l0 -0.859375q1.421875 -0.15625 2.015625 -0.921875q0.421875 -0.53125 0.421875 -3.109375l0 -22.875002q0 -2.5625 -0.484375 -3.1875q-0.46875 -0.625 -1.953125 -0.8125l0 -0.890625l9.171875 0zm28.855835 9.46875q2.9375 0 5.46875 1.515625q2.53125 1.515625 3.84375 4.3125q1.3125 2.78125 1.3125 6.109375q0 4.796877 -2.4375 8.015627q-2.9375 3.90625 -8.109375 3.90625q-5.078125 0 -7.828125 -3.5625q-2.75 -3.5625 -2.75 -8.265627q0 -4.84375 2.796875 -8.4375q2.8125 -3.59375 7.703125 -3.59375zm0.09375 1.703125q-1.21875 0 -2.109375 0.9375q-0.875 0.921875 -1.15625 3.65625q-0.265625 2.734375 -0.265625 7.59375q0 2.578127 0.328125 4.812502q0.265625 1.71875 1.125 2.609375q0.875 0.890625 1.984375 0.890625q1.09375 0 1.8125 -0.609375q0.9375 -0.8125 1.25 -2.28125q0.484375 -2.296875 0.484375 -9.250002q0 -4.09375 -0.46875 -5.625q-0.453125 -1.53125 -1.34375 -2.234375q-0.625 -0.5 -1.640625 -0.5zm23.289062 -1.03125l0 5.09375q2.25 -3.484375 3.9375 -4.625q1.6875 -1.140625 3.25 -1.140625q1.34375 0 2.140625 0.828125q0.8125 0.828125 0.8125 2.34375q0 1.609375 -0.78125 2.5q-0.78125 0.890625 -1.890625 0.890625q-1.265625 0 -2.21875 -0.8125q-0.9375 -0.8125 -1.09375 -0.921875q-0.25 -0.140625 -0.5625 -0.140625q-0.703125 0 -1.328125 0.53125q-0.984375 0.8125 -1.484375 2.34375q-0.78125 2.328125 -0.78125 5.140625l0 5.187502l0.03125 1.34375q0 1.375 0.171875 1.765625q0.28125 0.640625 0.84375 0.953125q0.578125 0.296875 1.921875 0.375l0 0.859375l-12.15625 0l0 -0.859375q1.46875 -0.125 1.984375 -0.8125q0.515625 -0.6875 0.515625 -3.625l0 -12.453127q0 -1.921875 -0.1875 -2.453125q-0.25 -0.671875 -0.703125 -0.984375q-0.453125 -0.328125 -1.609375 -0.4375l0 -0.890625l9.1875 0zm21.48793 -8.25l0 8.25l5.34375 0l0 2.375l-5.34375 0l0 13.906252q0 1.953125 0.171875 2.515625q0.1875 0.5625 0.640625 0.921875q0.46875 0.34375 0.859375 0.34375q1.5625 0 2.953125 -2.390625l0.71875 0.53125q-1.9375 4.625 -6.328125 4.625q-2.140625 0 -3.625 -1.1875q-1.484375 -1.203125 -1.890625 -2.671875q-0.234375 -0.8125 -0.234375 -4.421875l0 -12.171877l-2.9375 0l0 -0.84375q3.03125 -2.140625 5.15625 -4.5q2.140625 -2.359375 3.71875 -5.28125l0.796875 0zm40.102432 13.453125q4.65625 1.078125 6.53125 2.625q2.703125 2.1875 2.703125 5.671875q0 3.687502 -2.96875 6.093752q-3.640625 2.921875 -10.578125 2.921875l-16.59375 0l0 -0.890625q2.265625 0 3.0625 -0.421875q0.8125 -0.421875 1.140625 -1.09375q0.328125 -0.671875 0.328125 -3.328125l0 -21.187502q0 -2.65625 -0.328125 -3.34375q-0.328125 -0.6875 -1.140625 -1.09375q-0.8125 -0.40625 -3.0625 -0.40625l0 -0.890625l15.65625 0q5.609375 0 7.9375 1.0q2.34375 1.0 3.6875 2.984375q1.359375 1.984375 1.359375 4.21875q0 2.359375 -1.71875 4.203125q-1.703125 1.84375 -6.015625 2.9375zm-8.765625 -0.65625q3.421875 0 5.046875 -0.765625q1.625 -0.78125 2.484375 -2.171875q0.875 -1.390625 0.875 -3.5625q0 -2.171875 -0.859375 -3.546875q-0.84375 -1.390625 -2.4375 -2.109375q-1.59375 -0.734375 -5.109375 -0.703125l0 12.859375zm0 1.875l0 10.484377l-0.015625 1.203125q0 1.296875 0.65625 1.96875q0.65625 0.65625 1.96875 0.65625q1.921875 0 3.546875 -0.859375q1.625 -0.859375 2.484375 -2.484375q0.875 -1.625 0.875 -3.625q0 -2.281252 -1.0625 -4.093752q-1.0625 -1.828125 -2.921875 -2.546875q-1.84375 -0.71875 -5.53125 -0.703125zm26.807724 -17.34375q1.5625 0 2.640625 1.109375q1.09375 1.09375 1.09375 2.625q0 1.546875 -1.09375 2.640625q-1.09375 1.078125 -2.640625 1.078125q-1.53125 0 -2.625 -1.078125q-1.078125 -1.09375 -1.078125 -2.640625q0 -1.53125 1.078125 -2.625q1.09375 -1.109375 2.625 -1.109375zm3.375 10.921875l0 17.843752q0 2.390625 0.546875 3.046875q0.5625 0.65625 2.171875 0.765625l0 0.859375l-12.15625 0l0 -0.859375q1.484375 -0.0625 2.21875 -0.875q0.46875 -0.546875 0.46875 -2.9375l0 -13.156252q0 -2.375 -0.5625 -3.03125q-0.546875 -0.671875 -2.125 -0.765625l0 -0.890625l9.4375 0zm15.533066 -0.671875q2.9375 0 5.46875 1.515625q2.53125 1.515625 3.84375 4.3125q1.3125 2.78125 1.3125 6.109375q0 4.796877 -2.4375 8.015627q-2.9375 3.90625 -8.109375 3.90625q-5.078125 0 -7.828125 -3.5625q-2.75 -3.5625 -2.75 -8.265627q0 -4.84375 2.796875 -8.4375q2.8125 -3.59375 7.703125 -3.59375zm0.09375 1.703125q-1.21875 0 -2.109375 0.9375q-0.875 0.921875 -1.15625 3.65625q-0.265625 2.734375 -0.265625 7.59375q0 2.578127 0.328125 4.812502q0.265625 1.71875 1.125 2.609375q0.875 0.890625 1.984375 0.890625q1.09375 0 1.8125 -0.609375q0.9375 -0.8125 1.25 -2.28125q0.484375 -2.296875 0.484375 -9.250002q0 -4.09375 -0.46875 -5.625q-0.453125 -1.53125 -1.34375 -2.234375q-0.625 -0.5 -1.640625 -0.5z" fill-rule="nonzero"/></g></svg>