<svg version="1.1" viewBox="0.0 0.0 883.6509186351706 100.0" fill="none" stroke="none" stroke-linecap="square" stroke-miterlimit="10" xmlns:xlink="http://www.w3.org/1999/xlink" xmlns="http://www.w3.org/2000/svg"><clipPath id="p.0"><path d="m0 0l883.65094 0l0 100.0l-883.65094 0l0 -100.0z" clip-rule="nonzero"/></clipPath><g clip-path="url(#p.0)"><path fill="#000000" fill-opacity="0.0" d="m0 0l883.65094 0l0 100.0l-883.65094 0z" fill-rule="evenodd"/><defs><linearGradient id="p.1" gradientUnits="userSpaceOnUse" gradientTransform="matrix(9.929042039628026 0.0 0.0 9.929042039628026 0.0 0.0)" spreadMethod="pad" x1="0.0014538872930393524" y1="0.07105043525919912" x2="0.0014179441781655615" y2="10.000092474822168"><stop offset="0.0" stop-color="#1c4587"/><stop offset="0.39" stop-color="#4675ae"/><stop offset="1.0" stop-color="#70a4d5"/></linearGradient></defs><path fill="url(#p.1)" d="m0.0144356955 0.70866144l883.622 0l0 98.58267l-883.622 0z" fill-rule="evenodd"/><path fill="#000000" fill-opacity="0.0" d="m-0.28346458 12.031496l369.7323 0l0 79.18111l-369.7323 0z" fill-rule="evenodd"/><path fill="#ffffff" d="m10.497786 56.90712l6.9375 -0.671875q0.625 3.484375 2.53125 5.125q1.921875 1.640625 5.171875 1.640625q3.453125 0 5.1875 -1.453125q1.7499981 -1.46875 1.7499981 -3.421875q0 -1.25 -0.7343731 -2.125q-0.734375 -0.875 -2.5625 -1.53125q-1.25 -0.4375 -5.703125 -1.546875q-5.734375 -1.421875 -8.046875 -3.484375q-3.25 -2.921875 -3.25 -7.109375q0 -2.703125 1.53125 -5.046875q1.53125 -2.34375 4.40625 -3.5625q2.875 -1.234375 6.9375 -1.234375q6.65625 0 10.015623 2.921875q3.359375 2.90625 3.53125 7.765625l-7.124998 0.3125q-0.46875 -2.71875 -1.96875 -3.90625q-1.5 -1.203125 -4.515625 -1.203125q-3.109375 0 -4.875 1.28125q-1.125 0.8125 -1.125 2.1875q0 1.25 1.0625 2.140625q1.34375 1.140625 6.546875 2.375q5.203125 1.21875 7.687498 2.53125q2.5 1.3125 3.90625 3.59375q1.421875 2.28125 1.421875 5.625q0 3.03125 -1.6875 5.6875q-1.6875 2.640625 -4.78125 3.9375q-3.078123 1.28125 -7.671873 1.28125q-6.703125 0 -10.296875 -3.09375q-3.578125 -3.09375 -4.28125 -9.015625zm41.401474 -23.828125l0 12.984375q3.28125 -3.828125 7.828125 -3.828125q2.34375 0 4.21875 0.875q1.8750038 0.859375 2.8281288 2.21875q0.953125 1.34375 1.296875 2.984375q0.359375 1.625 0.359375 5.078125l0 15.0l-6.765629 0l0 -13.515625q0 -4.015625 -0.390625 -5.09375q-0.390625 -1.09375 -1.375 -1.734375q-0.96875 -0.640625 -2.4375 -0.640625q-1.6875 0 -3.015625 0.828125q-1.3125 0.8125 -1.9375 2.46875q-0.609375 1.640625 -0.609375 4.875l0 12.8125l-6.765625 0l0 -35.3125l6.765625 0zm21.819096 22.15625q0 -3.359375 1.65625 -6.515625q1.671875 -3.15625 4.71875 -4.8125q3.046875 -1.671875 6.8125 -1.671875q5.796875 0 9.5 3.765625q3.71875 3.765625 3.71875 9.53125q0 5.796875 -3.75 9.625q-3.75 3.8125 -9.421875 3.8125q-3.515625 0 -6.71875 -1.578125q-3.1875 -1.59375 -4.859375 -4.671875q-1.65625 -3.078125 -1.65625 -7.484375zm6.9375 0.359375q0 3.8125 1.8125 5.84375q1.8125 2.015625 4.453125 2.015625q2.65625 0 4.4375 -2.015625q1.796875 -2.03125 1.796875 -5.890625q0 -3.75 -1.796875 -5.765625q-1.78125 -2.03125 -4.4375 -2.03125q-2.640625 0 -4.453125 2.03125q-1.8125 2.015625 -1.8125 5.8125zm31.240967 12.796875l-6.765625 0l0 -25.578125l6.28125 0l0 3.640625q1.625 -2.578125 2.90625 -3.390625q1.296875 -0.828125 2.921875 -0.828125q2.3125 0 4.46875 1.28125l-2.09375 5.890625q-1.71875 -1.109375 -3.1875 -1.109375q-1.421875 0 -2.40625 0.796875q-0.984375 0.78125 -1.5625 2.828125q-0.5625 2.046875 -0.5625 8.5625l0 7.90625zm24.446548 -25.578125l0 5.390625l-4.625 0l0 10.3125q0 3.125 0.125 3.65625q0.140625 0.515625 0.609375 0.859375q0.46875 0.328125 1.15625 0.328125q0.9375 0 2.71875 -0.65625l0.578125 5.25q-2.359375 1.015625 -5.34375 1.015625q-1.84375 0 -3.3125 -0.609375q-1.46875 -0.625 -2.15625 -1.59375q-0.6875 -0.96875 -0.9375 -2.640625q-0.21875 -1.171875 -0.21875 -4.765625l0 -11.15625l-3.109375 0l0 -5.390625l3.109375 0l0 -5.078125l6.78125 -3.953125l0 9.03125l4.625 0zm18.475342 -9.734375l14.125 0q4.1875 0 6.234375 0.359375q2.0625 0.34375 3.6875 1.453125q1.625 1.109375 2.703125 2.953125q1.09375 1.84375 1.09375 4.125q0 2.484375 -1.34375 4.5625q-1.328125 2.0625 -3.609375 3.09375q3.21875 0.9375 4.953125 3.203125q1.734375 2.265625 1.734375 5.328125q0 2.40625 -1.125 4.6875q-1.109375 2.265625 -3.046875 3.640625q-1.9375 1.359375 -4.78125 1.671875q-1.78125 0.1875 -8.609375 0.234375l-12.015625 0l0 -35.3125zm7.140625 5.875l0 8.171875l4.671875 0q4.15625 0 5.171875 -0.125q1.828125 -0.21875 2.875 -1.265625q1.046875 -1.046875 1.046875 -2.75q0 -1.640625 -0.90625 -2.65625q-0.890625 -1.03125 -2.671875 -1.25q-1.0625 -0.125 -6.09375 -0.125l-4.09375 0zm0 14.046875l0 9.4375l6.59375 0q3.859375 0 4.890625 -0.21875q1.59375 -0.28125 2.578125 -1.390625q1.0 -1.125 1.0 -3.015625q0 -1.578125 -0.765625 -2.6875q-0.765625 -1.109375 -2.234375 -1.609375q-1.453125 -0.515625 -6.3125 -0.515625l-5.75 0zm28.420074 -13.65625l0 -6.265625l6.765625 0l0 6.265625l-6.765625 0zm0 29.046875l0 -25.578125l6.765625 0l0 25.578125l-6.765625 0zm12.126816 -13.15625q0 -3.359375 1.65625 -6.515625q1.671875 -3.15625 4.71875 -4.8125q3.046875 -1.671875 6.8125 -1.671875q5.796875 0 9.5 3.765625q3.71875 3.765625 3.71875 9.53125q0 5.796875 -3.75 9.625q-3.75 3.8125 -9.421875 3.8125q-3.515625 0 -6.71875 -1.578125q-3.1875 -1.59375 -4.859375 -4.671875q-1.65625 -3.078125 -1.65625 -7.484375zm6.9375 0.359375q0 3.8125 1.8125 5.84375q1.8125 2.015625 4.453125 2.015625q2.65625 0 4.4375 -2.015625q1.796875 -2.03125 1.796875 -5.890625q0 -3.75 -1.796875 -5.765625q-1.78125 -2.03125 -4.4375 -2.03125q-2.640625 0 -4.453125 2.03125q-1.8125 2.015625 -1.8125 5.8125z" fill-rule="nonzero"/></g></svg>