<svg version="1.1" viewBox="0.0 0.0 883.6509186351706 100.0" fill="none" stroke="none" stroke-linecap="square" stroke-miterlimit="10" xmlns:xlink="http://www.w3.org/1999/xlink" xmlns="http://www.w3.org/2000/svg"><clipPath id="p.0"><path d="m0 0l883.65094 0l0 100.0l-883.65094 0l0 -100.0z" clip-rule="nonzero"/></clipPath><g clip-path="url(#p.0)"><path fill="#000000" fill-opacity="0.0" d="m0 0l883.65094 0l0 100.0l-883.65094 0z" fill-rule="evenodd"/><defs><linearGradient id="p.1" gradientUnits="userSpaceOnUse" gradientTransform="matrix(9.929042039628026 0.0 0.0 9.929042039628026 0.0 0.0)" spreadMethod="pad" x1="0.0014538872930393524" y1="0.07105043525919912" x2="0.0014179441781655615" y2="10.000092474822168"><stop offset="0.0" stop-color="#1c4587"/><stop offset="0.39" stop-color="#4675ae"/><stop offset="1.0" stop-color="#70a4d5"/></linearGradient></defs><path fill="url(#p.1)" d="m0.0144356955 0.70866144l883.622 0l0 98.58267l-883.622 0z" fill-rule="evenodd"/><path fill="#ffffff" d="m11.373811 57.20991l9.187499 -0.890625q0.828125 4.625 3.359375 6.796875q2.546875 2.1718788 6.84375 2.1718788q4.5625 0 6.875 -1.9218788q2.3125 -1.9375 2.3125 -4.53125q0 -1.65625 -0.96875 -2.8125q-0.96875 -1.171875 -3.390625 -2.03125q-1.671875 -0.578125 -7.5625 -2.046875q-7.59375 -1.875 -10.65625 -4.625q-4.312499 -3.859375 -4.312499 -9.40625q0 -3.578125 2.03125 -6.687498q2.031249 -3.109375 5.828124 -4.734375q3.8125 -1.625 9.203125 -1.625q8.8125 0 13.265625 3.859375q4.453125 3.859373 4.671875 10.312498l-9.4375 0.40625q-0.609375 -3.609375 -2.609375 -5.1875q-1.984375 -1.578125 -5.984375 -1.578125q-4.109375 0 -6.4375 1.6875q-1.5 1.09375 -1.5 2.90625q0 1.65625 1.40625 2.84375q1.78125 1.5 8.671875 3.125q6.890625 1.625 10.1875 3.375q3.3125 1.734375 5.171875 4.75q1.875 3.015625 1.875 7.4375q0 4.03125 -2.234375 7.546879q-2.234375 3.5 -6.328125 5.203125q-4.078125 1.703125 -10.171875 1.703125q-8.859375 0 -13.625 -4.09375q-4.749999 -4.109375 -5.671874 -11.953129zm54.838974 -31.546873l0 17.203123q4.328125 -5.078125 10.359375 -5.078125q3.09375 0 5.578125 1.15625q2.5 1.140625 3.75 2.9375q1.265625 1.78125 1.71875 3.953125q0.46875 2.15625 0.46875 6.71875l0 19.875004l-8.953125 0l0 -17.890629q0 -5.328125 -0.515625 -6.765625q-0.515625 -1.4375 -1.8125 -2.28125q-1.28125 -0.84375 -3.234375 -0.84375q-2.234375 0 -3.984375 1.09375q-1.75 1.078125 -2.5625 3.265625q-0.8125 2.171875 -0.8125 6.453125l0 16.968754l-8.96875 0l0 -46.765625l8.96875 0zm28.889404 29.343748q0 -4.453125 2.203125 -8.625q2.203125 -4.1875 6.234375 -6.390625q4.046875 -2.203125 9.015625 -2.203125q7.6875 0 12.59375 5.0q4.921875 4.984375 4.921875 12.609375q0 7.6875 -4.96875 12.750004q-4.953125 5.046875 -12.484375 5.046875q-4.65625 0 -8.890625 -2.09375q-4.21875 -2.109375 -6.421875 -6.171875q-2.203125 -4.078129 -2.203125 -9.921879zm9.1875 0.484375q0 5.046875 2.390625 7.71875q2.40625 2.6718788 5.90625 2.6718788q3.515625 0 5.890625 -2.6718788q2.375 -2.671875 2.375 -7.78125q0 -4.984375 -2.375 -7.65625q-2.375 -2.6875 -5.890625 -2.6875q-3.5 0 -5.90625 2.6875q-2.390625 2.671875 -2.390625 7.71875zm41.37378 16.937504l-8.953125 0l0 -33.875004l8.3125 0l0 4.8125q2.140625 -3.40625 3.84375 -4.484375q1.71875 -1.09375 3.875 -1.09375q3.0625 0 5.90625 1.6875l-2.765625 7.8125q-2.265625 -1.46875 -4.21875 -1.46875q-1.875 0 -3.1875 1.046875q-1.3125 1.03125 -2.0625 3.75q-0.75 2.703125 -0.75 11.34375l0 10.468754zm32.376236 -33.875004l0 7.140625l-6.125 0l0 13.65625q0 4.140625 0.171875 4.828129q0.1875 0.6875 0.796875 1.140625q0.625 0.4375 1.53125 0.4375q1.234375 0 3.59375 -0.859375l0.765625 6.953125q-3.125 1.34375 -7.078125 1.34375q-2.421875 0 -4.375 -0.8125q-1.9375 -0.8125 -2.859375 -2.09375q-0.90625 -1.296875 -1.25 -3.5q-0.28125 -1.5625 -0.28125 -6.328129l0 -14.765625l-4.125 0l0 -7.140625l4.125 0l0 -6.734373l8.984375 -5.234375l0 11.968748l6.125 0zm24.46753 -12.890623l18.703125 0q5.546875 0 8.265625 0.46875q2.734375 0.453125 4.875 1.921875q2.15625 1.46875 3.59375 3.921875q1.4375 2.437498 1.4375 5.453123q0 3.296875 -1.765625 6.046875q-1.765625 2.734375 -4.796875 4.109375q4.265625 1.234375 6.5625 4.234375q2.296875 3.0 2.296875 7.046875q0 3.203125 -1.484375 6.218754q-1.484375 3.0 -4.046875 4.8125q-2.5625 1.796875 -6.328125 2.21875q-2.359375 0.25 -11.390625 0.3125l-15.921875 0l0 -46.765625zm9.453125 7.781248l0 10.8125l6.1875 0q5.515625 0 6.84375 -0.15625q2.4375 -0.28125 3.8125 -1.671875q1.390625 -1.390625 1.390625 -3.65625q0 -2.171875 -1.203125 -3.515625q-1.1875 -1.359375 -3.546875 -1.65625q-1.40625 -0.15625 -8.0625 -0.15625l-5.421875 0zm0 18.59375l0 12.515629l8.734375 0q5.109375 0 6.46875 -0.296875q2.109375 -0.3750038 3.421875 -1.8593788q1.328125 -1.484375 1.328125 -3.96875q0 -2.109375 -1.015625 -3.578125q-1.015625 -1.46875 -2.953125 -2.140625q-1.921875 -0.671875 -8.375 -0.671875l-7.609375 0zm37.631012 -18.078125l0 -8.296873l8.96875 0l0 8.296873l-8.96875 0zm0 38.468754l0 -33.875004l8.96875 0l0 33.875004l-8.96875 0zm16.072113 -17.421879q0 -4.453125 2.203125 -8.625q2.203125 -4.1875 6.234375 -6.390625q4.046875 -2.203125 9.015625 -2.203125q7.6875 0 12.59375 5.0q4.921875 4.984375 4.921875 12.609375q0 7.6875 -4.96875 12.750004q-4.953125 5.046875 -12.484375 5.046875q-4.65625 0 -8.890625 -2.09375q-4.21875 -2.109375 -6.421875 -6.171875q-2.203125 -4.078129 -2.203125 -9.921879zm9.1875 0.484375q0 5.046875 2.390625 7.71875q2.40625 2.6718788 5.90625 2.6718788q3.515625 0 5.890625 -2.6718788q2.375 -2.671875 2.375 -7.78125q0 -4.984375 -2.375 -7.65625q-2.375 -2.6875 -5.890625 -2.6875q-3.5 0 -5.90625 2.6875q-2.390625 2.671875 -2.390625 7.71875z" fill-rule="nonzero"/></g></svg>