<svg version="1.1" viewBox="0.0 0.0 883.6509186351706 100.0" fill="none" stroke="none" stroke-linecap="square" stroke-miterlimit="10" xmlns:xlink="http://www.w3.org/1999/xlink" xmlns="http://www.w3.org/2000/svg"><clipPath id="p.0"><path d="m0 0l883.65094 0l0 100.0l-883.65094 0l0 -100.0z" clip-rule="nonzero"/></clipPath><g clip-path="url(#p.0)"><path fill="#000000" fill-opacity="0.0" d="m0 0l883.65094 0l0 100.0l-883.65094 0z" fill-rule="evenodd"/><path fill="#073763" d="m0.015748031 0.70866144l883.6221 0l0 24.251968l-883.6221 0z" fill-rule="evenodd"/><path fill="#000000" fill-opacity="0.0" d="m0 20.110237l706.6772 0l0 63.02362l-706.6772 0z" fill-rule="evenodd"/><path fill="#000000" d="m11.640625 63.670235l0 -25.765625l10.953125 0q4.125 0 6.0 0.703125q1.875 0.6875 3.0 2.46875q1.125 1.765625 1.125 4.046875q0 2.90625 -1.71875 4.796875q-1.703125 1.890625 -5.09375 2.375q1.6875 0.984375 2.78125 2.171875q1.109375 1.171875 2.96875 4.171875l3.15625 5.03125l-6.234375 0l-3.75 -5.609375q-2.015625 -3.0 -2.75 -3.78125q-0.734375 -0.78125 -1.5625 -1.078125q-0.828125 -0.296875 -2.625 -0.296875l-1.046875 0l0 10.765625l-5.203125 0zm5.203125 -14.875l3.84375 0q3.75 0 4.671875 -0.3125q0.9375 -0.3125 1.46875 -1.078125q0.53125 -0.78125 0.53125 -1.953125q0 -1.296875 -0.703125 -2.09375q-0.6875 -0.796875 -1.953125 -1.015625q-0.640625 -0.078125 -3.796875 -0.078125l-4.0625 0l0 6.53125zm31.544922 8.9375l4.921875 0.828125q-0.9375 2.703125 -3.0 4.125q-2.046875 1.40625 -5.109375 1.40625q-4.875 0 -7.21875 -3.1875q-1.84375 -2.546875 -1.84375 -6.421875q0 -4.640625 2.421875 -7.265625q2.4375 -2.640625 6.140625 -2.640625q4.171875 0 6.578125 2.75q2.40625 2.75 2.296875 8.4375l-12.375 0q0.0625 2.1875 1.203125 3.421875q1.140625 1.21875 2.84375 1.21875q1.15625 0 1.9375 -0.625q0.796875 -0.640625 1.203125 -2.046875zm0.28125 -5.0q-0.046875 -2.140625 -1.109375 -3.25q-1.046875 -1.125 -2.5625 -1.125q-1.609375 0 -2.671875 1.171875q-1.046875 1.1875 -1.03125 3.203125l7.375 0zm7.1933594 5.609375l4.953125 -0.75q0.328125 1.4375 1.28125 2.1875q0.96875 0.75 2.71875 0.75q1.90625 0 2.875 -0.703125q0.65625 -0.5 0.65625 -1.328125q0 -0.5625 -0.359375 -0.921875q-0.359375 -0.359375 -1.640625 -0.65625q-5.984375 -1.3125 -7.578125 -2.40625q-2.21875 -1.515625 -2.21875 -4.203125q0 -2.421875 1.90625 -4.078125q1.921875 -1.65625 5.953125 -1.65625q3.828125 0 5.6875 1.25q1.875 1.25 2.578125 3.6875l-4.671875 0.859375q-0.296875 -1.078125 -1.140625 -1.65625q-0.828125 -0.59375 -2.375 -0.59375q-1.9375 0 -2.78125 0.546875q-0.5625 0.390625 -0.5625 1.0q0 0.53125 0.484375 0.90625q0.671875 0.484375 4.609375 1.390625q3.953125 0.890625 5.515625 2.1875q1.546875 1.328125 1.546875 3.671875q0 2.578125 -2.140625 4.421875q-2.140625 1.84375 -6.34375 1.84375q-3.8125 0 -6.046875 -1.546875q-2.21875 -1.546875 -2.90625 -4.203125zm32.56836 -0.609375l4.921875 0.828125q-0.9375 2.703125 -3.0 4.125q-2.046875 1.40625 -5.109375 1.40625q-4.875 0 -7.21875 -3.1875q-1.84375 -2.546875 -1.84375 -6.421875q0 -4.640625 2.421875 -7.265625q2.4375 -2.640625 6.140625 -2.640625q4.171875 0 6.578125 2.75q2.40625 2.75 2.296875 8.4375l-12.375 0q0.0625 2.1875 1.203125 3.421875q1.140625 1.21875 2.84375 1.21875q1.15625 0 1.9375 -0.625q0.796875 -0.640625 1.203125 -2.046875zm0.28125 -5.0q-0.046875 -2.140625 -1.109375 -3.25q-1.046875 -1.125 -2.5625 -1.125q-1.609375 0 -2.671875 1.171875q-1.046875 1.1875 -1.03125 3.203125l7.375 0zm12.630859 -2.03125l-4.484375 -0.8125q0.75 -2.703125 2.59375 -4.0q1.84375 -1.3125 5.484375 -1.3125q3.3125 0 4.921875 0.78125q1.625 0.78125 2.28125 1.984375q0.65625 1.203125 0.65625 4.421875l-0.046875 5.765625q0 2.46875 0.234375 3.640625q0.234375 1.15625 0.890625 2.5l-4.890625 0q-0.1875 -0.5 -0.46875 -1.453125q-0.125 -0.453125 -0.1875 -0.59375q-1.265625 1.234375 -2.703125 1.859375q-1.4375 0.609375 -3.078125 0.609375q-2.875 0 -4.546875 -1.5625q-1.65625 -1.5625 -1.65625 -3.953125q0 -1.59375 0.75 -2.828125q0.765625 -1.234375 2.125 -1.890625q1.359375 -0.671875 3.9375 -1.15625q3.453125 -0.65625 4.796875 -1.21875l0 -0.484375q0 -1.421875 -0.703125 -2.03125q-0.703125 -0.609375 -2.65625 -0.609375q-1.328125 0 -2.0625 0.515625q-0.734375 0.515625 -1.1875 1.828125zm6.609375 4.0q-0.953125 0.3125 -3.015625 0.765625q-2.046875 0.4375 -2.6875 0.859375q-0.96875 0.6875 -0.96875 1.734375q0 1.03125 0.765625 1.796875q0.78125 0.75 1.984375 0.75q1.328125 0 2.546875 -0.875q0.890625 -0.671875 1.171875 -1.640625q0.203125 -0.625 0.203125 -2.40625l0 -0.984375zm14.443359 8.96875l-4.9375 0l0 -18.671875l4.59375 0l0 2.65625q1.171875 -1.875 2.109375 -2.46875q0.9375 -0.609375 2.140625 -0.609375q1.6875 0 3.25 0.9375l-1.53125 4.296875q-1.25 -0.796875 -2.3125 -0.796875q-1.046875 0 -1.765625 0.578125q-0.71875 0.5625 -1.140625 2.0625q-0.40625 1.484375 -0.40625 6.25l0 5.765625zm25.55664 -13.15625l-4.859375 0.890625q-0.25 -1.46875 -1.125 -2.203125q-0.875 -0.734375 -2.25 -0.734375q-1.859375 0 -2.953125 1.28125q-1.09375 1.265625 -1.09375 4.25q0 3.328125 1.109375 4.703125q1.125 1.359375 3.0 1.359375q1.40625 0 2.296875 -0.796875q0.90625 -0.796875 1.265625 -2.75l4.859375 0.828125q-0.75 3.34375 -2.90625 5.046875q-2.140625 1.703125 -5.75 1.703125q-4.09375 0 -6.53125 -2.578125q-2.421875 -2.59375 -2.421875 -7.15625q0 -4.625 2.4375 -7.203125q2.4375 -2.578125 6.609375 -2.578125q3.40625 0 5.421875 1.46875q2.015625 1.46875 2.890625 4.46875zm8.662109 -12.609375l0 9.46875q2.390625 -2.796875 5.71875 -2.796875q1.703125 0 3.078125 0.640625q1.375 0.625 2.0625 1.609375q0.703125 0.984375 0.953125 2.1875q0.25 1.1875 0.25 3.703125l0 10.953125l-4.9375 0l0 -9.859375q0 -2.9375 -0.28125 -3.71875q-0.28125 -0.796875 -1.0 -1.265625q-0.703125 -0.46875 -1.78125 -0.46875q-1.21875 0 -2.1875 0.609375q-0.96875 0.59375 -1.421875 1.796875q-0.453125 1.203125 -0.453125 3.546875l0 9.359375l-4.9375 0l0 -25.765625l4.9375 0zm43.601562 16.296875l5.046875 1.59375q-1.15625 4.21875 -3.859375 6.265625q-2.703125 2.046875 -6.84375 2.046875q-5.140625 0 -8.453125 -3.5q-3.296875 -3.515625 -3.296875 -9.59375q0 -6.4375 3.3125 -9.984375q3.328125 -3.5625 8.75 -3.5625q4.734375 0 7.6875 2.78125q1.75 1.65625 2.625 4.75l-5.140625 1.234375q-0.46875 -2.0 -1.921875 -3.15625q-1.4375 -1.171875 -3.515625 -1.171875q-2.859375 0 -4.65625 2.0625q-1.78125 2.046875 -1.78125 6.65625q0 4.890625 1.75 6.96875q1.765625 2.0625 4.578125 2.0625q2.078125 0 3.5625 -1.3125q1.5 -1.3125 2.15625 -4.140625zm8.326172 -0.125q0 -2.46875 1.21875 -4.765625q1.21875 -2.3125 3.4375 -3.515625q2.21875 -1.21875 4.96875 -1.21875q4.234375 0 6.9375 2.75q2.703125 2.75 2.703125 6.953125q0 4.234375 -2.734375 7.03125q-2.734375 2.78125 -6.875 2.78125q-2.5625 0 -4.890625 -1.15625q-2.328125 -1.171875 -3.546875 -3.40625q-1.21875 -2.234375 -1.21875 -5.453125zm5.0625 0.265625q0 2.765625 1.3125 4.25q1.328125 1.46875 3.265625 1.46875q1.9375 0 3.234375 -1.46875q1.3125 -1.484375 1.3125 -4.296875q0 -2.734375 -1.3125 -4.203125q-1.296875 -1.484375 -3.234375 -1.484375q-1.9375 0 -3.265625 1.484375q-1.3125 1.46875 -1.3125 4.25zm18.06836 9.328125l0 -25.765625l4.953125 0l0 25.765625l-4.953125 0zm10.001953 0l0 -25.765625l4.953125 0l0 25.765625l-4.953125 0zm13.705078 -12.96875l-4.484375 -0.8125q0.75 -2.703125 2.59375 -4.0q1.84375 -1.3125 5.484375 -1.3125q3.3125 0 4.921875 0.78125q1.625 0.78125 2.28125 1.984375q0.65625 1.203125 0.65625 4.421875l-0.046875 5.765625q0 2.46875 0.234375 3.640625q0.234375 1.15625 0.890625 2.5l-4.890625 0q-0.1875 -0.5 -0.46875 -1.453125q-0.125 -0.453125 -0.1875 -0.59375q-1.265625 1.234375 -2.703125 1.859375q-1.4375 0.609375 -3.078125 0.609375q-2.875 0 -4.546875 -1.5625q-1.65625 -1.5625 -1.65625 -3.953125q0 -1.59375 0.75 -2.828125q0.765625 -1.234375 2.125 -1.890625q1.359375 -0.671875 3.9375 -1.15625q3.453125 -0.65625 4.796875 -1.21875l0 -0.484375q0 -1.421875 -0.703125 -2.03125q-0.703125 -0.609375 -2.65625 -0.609375q-1.328125 0 -2.0625 0.515625q-0.734375 0.515625 -1.1875 1.828125zm6.609375 4.0q-0.953125 0.3125 -3.015625 0.765625q-2.046875 0.4375 -2.6875 0.859375q-0.96875 0.6875 -0.96875 1.734375q0 1.03125 0.765625 1.796875q0.78125 0.75 1.984375 0.75q1.328125 0 2.546875 -0.875q0.890625 -0.671875 1.171875 -1.640625q0.203125 -0.625 0.203125 -2.40625l0 -0.984375zm9.505859 8.96875l0 -25.765625l4.9375 0l0 9.28125q2.28125 -2.609375 5.421875 -2.609375q3.40625 0 5.640625 2.46875q2.234375 2.46875 2.234375 7.09375q0 4.78125 -2.28125 7.375q-2.28125 2.578125 -5.53125 2.578125q-1.59375 0 -3.15625 -0.796875q-1.546875 -0.796875 -2.671875 -2.375l0 2.75l-4.59375 0zm4.90625 -9.734375q0 2.890625 0.90625 4.28125q1.28125 1.96875 3.421875 1.96875q1.625 0 2.78125 -1.390625q1.15625 -1.40625 1.15625 -4.40625q0 -3.203125 -1.171875 -4.609375q-1.15625 -1.421875 -2.96875 -1.421875q-1.765625 0 -2.953125 1.390625q-1.171875 1.375 -1.171875 4.1875zm16.146484 0.140625q0 -2.46875 1.21875 -4.765625q1.21875 -2.3125 3.4375 -3.515625q2.21875 -1.21875 4.96875 -1.21875q4.234375 0 6.9375 2.75q2.703125 2.75 2.703125 6.953125q0 4.234375 -2.734375 7.03125q-2.734375 2.78125 -6.875 2.78125q-2.5625 0 -4.890625 -1.15625q-2.328125 -1.171875 -3.546875 -3.40625q-1.21875 -2.234375 -1.21875 -5.453125zm5.0625 0.265625q0 2.765625 1.3125 4.25q1.328125 1.46875 3.265625 1.46875q1.9375 0 3.234375 -1.46875q1.3125 -1.484375 1.3125 -4.296875q0 -2.734375 -1.3125 -4.203125q-1.296875 -1.484375 -3.234375 -1.484375q-1.9375 0 -3.265625 1.484375q-1.3125 1.46875 -1.3125 4.25zm22.802734 9.328125l-4.9375 0l0 -18.671875l4.59375 0l0 2.65625q1.171875 -1.875 2.109375 -2.46875q0.9375 -0.609375 2.140625 -0.609375q1.6875 0 3.25 0.9375l-1.53125 4.296875q-1.25 -0.796875 -2.3125 -0.796875q-1.046875 0 -1.765625 0.578125q-0.71875 0.5625 -1.140625 2.0625q-0.40625 1.484375 -0.40625 6.25l0 5.765625zm12.978516 -12.96875l-4.484375 -0.8125q0.75 -2.703125 2.59375 -4.0q1.84375 -1.3125 5.484375 -1.3125q3.3125 0 4.921875 0.78125q1.625 0.78125 2.28125 1.984375q0.65625 1.203125 0.65625 4.421875l-0.046875 5.765625q0 2.46875 0.234375 3.640625q0.234375 1.15625 0.890625 2.5l-4.890625 0q-0.1875 -0.5 -0.46875 -1.453125q-0.125 -0.453125 -0.1875 -0.59375q-1.265625 1.234375 -2.703125 1.859375q-1.4375 0.609375 -3.078125 0.609375q-2.875 0 -4.546875 -1.5625q-1.65625 -1.5625 -1.65625 -3.953125q0 -1.59375 0.75 -2.828125q0.765625 -1.234375 2.125 -1.890625q1.359375 -0.671875 3.9375 -1.15625q3.453125 -0.65625 4.796875 -1.21875l0 -0.484375q0 -1.421875 -0.703125 -2.03125q-0.703125 -0.609375 -2.65625 -0.609375q-1.328125 0 -2.0625 0.515625q-0.734375 0.515625 -1.1875 1.828125zm6.609375 4.0q-0.953125 0.3125 -3.015625 0.765625q-2.046875 0.4375 -2.6875 0.859375q-0.96875 0.6875 -0.96875 1.734375q0 1.03125 0.765625 1.796875q0.78125 0.75 1.984375 0.75q1.328125 0 2.546875 -0.875q0.890625 -0.671875 1.171875 -1.640625q0.203125 -0.625 0.203125 -2.40625l0 -0.984375zm18.271484 -9.703125l0 3.9375l-3.375 0l0 7.53125q0 2.28125 0.09375 2.65625q0.109375 0.375 0.453125 0.625q0.34375 0.25 0.828125 0.25q0.6875 0 1.984375 -0.484375l0.421875 3.84375q-1.71875 0.734375 -3.90625 0.734375q-1.328125 0 -2.40625 -0.4375q-1.0625 -0.453125 -1.5625 -1.171875q-0.5 -0.71875 -0.703125 -1.921875q-0.15625 -0.859375 -0.15625 -3.484375l0 -8.140625l-2.265625 0l0 -3.9375l2.265625 0l0 -3.703125l4.953125 -2.890625l0 6.59375l3.375 0zm3.4257812 -2.53125l0 -4.5625l4.953125 0l0 4.5625l-4.953125 0zm0 21.203125l0 -18.671875l4.953125 0l0 18.671875l-4.953125 0zm8.861328 -9.59375q0 -2.46875 1.21875 -4.765625q1.21875 -2.3125 3.4375 -3.515625q2.21875 -1.21875 4.96875 -1.21875q4.234375 0 6.9375 2.75q2.703125 2.75 2.703125 6.953125q0 4.234375 -2.734375 7.03125q-2.734375 2.78125 -6.875 2.78125q-2.5625 0 -4.890625 -1.15625q-2.328125 -1.171875 -3.546875 -3.40625q-1.21875 -2.234375 -1.21875 -5.453125zm5.0625 0.265625q0 2.765625 1.3125 4.25q1.328125 1.46875 3.265625 1.46875q1.9375 0 3.234375 -1.46875q1.3125 -1.484375 1.3125 -4.296875q0 -2.734375 -1.3125 -4.203125q-1.296875 -1.484375 -3.234375 -1.484375q-1.9375 0 -3.265625 1.484375q-1.3125 1.46875 -1.3125 4.25zm35.052734 9.328125l-4.9375 0l0 -9.53125q0 -3.015625 -0.3125 -3.90625q-0.3125 -0.890625 -1.03125 -1.375q-0.71875 -0.5 -1.71875 -0.5q-1.28125 0 -2.296875 0.703125q-1.015625 0.703125 -1.40625 1.875q-0.375 1.15625 -0.375 4.28125l0 8.453125l-4.9375 0l0 -18.671875l4.59375 0l0 2.75q2.4375 -3.171875 6.15625 -3.171875q1.625 0 2.96875 0.59375q1.359375 0.59375 2.046875 1.515625q0.703125 0.90625 0.96875 2.0625q0.28125 1.15625 0.28125 3.3125l0 11.609375z" fill-rule="nonzero"/><path fill="#073763" d="m0.015748031 75.74803l883.6221 0l0 24.251968l-883.6221 0z" fill-rule="evenodd"/></g></svg>