<svg version="1.1" viewBox="0.0 0.0 883.6509186351706 100.0" fill="none" stroke="none" stroke-linecap="square" stroke-miterlimit="10" xmlns:xlink="http://www.w3.org/1999/xlink" xmlns="http://www.w3.org/2000/svg"><clipPath id="p.0"><path d="m0 0l883.65094 0l0 100.0l-883.65094 0l0 -100.0z" clip-rule="nonzero"/></clipPath><g clip-path="url(#p.0)"><path fill="#000000" fill-opacity="0.0" d="m0 0l883.65094 0l0 100.0l-883.65094 0z" fill-rule="evenodd"/><defs><linearGradient id="p.1" gradientUnits="userSpaceOnUse" gradientTransform="matrix(10.009604142109684 0.0 0.0 10.009604142109684 0.0 0.0)" spreadMethod="pad" x1="0.0015732932627856872" y1="-3.1956339977817403E-4" x2="0.001537058652318947" y2="10.009284578644321"><stop offset="0.0" stop-color="#1c4587"/><stop offset="0.39" stop-color="#4675ae"/><stop offset="1.0" stop-color="#70a4d5"/></linearGradient></defs><path fill="url(#p.1)" d="m0.015748031 0l883.6221 0l0 100.18898l-883.6221 0z" fill-rule="evenodd"/><path fill="#ffffff" d="m13.890748 73.0l0 -47.71875l20.28125 0q7.65625 0 11.109375 1.296875q3.46875 1.28125 5.546875 4.578125q2.09375 3.28125 2.09375 7.5q0 5.375 -3.15625 8.875q-3.15625 3.5 -9.4375 4.40625q3.125 1.828125 5.15625 4.015625q2.03125 2.171875 5.484375 7.734375l5.828125 9.3125l-11.53125 0l-6.953125 -10.375q-3.71875 -5.578125 -5.09375 -7.015625q-1.3593731 -1.453125 -2.890623 -1.984375q-1.53125 -0.546875 -4.84375 -0.546875l-1.953125 0l0 19.921875l-9.640626 0zm9.640626 -27.53125l7.125 0q6.937498 0 8.656248 -0.578125q1.734375 -0.59375 2.703125 -2.03125q0.984375 -1.4375 0.984375 -3.578125q0 -2.40625 -1.296875 -3.890625q-1.28125 -1.484375 -3.625 -1.875q-1.171875 -0.15625 -7.031248 -0.15625l-7.515625 0l0 12.109375zm58.41826 16.53125l9.109375 1.53125q-1.75 5.015625 -5.546875 7.640625q-3.78125 2.609375 -9.484375 2.609375q-9.015625 0 -13.34375 -5.890625q-3.421875 -4.71875 -3.421875 -11.90625q0 -8.59375 4.484375 -13.453125q4.5 -4.875 11.375 -4.875q7.703125 0 12.15625 5.09375q4.46875 5.09375 4.28125 15.609375l-22.921875 0q0.109375 4.0625 2.21875 6.328125q2.109375 2.265625 5.265625 2.265625q2.15625 0 3.609375 -1.171875q1.46875 -1.171875 2.21875 -3.78125zm0.53125 -9.25q-0.109375 -3.96875 -2.0625 -6.03125q-1.953125 -2.0625 -4.75 -2.0625q-2.984375 0 -4.9375 2.171875q-1.953125 2.1875 -1.921875 5.921875l13.671875 0zm13.305405 10.390625l9.171875 -1.40625q0.59375 2.671875 2.375 4.0625q1.796875 1.375 5.015625 1.375q3.546875 0 5.34375 -1.296875q1.203125 -0.921875 1.203125 -2.4375q0 -1.046875 -0.65625 -1.734375q-0.671875 -0.640625 -3.0625 -1.203125q-11.0625 -2.4375 -14.015625 -4.453125q-4.109375 -2.796875 -4.109375 -7.78125q0 -4.5 3.546875 -7.546875q3.546875 -3.0625 11.0 -3.0625q7.09375 0 10.546875 2.3125q3.453125 2.3125 4.75 6.828125l-8.625 1.59375q-0.546875 -2.015625 -2.09375 -3.078125q-1.546875 -1.078125 -4.40625 -1.078125q-3.609375 0 -5.171875 1.0q-1.046875 0.71875 -1.046875 1.859375q0 0.96875 0.90625 1.65625q1.234375 0.90625 8.546875 2.578125q7.3125 1.65625 10.203125 4.0625q2.859375 2.4375 2.859375 6.796875q0 4.765625 -3.96875 8.1875q-3.96875 3.40625 -11.75 3.40625q-7.0625 0 -11.1875 -2.859375q-4.109375 -2.875 -5.375 -7.78125zm60.305405 -1.140625l9.109375 1.53125q-1.75 5.015625 -5.546875 7.640625q-3.78125 2.609375 -9.484375 2.609375q-9.015625 0 -13.34375 -5.890625q-3.421875 -4.71875 -3.421875 -11.90625q0 -8.59375 4.484375 -13.453125q4.5 -4.875 11.375 -4.875q7.703125 0 12.15625 5.09375q4.46875 5.09375 4.28125 15.609375l-22.921875 0q0.109375 4.0625 2.21875 6.328125q2.109375 2.265625 5.265625 2.265625q2.15625 0 3.609375 -1.171875q1.46875 -1.171875 2.21875 -3.78125zm0.53125 -9.25q-0.109375 -3.96875 -2.0625 -6.03125q-1.953125 -2.0625 -4.75 -2.0625q-2.984375 0 -4.9375 2.171875q-1.953125 2.1875 -1.921875 5.921875l13.671875 0zm23.367905 -3.765625l-8.3125 -1.5q1.40625 -5.015625 4.8125 -7.421875q3.421875 -2.40625 10.171875 -2.40625q6.109375 0 9.109375 1.453125q3.0 1.4375 4.21875 3.671875q1.21875 2.234375 1.21875 8.1875l-0.09375 10.671875q0 4.5625 0.4375 6.734375q0.4375 2.15625 1.640625 4.625l-9.046875 0q-0.359375 -0.90625 -0.875 -2.703125q-0.234375 -0.8125 -0.328125 -1.078125q-2.34375 2.28125 -5.015625 3.421875q-2.671875 1.140625 -5.703125 1.140625q-5.328125 0 -8.40625 -2.890625q-3.078125 -2.90625 -3.078125 -7.328125q0 -2.9375 1.390625 -5.21875q1.40625 -2.296875 3.921875 -3.515625q2.53125 -1.21875 7.28125 -2.140625q6.421875 -1.203125 8.890625 -2.25l0 -0.90625q0 -2.640625 -1.3125 -3.75q-1.296875 -1.125 -4.90625 -1.125q-2.4375 0 -3.8125 0.96875q-1.359375 0.953125 -2.203125 3.359375zm12.234375 7.421875q-1.765625 0.578125 -5.578125 1.390625q-3.796875 0.8125 -4.96875 1.59375q-1.796875 1.28125 -1.796875 3.234375q0 1.90625 1.4375 3.3125q1.4375 1.40625 3.640625 1.40625q2.484375 0 4.71875 -1.640625q1.671875 -1.234375 2.1875 -3.015625q0.359375 -1.171875 0.359375 -4.46875l0 -1.8125zm26.75853 16.59375l-9.15625 0l0 -34.5625l8.5 0l0 4.90625q2.171875 -3.484375 3.90625 -4.578125q1.75 -1.109375 3.96875 -1.109375q3.125 0 6.015625 1.71875l-2.828125 7.984375q-2.3125 -1.5 -4.296875 -1.5q-1.921875 0 -3.265625 1.0625q-1.328125 1.046875 -2.09375 3.8125q-0.75 2.765625 -0.75 11.59375l0 10.671875zm47.314957 -24.34375l-9.015625 1.625q-0.453125 -2.703125 -2.0625 -4.0625q-1.609375 -1.375 -4.1875 -1.375q-3.421875 0 -5.453125 2.359375q-2.03125 2.359375 -2.03125 7.890625q0 6.15625 2.0625 8.703125q2.078125 2.53125 5.546875 2.53125q2.609375 0 4.265625 -1.484375q1.671875 -1.484375 2.34375 -5.09375l8.984375 1.53125q-1.390625 6.1875 -5.375 9.34375q-3.96875 3.15625 -10.640625 3.15625q-7.578125 0 -12.09375 -4.78125q-4.5 -4.78125 -4.5 -13.25q0 -8.5625 4.515625 -13.328125q4.53125 -4.765625 12.25 -4.765625q6.3125 0 10.03125 2.71875q3.734375 2.71875 5.359375 8.28125zm16.039795 -23.375l0 17.546875q4.4375 -5.171875 10.578125 -5.171875q3.15625 0 5.6875 1.171875q2.546875 1.171875 3.828125 3.0q1.296875 1.8125 1.765625 4.03125q0.46875 2.203125 0.46875 6.859375l0 20.28125l-9.140625 0l0 -18.265625q0 -5.421875 -0.53125 -6.890625q-0.515625 -1.46875 -1.828125 -2.328125q-1.3125 -0.859375 -3.296875 -0.859375q-2.28125 0 -4.078125 1.109375q-1.78125 1.09375 -2.625 3.328125q-0.828125 2.234375 -0.828125 6.59375l0 17.3125l-9.140625 0l0 -47.71875l9.140625 0zm80.266785 23.375l-9.015625 1.625q-0.453125 -2.703125 -2.0625 -4.0625q-1.609375 -1.375 -4.1875 -1.375q-3.421875 0 -5.453125 2.359375q-2.03125 2.359375 -2.03125 7.890625q0 6.15625 2.0625 8.703125q2.078125 2.53125 5.546875 2.53125q2.609375 0 4.265625 -1.484375q1.671875 -1.484375 2.34375 -5.09375l8.984375 1.53125q-1.390625 6.1875 -5.375 9.34375q-3.96875 3.15625 -10.640625 3.15625q-7.578125 0 -12.09375 -4.78125q-4.5 -4.78125 -4.5 -13.25q0 -8.5625 4.515625 -13.328125q4.53125 -4.765625 12.25 -4.765625q6.3125 0 10.03125 2.71875q3.734375 2.71875 5.359375 8.28125zm4.821045 6.578125q0 -4.5625 2.234375 -8.828125q2.25 -4.265625 6.359375 -6.5q4.125 -2.25 9.203125 -2.25q7.84375 0 12.859375 5.09375q5.015625 5.09375 5.015625 12.875q0 7.84375 -5.0625 13.0q-5.0625 5.15625 -12.75 5.15625q-4.75 0 -9.0625 -2.140625q-4.3125 -2.15625 -6.5625 -6.296875q-2.234375 -4.15625 -2.234375 -10.109375zm9.375 0.484375q0 5.140625 2.4375 7.875q2.4375 2.734375 6.015625 2.734375q3.578125 0 6.0 -2.734375q2.4375 -2.734375 2.4375 -7.9375q0 -5.078125 -2.4375 -7.8125q-2.421875 -2.734375 -6.0 -2.734375q-3.578125 0 -6.015625 2.734375q-2.4375 2.734375 -2.4375 7.875zm33.450684 17.28125l0 -47.71875l9.15625 0l0 47.71875l-9.15625 0zm18.519226 0l0 -47.71875l9.15625 0l0 47.71875l-9.15625 0zm25.362976 -24.015625l-8.3125 -1.5q1.40625 -5.015625 4.8125 -7.421875q3.421875 -2.40625 10.171875 -2.40625q6.109375 0 9.109375 1.453125q3.0 1.4375 4.21875 3.671875q1.21875 2.234375 1.21875 8.1875l-0.09375 10.671875q0 4.5625 0.4375 6.734375q0.4375 2.15625 1.640625 4.625l-9.046875 0q-0.359375 -0.90625 -0.875 -2.703125q-0.234375 -0.8125 -0.328125 -1.078125q-2.34375 2.28125 -5.015625 3.421875q-2.671875 1.140625 -5.703125 1.140625q-5.328125 0 -8.40625 -2.890625q-3.078125 -2.90625 -3.078125 -7.328125q0 -2.9375 1.390625 -5.21875q1.40625 -2.296875 3.921875 -3.515625q2.53125 -1.21875 7.28125 -2.140625q6.421875 -1.203125 8.890625 -2.25l0 -0.90625q0 -2.640625 -1.3125 -3.75q-1.296875 -1.125 -4.90625 -1.125q-2.4375 0 -3.8125 0.96875q-1.359375 0.953125 -2.203125 3.359375zm12.234375 7.421875q-1.765625 0.578125 -5.578125 1.390625q-3.796875 0.8125 -4.96875 1.59375q-1.796875 1.28125 -1.796875 3.234375q0 1.90625 1.4375 3.3125q1.4375 1.40625 3.640625 1.40625q2.484375 0 4.71875 -1.640625q1.671875 -1.234375 2.1875 -3.015625q0.359375 -1.171875 0.359375 -4.46875l0 -1.8125zm17.602295 16.59375l0 -47.71875l9.15625 0l0 17.1875q4.21875 -4.8125 10.015625 -4.8125q6.3125 0 10.4375 4.578125q4.140625 4.5625 4.140625 13.125q0 8.859375 -4.21875 13.640625q-4.203125 4.78125 -10.234375 4.78125q-2.953125 0 -5.84375 -1.484375q-2.875 -1.484375 -4.953125 -4.375l0 5.078125l-8.5 0zm9.078125 -18.03125q0 5.375 1.703125 7.9375q2.375 3.65625 6.3125 3.65625q3.03125 0 5.15625 -2.59375q2.125 -2.59375 2.125 -8.15625q0 -5.921875 -2.15625 -8.53125q-2.140625 -2.625 -5.484375 -2.625q-3.296875 0 -5.484375 2.5625q-2.171875 2.546875 -2.171875 7.75zm29.919434 0.265625q0 -4.5625 2.234375 -8.828125q2.25 -4.265625 6.359375 -6.5q4.125 -2.25 9.203125 -2.25q7.84375 0 12.859375 5.09375q5.015625 5.09375 5.015625 12.875q0 7.84375 -5.0625 13.0q-5.0625 5.15625 -12.75 5.15625q-4.75 0 -9.0625 -2.140625q-4.3125 -2.15625 -6.5625 -6.296875q-2.234375 -4.15625 -2.234375 -10.109375zm9.375 0.484375q0 5.140625 2.4375 7.875q2.4375 2.734375 6.015625 2.734375q3.578125 0 6.0 -2.734375q2.4375 -2.734375 2.4375 -7.9375q0 -5.078125 -2.4375 -7.8125q-2.421875 -2.734375 -6.0 -2.734375q-3.578125 0 -6.015625 2.734375q-2.4375 2.734375 -2.4375 7.875zm42.21631 17.28125l-9.15625 0l0 -34.5625l8.5 0l0 4.90625q2.171875 -3.484375 3.90625 -4.578125q1.75 -1.109375 3.96875 -1.109375q3.125 0 6.015625 1.71875l-2.828125 7.984375q-2.3125 -1.5 -4.296875 -1.5q-1.921875 0 -3.265625 1.0625q-1.328125 1.046875 -2.09375 3.8125q-0.75 2.765625 -0.75 11.59375l0 10.671875zm24.018066 -24.015625l-8.3125 -1.5q1.40625 -5.015625 4.8125 -7.421875q3.421875 -2.40625 10.171875 -2.40625q6.109375 0 9.109375 1.453125q3.0 1.4375 4.21875 3.671875q1.21875 2.234375 1.21875 8.1875l-0.09375 10.671875q0 4.5625 0.4375 6.734375q0.4375 2.15625 1.640625 4.625l-9.046875 0q-0.359375 -0.90625 -0.875 -2.703125q-0.234375 -0.8125 -0.328125 -1.078125q-2.34375 2.28125 -5.015625 3.421875q-2.671875 1.140625 -5.703125 1.140625q-5.328125 0 -8.40625 -2.890625q-3.078125 -2.90625 -3.078125 -7.328125q0 -2.9375 1.390625 -5.21875q1.40625 -2.296875 3.921875 -3.515625q2.53125 -1.21875 7.28125 -2.140625q6.421875 -1.203125 8.890625 -2.25l0 -0.90625q0 -2.640625 -1.3125 -3.75q-1.296875 -1.125 -4.90625 -1.125q-2.4375 0 -3.8125 0.96875q-1.359375 0.953125 -2.203125 3.359375zm12.234375 7.421875q-1.765625 0.578125 -5.578125 1.390625q-3.796875 0.8125 -4.96875 1.59375q-1.796875 1.28125 -1.796875 3.234375q0 1.90625 1.4375 3.3125q1.4375 1.40625 3.640625 1.40625q2.484375 0 4.71875 -1.640625q1.671875 -1.234375 2.1875 -3.015625q0.359375 -1.171875 0.359375 -4.46875l0 -1.8125zm33.852295 -17.96875l0 7.28125l-6.25 0l0 13.9375q0 4.234375 0.171875 4.9375q0.1875 0.6875 0.8125 1.15625q0.640625 0.453125 1.546875 0.453125q1.265625 0 3.6875 -0.890625l0.78125 7.109375q-3.203125 1.359375 -7.234375 1.359375q-2.46875 0 -4.453125 -0.828125q-1.984375 -0.828125 -2.921875 -2.140625q-0.921875 -1.328125 -1.28125 -3.578125q-0.296875 -1.59375 -0.296875 -6.4375l0 -15.078125l-4.1875 0l0 -7.28125l4.1875 0l0 -6.875l9.1875 -5.328125l0 12.203125l6.25 0zm6.3377075 -4.6875l0 -8.46875l9.15625 0l0 8.46875l-9.15625 0zm0 39.25l0 -34.5625l9.15625 0l0 34.5625l-9.15625 0zm16.409851 -17.765625q0 -4.5625 2.234375 -8.828125q2.25 -4.265625 6.359375 -6.5q4.125 -2.25 9.203125 -2.25q7.84375 0 12.859375 5.09375q5.015625 5.09375 5.015625 12.875q0 7.84375 -5.0625 13.0q-5.0625 5.15625 -12.75 5.15625q-4.75 0 -9.0625 -2.140625q-4.3125 -2.15625 -6.5625 -6.296875q-2.234375 -4.15625 -2.234375 -10.109375zm9.375 0.484375q0 5.140625 2.4375 7.875q2.4375 2.734375 6.015625 2.734375q3.578125 0 6.0 -2.734375q2.4375 -2.734375 2.4375 -7.9375q0 -5.078125 -2.4375 -7.8125q-2.421875 -2.734375 -6.0 -2.734375q-3.578125 0 -6.015625 2.734375q-2.4375 2.734375 -2.4375 7.875zm64.88818 17.28125l-9.140625 0l0 -17.640625q0 -5.59375 -0.59375 -7.234375q-0.578125 -1.65625 -1.90625 -2.5625q-1.3125 -0.90625 -3.15625 -0.90625q-2.375 0 -4.265625 1.296875q-1.890625 1.296875 -2.59375 3.453125q-0.703125 2.140625 -0.703125 7.9375l0 15.65625l-9.140625 0l0 -34.5625l8.5 0l0 5.078125q4.515625 -5.859375 11.390625 -5.859375q3.015625 0 5.515625 1.09375q2.515625 1.078125 3.796875 2.78125q1.296875 1.6875 1.796875 3.84375q0.5 2.140625 0.5 6.140625l0 21.484375z" fill-rule="nonzero"/></g></svg>