<svg version="1.1" viewBox="0.0 0.0 883.6509186351706 48.0" fill="none" stroke="none" stroke-linecap="square" stroke-miterlimit="10" xmlns:xlink="http://www.w3.org/1999/xlink" xmlns="http://www.w3.org/2000/svg"><clipPath id="p.0"><path d="m0 0l883.65094 0l0 48.0l-883.65094 0l0 -48.0z" clip-rule="nonzero"/></clipPath><g clip-path="url(#p.0)"><path fill="#000000" fill-opacity="0.0" d="m0 0l883.65094 0l0 48.0l-883.65094 0z" fill-rule="evenodd"/><defs><radialGradient id="p.1" gradientUnits="userSpaceOnUse" gradientTransform="matrix(29.75173272926639 0.0 0.0 29.75173272926639 0.0 0.0)" spreadMethod="pad" cx="29.701351336670733" cy="1.7382696968838387" fx="29.701351336670733" fy="1.7382696968838387" r="29.751731872558594"><stop offset="0.0" stop-color="#073763"/><stop offset="0.19" stop-color="#08345b"/><stop offset="0.6" stop-color="#093357"/><stop offset="1.0" stop-color="#093153"/></radialGradient></defs><path fill="url(#p.1)" d="m0.0131233595 0l883.65356 0l0 51.716534l-883.65356 0z" fill-rule="evenodd"/><path fill="#000000" fill-opacity="0.0" d="m0.0131233595 -15.590772l353.85828 0l0 79.18111l-353.85828 0z" fill-rule="evenodd"/><path fill="#ffffff" d="m41.934998 7.3629746l0 11.3125l-0.9375 0q-1.0625 -4.421874 -3.953125 -6.781249q-2.890625 -2.359375 -6.546875 -2.359375q-3.0625 0 -5.625 1.765625q-2.546875 1.75 -3.71875 4.59375q-1.515625 3.624999 -1.515625 8.093749q0 4.375 1.109375 7.984375q1.109375 3.593752 3.46875 5.437502q2.359375 1.84375 6.109375 1.84375q3.09375 0 5.65625 -1.34375q2.5625 -1.359375 5.40625 -4.65625l0 2.8125q-2.75 2.875 -5.734375 4.171875q-2.96875 1.28125 -6.9375 1.28125q-5.234375 0 -9.296875 -2.09375q-4.046874 -2.09375 -6.249999 -6.015625q-2.203125 -3.937502 -2.203125 -8.375002q0 -4.671875 2.4375 -8.859375q2.453125 -4.187499 6.609374 -6.499999q4.15625 -2.3125005 8.828125 -2.3125005q3.4375 0 7.265625 1.5000005q2.21875 0.859375 2.828125 0.859375q0.765625 0 1.328125 -0.5625q0.5625 -0.5625 0.734375 -1.7968755l0.9375 0zm14.982574 10.21875q2.9375 0 5.46875 1.515625q2.53125 1.515625 3.84375 4.3125q1.3125 2.78125 1.3125 6.109375q0 4.796877 -2.4375 8.015627q-2.9375 3.90625 -8.109375 3.90625q-5.078125 0 -7.828125 -3.5625q-2.75 -3.5625 -2.75 -8.265627q0 -4.84375 2.796875 -8.4375q2.8125 -3.59375 7.703125 -3.59375zm0.09375 1.703125q-1.21875 0 -2.109375 0.9375q-0.875 0.921875 -1.15625 3.65625q-0.265625 2.734375 -0.265625 7.59375q0 2.578127 0.328125 4.812502q0.265625 1.71875 1.125 2.609375q0.875 0.890625 1.984375 0.890625q1.09375 0 1.8125 -0.609375q0.9375 -0.8125 1.25 -2.28125q0.484375 -2.296875 0.484375 -9.250002q0 -4.09375 -0.46875 -5.625q-0.453125 -1.53125 -1.34375 -2.234375q-0.625 -0.5 -1.640625 -0.5zm23.148438 -1.03125l0 2.90625q1.734375 -1.875 3.328125 -2.71875q1.59375 -0.859375 3.421875 -0.859375q2.1875 0 3.625 1.21875q1.453125 1.203125 1.9375 3.015625q0.390625 1.375 0.390625 5.265625l0 8.781252q0 2.59375 0.46875 3.234375q0.46875 0.640625 1.953125 0.8125l0 0.859375l-11.390625 0l0 -0.859375q1.28125 -0.171875 1.828125 -1.0625q0.390625 -0.609375 0.390625 -2.984375l0 -10.031252q0 -2.765625 -0.21875 -3.484375q-0.21875 -0.71875 -0.734375 -1.109375q-0.515625 -0.40625 -1.140625 -0.40625q-2.078125 0 -3.859375 2.953125l0 12.078127q0 2.515625 0.46875 3.203125q0.46875 0.671875 1.75 0.84375l0 0.859375l-11.390625 0l0 -0.859375q1.421875 -0.15625 2.015625 -0.921875q0.421875 -0.53125 0.421875 -3.125l0 -12.718752q0 -2.5625 -0.484375 -3.1875q-0.46875 -0.625 -1.953125 -0.8125l0 -0.890625l9.171875 0zm27.168335 -8.249999l0 8.249999l5.34375 0l0 2.375l-5.34375 0l0 13.906252q0 1.953125 0.171875 2.515625q0.1875 0.5625 0.640625 0.921875q0.46875 0.34375 0.859375 0.34375q1.5625 0 2.953125 -2.390625l0.71875 0.53125q-1.9375 4.625 -6.328125 4.625q-2.140625 0 -3.625 -1.1875q-1.484375 -1.203125 -1.890625 -2.671875q-0.234375 -0.8125 -0.234375 -4.421875l0 -12.171877l-2.9375 0l0 -0.84375q3.03125 -2.140625 5.15625 -4.499999q2.140625 -2.359375 3.71875 -5.28125l0.796875 0zm19.926651 27.4375q-4.125 3.640625 -7.390625 3.640625q-1.9375 0 -3.21875 -1.265625q-1.265625 -1.265625 -1.265625 -3.171875q0 -2.578125 2.203125 -4.625q2.21875 -2.062502 9.671875 -5.484377l0 -2.265625q0 -2.546875 -0.28125 -3.203125q-0.28125 -0.671875 -1.046875 -1.15625q-0.765625 -0.5 -1.734375 -0.5q-1.5625 0 -2.578125 0.6875q-0.625 0.4375 -0.625 1.015625q0 0.515625 0.671875 1.25q0.921875 1.046875 0.921875 2.0q0 1.1875 -0.890625 2.015625q-0.875 0.828125 -2.296875 0.828125q-1.515625 0 -2.546875 -0.90625q-1.015625 -0.921875 -1.015625 -2.15625q0 -1.734375 1.375 -3.3125q1.375 -1.578125 3.828125 -2.40625q2.453125 -0.84375 5.109375 -0.84375q3.203125 0 5.0625 1.359375q1.875 1.359375 2.421875 2.9375q0.34375 1.015625 0.34375 4.65625l0 8.750002q0 1.53125 0.109375 1.9375q0.125 0.390625 0.359375 0.59375q0.25 0.1875 0.5625 0.1875q0.625 0 1.28125 -0.890625l0.71875 0.578125q-1.203125 1.78125 -2.5 2.59375q-1.28125 0.796875 -2.921875 0.796875q-1.921875 0 -3.015625 -0.90625q-1.078125 -0.90625 -1.3125 -2.734375zm0 -1.75l0 -7.546877q-2.921875 1.71875 -4.34375 3.671875q-0.9375 1.2968769 -0.9375 2.625002q0 1.09375 0.796875 1.9375q0.609375 0.65625 1.6875 0.65625q1.203125 0 2.796875 -1.34375zm30.617188 -0.734375l0.734375 0.578125q-1.578125 3.0 -3.953125 4.453125q-2.375 1.453125 -5.046875 1.453125q-4.5 0 -7.203125 -3.390625q-2.703125 -3.40625 -2.703125 -8.171877q0 -4.59375 2.453125 -8.09375q2.96875 -4.203125 8.171875 -4.203125q3.5 0 5.546875 1.765625q2.0625 1.75 2.0625 3.90625q0 1.375 -0.828125 2.203125q-0.828125 0.8125 -2.1875 0.8125q-1.40625 0 -2.34375 -0.9375q-0.921875 -0.9375 -1.140625 -3.34375q-0.140625 -1.515625 -0.703125 -2.125q-0.546875 -0.609375 -1.296875 -0.609375q-1.15625 0 -1.96875 1.234375q-1.265625 1.859375 -1.265625 5.6875q0 3.171875 1.015625 6.078127q1.015625 2.90625 2.765625 4.328125q1.328125 1.03125 3.140625 1.03125q1.171875 0 2.234375 -0.546875q1.0625 -0.5625 2.515625 -2.109375zm12.441055 -24.953125l0 8.249999l5.34375 0l0 2.375l-5.34375 0l0 13.906252q0 1.953125 0.171875 2.515625q0.1875 0.5625 0.640625 0.921875q0.46875 0.34375 0.859375 0.34375q1.5625 0 2.953125 -2.390625l0.71875 0.53125q-1.9375 4.625 -6.328125 4.625q-2.140625 0 -3.625 -1.1875q-1.484375 -1.203125 -1.890625 -2.671875q-0.234375 -0.8125 -0.234375 -4.421875l0 -12.171877l-2.9375 0l0 -0.84375q3.03125 -2.140625 5.15625 -4.499999q2.140625 -2.359375 3.71875 -5.28125l0.796875 0z" fill-rule="nonzero"/></g></svg>