<svg version="1.1" viewBox="0.0 0.0 883.6509186351706 100.0" fill="none" stroke="none" stroke-linecap="square" stroke-miterlimit="10" xmlns:xlink="http://www.w3.org/1999/xlink" xmlns="http://www.w3.org/2000/svg"><clipPath id="p.0"><path d="m0 0l883.65094 0l0 100.0l-883.65094 0l0 -100.0z" clip-rule="nonzero"/></clipPath><g clip-path="url(#p.0)"><path fill="#000000" fill-opacity="0.0" d="m0 0l883.65094 0l0 100.0l-883.65094 0z" fill-rule="evenodd"/><defs><linearGradient id="p.1" gradientUnits="userSpaceOnUse" gradientTransform="matrix(9.929042039628026 0.0 0.0 9.929042039628026 0.0 0.0)" spreadMethod="pad" x1="0.0014538872930393524" y1="0.07105043525919912" x2="0.0014179441781655615" y2="10.000092474822168"><stop offset="0.0" stop-color="#1c4587"/><stop offset="0.39" stop-color="#4675ae"/><stop offset="1.0" stop-color="#70a4d5"/></linearGradient></defs><path fill="url(#p.1)" d="m0.0144356955 0.70866144l883.622 0l0 98.58267l-883.622 0z" fill-rule="evenodd"/><path fill="#ffffff" d="m43.68631 55.24116l9.15625 2.890625q-2.109375 7.656254 -7.0 11.375004q-4.890625 3.71875 -12.421875 3.71875q-9.3125 0 -15.3125 -6.359375q-5.999999 -6.375004 -5.999999 -17.406254q0 -11.671875 6.031249 -18.124998q6.03125 -6.46875 15.84375 -6.46875q8.59375 0 13.953125 5.078125q3.1875 2.999998 4.78125 8.609373l-9.34375 2.234375q-0.828125 -3.640625 -3.46875 -5.734375q-2.625 -2.109375 -6.390625 -2.109375q-5.203125 0 -8.4375 3.734375q-3.234375 3.71875 -3.234375 12.078125q0 8.875 3.1875 12.640625q3.1875 3.7656288 8.296875 3.7656288q3.765625 0 6.46875 -2.3906288q2.71875 -2.40625 3.890625 -7.53125zm15.115387 -0.234375q0 -4.453125 2.203125 -8.625q2.203125 -4.1875 6.234375 -6.390625q4.046875 -2.203125 9.015625 -2.203125q7.6875 0 12.59375 5.0q4.921875 4.984375 4.921875 12.609375q0 7.6875 -4.96875 12.750004q-4.953125 5.046875 -12.484375 5.046875q-4.65625 0 -8.890625 -2.09375q-4.21875 -2.109375 -6.421875 -6.171875q-2.203125 -4.078129 -2.203125 -9.921879zm9.1875 0.484375q0 5.046875 2.390625 7.71875q2.40625 2.6718788 5.90625 2.6718788q3.515625 0 5.890625 -2.6718788q2.375 -2.671875 2.375 -7.78125q0 -4.984375 -2.375 -7.65625q-2.375 -2.6875 -5.890625 -2.6875q-3.5 0 -5.90625 2.6875q-2.390625 2.671875 -2.390625 7.71875zm63.608154 16.937504l-8.953125 0l0 -17.281254q0 -5.5 -0.578125 -7.109375q-0.578125 -1.609375 -1.875 -2.5q-1.28125 -0.890625 -3.109375 -0.890625q-2.328125 0 -4.1875 1.28125q-1.84375 1.265625 -2.53125 3.375q-0.671875 2.109375 -0.671875 7.78125l0 15.343754l-8.96875 0l0 -33.875004l8.328125 0l0 4.96875q4.4375 -5.734375 11.15625 -5.734375q2.96875 0 5.421875 1.078125q2.46875 1.0625 3.71875 2.71875q1.265625 1.65625 1.75 3.765625q0.5 2.109375 0.5 6.03125l0 21.046879zm24.62378 -33.875004l0 7.140625l-6.125 0l0 13.65625q0 4.140625 0.171875 4.828129q0.1875 0.6875 0.796875 1.140625q0.625 0.4375 1.53125 0.4375q1.234375 0 3.59375 -0.859375l0.765625 6.953125q-3.125 1.34375 -7.078125 1.34375q-2.421875 0 -4.375 -0.8125q-1.9375 -0.8125 -2.859375 -2.09375q-0.90625 -1.296875 -1.25 -3.5q-0.28125 -1.5625 -0.28125 -6.328129l0 -14.765625l-4.125 0l0 -7.140625l4.125 0l0 -6.734373l8.984375 -5.234375l0 11.968748l6.125 0zm12.926651 10.328125l-8.140625 -1.46875q1.375 -4.90625 4.71875 -7.265625q3.359375 -2.359375 9.953125 -2.359375q6.0 0 8.9375 1.421875q2.9375 1.421875 4.125 3.609375q1.203125 2.171875 1.203125 8.015625l-0.09375 10.46875q0 4.453129 0.421875 6.578129q0.4375 2.125 1.609375 4.546875l-8.859375 0q-0.359375 -0.890625 -0.859375 -2.640625q-0.234375 -0.796875 -0.328125 -1.0625q-2.296875 2.234375 -4.90625 3.359375q-2.609375 1.109375 -5.578125 1.109375q-5.234375 0 -8.25 -2.828125q-3.015625 -2.84375 -3.015625 -7.187504q0 -2.875 1.375 -5.125q1.375 -2.25 3.84375 -3.4375q2.46875 -1.203125 7.125 -2.09375q6.28125 -1.171875 8.703125 -2.203125l0 -0.890625q0 -2.578125 -1.28125 -3.671875q-1.265625 -1.109375 -4.8125 -1.109375q-2.390625 0 -3.734375 0.9375q-1.328125 0.9375 -2.15625 3.296875zm11.984375 7.28125q-1.71875 0.578125 -5.453125 1.375q-3.734375 0.796875 -4.875 1.5625q-1.75 1.234375 -1.75 3.15625q0 1.8750038 1.390625 3.2500038q1.40625 1.375 3.578125 1.375q2.421875 0 4.625 -1.59375q1.625 -1.21875 2.140625 -2.9687538q0.34375 -1.15625 0.34375 -4.375l0 -1.78125zm47.191772 -7.59375l-8.84375 1.59375q-0.453125 -2.640625 -2.03125 -3.984375q-1.578125 -1.34375 -4.09375 -1.34375q-3.34375 0 -5.34375 2.3125q-1.984375 2.3125 -1.984375 7.734375q0 6.03125 2.015625 8.515625q2.03125 2.4843788 5.4375 2.4843788q2.5625 0 4.1875 -1.4375q1.625 -1.4531288 2.296875 -5.000004l8.796875 1.5q-1.375 6.062504 -5.265625 9.156254q-3.890625 3.09375 -10.421875 3.09375q-7.4375 0 -11.859375 -4.6875q-4.40625 -4.687504 -4.40625 -12.984379q0 -8.390625 4.421875 -13.0625q4.4375 -4.671875 12.0 -4.671875q6.1875 0 9.828125 2.671875q3.65625 2.65625 5.265625 8.109375zm22.316772 -10.015625l0 7.140625l-6.125 0l0 13.65625q0 4.140625 0.171875 4.828129q0.1875 0.6875 0.796875 1.140625q0.625 0.4375 1.53125 0.4375q1.234375 0 3.59375 -0.859375l0.765625 6.953125q-3.125 1.34375 -7.078125 1.34375q-2.421875 0 -4.375 -0.8125q-1.9375 -0.8125 -2.859375 -2.09375q-0.90625 -1.296875 -1.25 -3.5q-0.28125 -1.5625 -0.28125 -6.328129l0 -14.765625l-4.125 0l0 -7.140625l4.125 0l0 -6.734373l8.984375 -5.234375l0 11.968748l6.125 0z" fill-rule="nonzero"/></g></svg>