<svg version="1.1" viewBox="0.0 0.0 883.6509186351706 76.8005249343832" fill="none" stroke="none" stroke-linecap="square" stroke-miterlimit="10" xmlns:xlink="http://www.w3.org/1999/xlink" xmlns="http://www.w3.org/2000/svg"><clipPath id="p.0"><path d="m0 0l883.65094 0l0 76.80052l-883.65094 0l0 -76.80052z" clip-rule="nonzero"/></clipPath><g clip-path="url(#p.0)"><path fill="#000000" fill-opacity="0.0" d="m0 0l883.65094 0l0 76.80052l-883.65094 0z" fill-rule="evenodd"/><defs><linearGradient id="p.1" gradientUnits="userSpaceOnUse" gradientTransform="matrix(8.763024609922383 0.0 0.0 8.763024609922383 0.0 0.0)" spreadMethod="pad" x1="0.0017971012819137065" y1="0.06163492308393159" x2="0.0017653792387706925" y2="8.824659532948894"><stop offset="0.0" stop-color="#1c4587"/><stop offset="0.39" stop-color="#4675ae"/><stop offset="1.0" stop-color="#70a4d5"/></linearGradient></defs><path fill="url(#p.1)" d="m0.015748031 0.54330707l883.6221 0l0 76.78741l-883.6221 0z" fill-rule="evenodd"/><path fill="#000000" fill-opacity="0.0" d="m0.015748031 4.4643273l369.73227 0l0 67.874016l-369.73227 0z" fill-rule="evenodd"/><path fill="#ffffff" d="m30.250124 41.333076l5.609373 1.78125q-1.296875 4.6875 -4.296873 6.96875q-3.0 2.265625 -7.609375 2.265625q-5.703125 0 -9.375001 -3.890625q-3.671875 -3.90625 -3.671875 -10.65625q0 -7.156252 3.6875 -11.109377q3.703126 -3.953125 9.718751 -3.953125q5.25 0 8.531248 3.109375q1.953125 1.828125 2.9375 5.265625l-5.734373 1.3750019q-0.5 -2.234377 -2.109375 -3.515627q-1.609375 -1.296875 -3.921875 -1.296875q-3.1875 0 -5.171875 2.296875q-1.96875 2.281252 -1.96875 7.390627q0 5.4375 1.953125 7.75q1.953125 2.296875 5.078125 2.296875q2.296875 0 3.953125 -1.46875q1.671875 -1.46875 2.390625 -4.609375zm9.261717 -0.140625q0 -2.734375 1.34375 -5.28125q1.34375 -2.5625 3.8125 -3.90625q2.46875 -1.3593769 5.515625 -1.3593769q4.71875 0 7.71875 3.062502q3.015625 3.0625 3.015625 7.71875q0 4.71875 -3.046875 7.8125q-3.03125 3.09375 -7.640625 3.09375q-2.859375 0 -5.453125 -1.28125q-2.578125 -1.296875 -3.921875 -3.78125q-1.34375 -2.5 -1.34375 -6.078125zm5.625 0.296875q0 3.09375 1.453125 4.734375q1.46875 1.640625 3.625 1.640625q2.140625 0 3.59375 -1.640625q1.453125 -1.640625 1.453125 -4.765625q0 -3.046875 -1.453125 -4.6875q-1.453125 -1.640625 -3.59375 -1.640625q-2.15625 0 -3.625 1.640625q-1.453125 1.640625 -1.453125 4.71875zm38.933594 10.375l-5.484375 0l0 -10.59375q0 -3.359375 -0.359375 -4.34375q-0.34375 -0.984375 -1.140625 -1.53125q-0.78125 -0.546875 -1.890625 -0.546875q-1.4375 0 -2.578125 0.78125q-1.125 0.78125 -1.546875 2.078125q-0.40625 1.28125 -0.40625 4.765625l0 9.390625l-5.5 0l0 -20.750002l5.109375 0l0 3.046877q2.703125 -3.515627 6.828125 -3.515627q1.8125 0 3.3125 0.65625q1.515625 0.65625 2.28125 1.6718769q0.78125 1.015625 1.078125 2.3125q0.296875 1.28125 0.296875 3.6875l0 12.890625zm15.089844 -20.750002l0 4.375002l-3.75 0l0 8.359375q0 2.546875 0.09375 2.96875q0.109375 0.421875 0.484375 0.703125q0.390625 0.265625 0.9375 0.265625q0.765625 0 2.203125 -0.53125l0.46875 4.25q-1.90625 0.828125 -4.328125 0.828125q-1.484375 0 -2.6875 -0.5q-1.1875 -0.5 -1.75 -1.28125q-0.546875 -0.796875 -0.765625 -2.140625q-0.171875 -0.96875 -0.171875 -3.875l0 -9.046875l-2.515625 0l0 -4.375002l2.515625 0l0 -4.109375l5.515625 -3.203125l0 7.3125l3.75 0zm7.8984375 6.328127l-4.96875 -0.890625q0.828125 -3.015625 2.875 -4.453125q2.0625 -1.4531269 6.109375 -1.4531269q3.671875 0 5.46875 0.875q1.796875 0.8750019 2.515625 2.218752q0.734375 1.328125 0.734375 4.90625l-0.046875 6.40625q0 2.734375 0.25 4.03125q0.265625 1.296875 1.0 2.78125l-5.4375 0q-0.21875 -0.546875 -0.53125 -1.625q-0.125 -0.484375 -0.1875 -0.640625q-1.40625 1.359375 -3.015625 2.046875q-1.59375 0.6875 -3.40625 0.6875q-3.203125 0 -5.0625 -1.734375q-1.84375 -1.75 -1.84375 -4.40625q0 -1.75 0.84375 -3.125q0.84375 -1.375 2.359375 -2.109375q1.515625 -0.734375 4.359375 -1.28125q3.84375 -0.71875 5.328125 -1.34375l0 -0.546875q0 -1.59375 -0.78125 -2.265625q-0.78125 -0.671875 -2.9375 -0.671875q-1.46875 0 -2.296875 0.578125q-0.8125 0.578125 -1.328125 2.015625zm7.34375 4.453125q-1.046875 0.359375 -3.34375 0.84375q-2.28125 0.484375 -2.984375 0.953125q-1.0625 0.765625 -1.0625 1.9375q0 1.15625 0.859375 2.0q0.859375 0.828125 2.1875 0.828125q1.484375 0 2.828125 -0.96875q1.0 -0.75 1.3125 -1.8125q0.203125 -0.703125 0.203125 -2.6875l0 -1.09375zm28.886719 -4.640625l-5.40625 0.96875q-0.265625 -1.609375 -1.234375 -2.421875q-0.96875 -0.828125 -2.515625 -0.828125q-2.046875 0 -3.265625 1.421875q-1.21875 1.40625 -1.21875 4.71875q0 3.703125 1.234375 5.234375q1.234375 1.515625 3.328125 1.515625q1.5625 0 2.5625 -0.890625q1.0 -0.890625 1.40625 -3.0625l5.390625 0.921875q-0.84375 3.703125 -3.234375 5.609375q-2.375 1.890625 -6.375 1.890625q-4.546875 0 -7.265625 -2.875q-2.703125 -2.875 -2.703125 -7.953125q0 -5.125 2.71875 -7.984375q2.71875 -2.875002 7.34375 -2.875002q3.796875 0 6.03125 1.6406269q2.234375 1.625 3.203125 4.96875zm13.683594 -6.140627l0 4.375002l-3.75 0l0 8.359375q0 2.546875 0.09375 2.96875q0.109375 0.421875 0.484375 0.703125q0.390625 0.265625 0.9375 0.265625q0.765625 0 2.203125 -0.53125l0.46875 4.25q-1.90625 0.828125 -4.328125 0.828125q-1.484375 0 -2.6875 -0.5q-1.1875 -0.5 -1.75 -1.28125q-0.546875 -0.796875 -0.765625 -2.140625q-0.171875 -0.96875 -0.171875 -3.875l0 -9.046875l-2.515625 0l0 -4.375002l2.515625 0l0 -4.109375l5.515625 -3.203125l0 7.3125l3.75 0z" fill-rule="nonzero"/></g></svg>