<svg version="1.1" viewBox="0.0 0.0 883.6509186351706 100.0" fill="none" stroke="none" stroke-linecap="square" stroke-miterlimit="10" xmlns:xlink="http://www.w3.org/1999/xlink" xmlns="http://www.w3.org/2000/svg"><clipPath id="p.0"><path d="m0 0l883.65094 0l0 100.0l-883.65094 0l0 -100.0z" clip-rule="nonzero"/></clipPath><g clip-path="url(#p.0)"><path fill="#000000" fill-opacity="0.0" d="m0 0l883.65094 0l0 100.0l-883.65094 0z" fill-rule="evenodd"/><defs><linearGradient id="p.1" gradientUnits="userSpaceOnUse" gradientTransform="matrix(9.929042039628026 0.0 0.0 9.929042039628026 0.0 0.0)" spreadMethod="pad" x1="0.0014538872930393524" y1="0.07105043525919912" x2="0.0014179441781655615" y2="10.000092474822168"><stop offset="0.0" stop-color="#1c4587"/><stop offset="0.39" stop-color="#4675ae"/><stop offset="1.0" stop-color="#70a4d5"/></linearGradient></defs><path fill="url(#p.1)" d="m0.0144356955 0.70866144l883.622 0l0 98.58267l-883.622 0z" fill-rule="evenodd"/><path fill="#000000" fill-opacity="0.0" d="m9.259843 10.409449l369.73227 0l0 79.18111l-369.73227 0z" fill-rule="evenodd"/><path fill="#ffffff" d="m44.447342 53.785072l6.90625 2.1875q-1.59375 5.78125 -5.296875 8.59375q-3.6875 2.8125 -9.375 2.8125q-7.03125 0 -11.5625 -4.8125q-4.515625 -4.8125 -4.515625 -13.140625q0 -8.8125 4.546875 -13.6875q4.546875 -4.875002 11.96875 -4.875002q6.484375 0 10.53125 3.828127q2.40625 2.265625 3.609375 6.5l-7.0625 1.6875q-0.625 -2.75 -2.609375 -4.328125q-1.984375 -1.59375 -4.828125 -1.59375q-3.921875 0 -6.375 2.8125q-2.4375 2.8125 -2.4375 9.125q0 6.703125 2.40625 9.546875q2.40625 2.84375 6.265625 2.84375q2.84375 0 4.890625 -1.8125q2.046875 -1.8125 2.9375 -5.6875zm11.404449 -0.171875q0 -3.359375 1.65625 -6.515625q1.671875 -3.15625 4.71875 -4.8125q3.046875 -1.671875 6.8125 -1.671875q5.796875 0 9.5 3.765625q3.71875 3.765625 3.71875 9.53125q0 5.796875 -3.75 9.625q-3.75 3.8125 -9.421875 3.8125q-3.515625 0 -6.71875 -1.578125q-3.1875 -1.59375 -4.859375 -4.671875q-1.65625 -3.078125 -1.65625 -7.484375zm6.9375 0.359375q0 3.8125 1.8125 5.84375q1.8125 2.015625 4.453125 2.015625q2.65625 0 4.4375 -2.015625q1.796875 -2.03125 1.796875 -5.890625q0 -3.75 -1.796875 -5.765625q-1.78125 -2.03125 -4.4375 -2.03125q-2.640625 0 -4.453125 2.03125q-1.8125 2.015625 -1.8125 5.8125zm48.03784 12.796875l-6.765625 0l0 -13.046875q0 -4.15625 -0.4375 -5.359375q-0.4375 -1.21875 -1.421875 -1.890625q-0.96875 -0.6875 -2.34375 -0.6875q-1.75 0 -3.15625 0.96875q-1.390625 0.96875 -1.90625 2.5625q-0.515625 1.578125 -0.515625 5.875l0 11.578125l-6.765625 0l0 -25.578125l6.28125 0l0 3.75q3.34375 -4.328125 8.421875 -4.328125q2.25 0 4.09375 0.8125q1.859375 0.796875 2.8125 2.0625q0.953125 1.25 1.328125 2.84375q0.375 1.578125 0.375 4.546875l0 15.890625zm18.584717 -25.578125l0 5.390625l-4.625 0l0 10.3125q0 3.125 0.125 3.65625q0.140625 0.515625 0.609375 0.859375q0.46875 0.328125 1.15625 0.328125q0.9375 0 2.71875 -0.65625l0.578125 5.25q-2.359375 1.015625 -5.34375 1.015625q-1.84375 0 -3.3125 -0.609375q-1.46875 -0.625 -2.15625 -1.59375q-0.6875 -0.96875 -0.9375 -2.640625q-0.21875 -1.171875 -0.21875 -4.765625l0 -11.15625l-3.109375 0l0 -5.390625l3.109375 0l0 -5.078125l6.78125 -3.953125l0 9.03125l4.625 0zm9.754776 7.796875l-6.140625 -1.109375q1.046875 -3.703125 3.5625 -5.484375q2.53125 -1.78125 7.515625 -1.78125q4.53125 0 6.75 1.078125q2.21875 1.0625 3.109375 2.71875q0.90625 1.640625 0.90625 6.046875l-0.0625 7.90625q0 3.375 0.3125 4.984375q0.328125 1.59375 1.21875 3.421875l-6.6875 0q-0.265625 -0.671875 -0.65625 -2.0q-0.171875 -0.59375 -0.234375 -0.796875q-1.734375 1.6875 -3.71875 2.53125q-1.96875 0.84375 -4.203125 0.84375q-3.953125 0 -6.234375 -2.140625q-2.265625 -2.140625 -2.265625 -5.421875q0 -2.171875 1.03125 -3.859375q1.03125 -1.703125 2.890625 -2.609375q1.875 -0.90625 5.390625 -1.578125q4.75 -0.890625 6.578125 -1.65625l0 -0.671875q0 -1.953125 -0.96875 -2.78125q-0.953125 -0.84375 -3.640625 -0.84375q-1.796875 0 -2.8125 0.71875q-1.015625 0.703125 -1.640625 2.484375zm9.0625 5.5q-1.296875 0.4375 -4.125 1.046875q-2.8125 0.59375 -3.6875 1.171875q-1.3125 0.9375 -1.3125 2.375q0 1.421875 1.046875 2.46875q1.0625 1.03125 2.703125 1.03125q1.828125 0 3.5 -1.203125q1.21875 -0.921875 1.609375 -2.25q0.265625 -0.859375 0.265625 -3.296875l0 -1.34375zm35.62146 -5.734375l-6.671875 1.203125q-0.34375 -2.0 -1.53125 -3.0q-1.1875 -1.015625 -3.09375 -1.015625q-2.53125 0 -4.03125 1.75q-1.5 1.734375 -1.5 5.828125q0 4.5625 1.515625 6.4375q1.53125 1.875 4.109375 1.875q1.9375 0 3.15625 -1.09375q1.234375 -1.09375 1.734375 -3.765625l6.65625 1.125q-1.046875 4.578125 -3.984375 6.921875q-2.9375 2.328125 -7.875 2.328125q-5.609375 0 -8.953125 -3.53125q-3.328125 -3.546875 -3.328125 -9.8125q0 -6.328125 3.34375 -9.859375q3.359375 -3.53125 9.0625 -3.53125q4.671875 0 7.421875 2.015625q2.765625 2.0 3.96875 6.125zm16.855835 -7.5625l0 5.390625l-4.625 0l0 10.3125q0 3.125 0.125 3.65625q0.140625 0.515625 0.609375 0.859375q0.46875 0.328125 1.15625 0.328125q0.9375 0 2.71875 -0.65625l0.578125 5.25q-2.359375 1.015625 -5.34375 1.015625q-1.84375 0 -3.3125 -0.609375q-1.46875 -0.625 -2.15625 -1.59375q-0.6875 -0.96875 -0.9375 -2.640625q-0.21875 -1.171875 -0.21875 -4.765625l0 -11.15625l-3.109375 0l0 -5.390625l3.109375 0l0 -5.078125l6.78125 -3.953125l0 9.03125l4.625 0z" fill-rule="nonzero"/></g></svg>