<svg version="1.1" viewBox="0.0 0.0 883.6509186351706 48.0" fill="none" stroke="none" stroke-linecap="square" stroke-miterlimit="10" xmlns:xlink="http://www.w3.org/1999/xlink" xmlns="http://www.w3.org/2000/svg"><clipPath id="p.0"><path d="m0 0l883.65094 0l0 48.0l-883.65094 0l0 -48.0z" clip-rule="nonzero"/></clipPath><g clip-path="url(#p.0)"><path fill="#000000" fill-opacity="0.0" d="m0 0l883.65094 0l0 48.0l-883.65094 0z" fill-rule="evenodd"/><defs><radialGradient id="p.1" gradientUnits="userSpaceOnUse" gradientTransform="matrix(29.75173272926639 0.0 0.0 29.75173272926639 0.0 0.0)" spreadMethod="pad" cx="29.701351336670733" cy="1.7382696968838387" fx="29.701351336670733" fy="1.7382696968838387" r="29.751731872558594"><stop offset="0.0" stop-color="#073763"/><stop offset="0.19" stop-color="#08345b"/><stop offset="0.6" stop-color="#093357"/><stop offset="1.0" stop-color="#093153"/></radialGradient></defs><path fill="url(#p.1)" d="m0.0131233595 0l883.65356 0l0 51.716534l-883.65356 0z" fill-rule="evenodd"/><path fill="#000000" fill-opacity="0.0" d="m0.0131233595 -15.590551l688.53546 0l0 79.1811l-688.53546 0z" fill-rule="evenodd"/><path fill="#ffffff" d="m30.950623 23.456945q4.65625 1.078125 6.53125 2.625q2.703125 2.1875 2.703125 5.671875q0 3.687502 -2.96875 6.093752q-3.640625 2.921875 -10.578125 2.921875l-16.59375 0l0 -0.890625q2.265625 0 3.0625 -0.421875q0.8125 -0.421875 1.140625 -1.09375q0.328125 -0.671875 0.328125 -3.328125l0 -21.187502q0 -2.65625 -0.328125 -3.34375q-0.328125 -0.6875 -1.140625 -1.09375q-0.8125 -0.40625 -3.0625 -0.40625l0 -0.890625l15.656249 0q5.609375 0 7.9375 1.0q2.34375 1.0 3.6875 2.984375q1.359375 1.984375 1.359375 4.21875q0 2.359375 -1.71875 4.203125q-1.703125 1.84375 -6.015625 2.9375zm-8.765625 -0.65625q3.421875 0 5.046875 -0.765625q1.625 -0.78125 2.484375 -2.171875q0.875 -1.390625 0.875 -3.5625q0 -2.171875 -0.859375 -3.546875q-0.84375 -1.390625 -2.4375 -2.109375q-1.59375 -0.734375 -5.109375 -0.703125l0 12.859375zm0 1.875l0 10.484377l-0.015625 1.203125q0 1.296875 0.65625 1.96875q0.65625 0.65625 1.96875 0.65625q1.921875 0 3.546875 -0.859375q1.625 -0.859375 2.484375 -2.484375q0.875 -1.625 0.875 -3.625q0 -2.281252 -1.0625 -4.093752q-1.0625 -1.828125 -2.921875 -2.546875q-1.84375 -0.71875 -5.53125 -0.703125zm43.245224 4.96875l8.859375 -21.53125l13.296875 0l0 0.890625l-1.0625 0q-1.453125 0 -2.3125 0.5q-0.609375 0.34375 -0.96875 1.140625q-0.265625 0.578125 -0.265625 3.0l0 21.531252q0 2.515625 0.265625 3.140625q0.265625 0.625 1.078125 1.09375q0.828125 0.46875 2.203125 0.46875l1.0625 0l0 0.890625l-17.0625 0l0 -0.890625l1.0625 0q1.453125 0 2.3125 -0.5q0.609375 -0.34375 0.96875 -1.15625q0.265625 -0.578125 0.265625 -3.046875l0 -24.203127l-12.53125 29.796877l-0.578125 0l-12.71875 -29.578127l0 23.000002q0 2.40625 0.125 2.96875q0.3125 1.203125 1.359375 1.96875q1.046875 0.75 3.28125 0.75l0 0.890625l-11.171875 0l0 -0.890625l0.34375 0q1.078125 0.03125 2.015625 -0.34375q0.9375 -0.375 1.421875 -1.0q0.484375 -0.625 0.75 -1.765625q0.046875 -0.265625 0.046875 -2.453125l0 -20.671877q0 -2.484375 -0.265625 -3.09375q-0.265625 -0.609375 -1.09375 -1.078125q-0.8125 -0.46875 -2.1875 -0.46875l-1.03125 0l0 -0.890625l13.34375 0l9.1875 21.53125zm27.573868 -6.234375l0 -1.0625q2.796875 -1.203125 4.046875 -3.109375q1.265625 -1.921875 1.265625 -3.953125q0 -0.390625 -0.15625 -0.59375q-0.171875 -0.203125 -0.34375 -0.203125q-0.140625 0 -0.4375 0.171875q-0.6875 0.40625 -1.734375 0.40625q-1.421875 0 -2.46875 -1.109375q-1.046875 -1.109375 -1.046875 -2.59375q0 -1.59375 1.203125 -2.796875q1.203125 -1.203125 2.921875 -1.203125q2.0625 0 3.53125 1.609375q1.484375 1.59375 1.484375 4.390625q0 3.4375 -2.09375 6.109375q-2.078125 2.671875 -6.171875 3.9375zm25.955292 -5.78125l0.375 7.671875l-0.828125 0q-1.46875 -3.421875 -3.046875 -4.671875q-1.578125 -1.25 -3.140625 -1.25q-0.984375 0 -1.6875 0.671875q-0.703125 0.65625 -0.703125 1.515625q0 0.65625 0.484375 1.265625q0.765625 0.984375 4.3125 3.390625q3.546875 2.390625 4.65625 4.0625q1.125 1.671875 1.125 3.734377q0 1.890625 -0.9375 3.703125q-0.9375 1.796875 -2.65625 2.765625q-1.703125 0.953125 -3.78125 0.953125q-1.609375 0 -4.3125 -1.015625q-0.71875 -0.265625 -0.984375 -0.265625q-0.796875 0 -1.328125 1.21875l-0.78125 0l-0.390625 -8.09375l0.8125 0q1.09375 3.171875 2.984375 4.765625q1.890625 1.59375 3.578125 1.59375q1.15625 0 1.890625 -0.703125q0.734375 -0.71875 0.734375 -1.734375q0 -1.15625 -0.734375 -2.0q-0.71875 -0.84375 -3.21875 -2.546875q-3.6875 -2.562502 -4.765625 -3.906252q-1.59375 -1.984375 -1.59375 -4.359375q0 -2.609375 1.796875 -4.703125q1.796875 -2.109375 5.1875 -2.109375q1.828125 0 3.53125 0.890625q0.65625 0.359375 1.0625 0.359375q0.4375 0 0.703125 -0.171875q0.265625 -0.1875 0.84375 -1.03125l0.8125 0zm26.012955 20.859377l0 8.375q0 1.7343788 0.28125 2.3593788q0.28125 0.625 0.859375 0.90625q0.578125 0.296875 2.265625 0.296875l0 0.890625l-12.84375 0l0 -0.890625q1.5 -0.046875 2.21875 -0.84375q0.484375 -0.546875 0.484375 -2.8593788l0 -23.781252q0 -2.375 -0.5625 -3.03125q-0.546875 -0.671875 -2.140625 -0.765625l0 -0.890625l9.4375 0l0 2.953125q1.1875 -1.734375 2.421875 -2.5q1.75 -1.125 3.828125 -1.125q2.46875 0 4.5 1.5625q2.046875 1.5625 3.109375 4.328125q1.0625 2.75 1.0625 5.921875q0 3.421877 -1.109375 6.265627q-1.09375 2.828125 -3.171875 4.3125q-2.078125 1.46875 -4.640625 1.46875q-1.84375 0 -3.46875 -0.8125q-1.203125 -0.625 -2.53125 -2.140625zm0 -2.4375q2.078125 2.9375 4.4375 2.9375q1.296875 0 2.140625 -1.375q1.25 -2.015625 1.25 -7.703127q0 -5.828125 -1.359375 -7.96875q-0.921875 -1.421875 -2.46875 -1.421875q-2.421875 0 -4.0 3.515625l0 12.015627zm37.793335 -7.343752l-12.359375 0q0.21875 4.468752 2.390625 7.078127q1.65625 2.0 4.0 2.0q1.4375 0 2.609375 -0.796875q1.1875 -0.8125 2.546875 -2.921875l0.8125 0.53125q-1.828125 3.734375 -4.046875 5.296875q-2.21875 1.546875 -5.125 1.546875q-5.015625 0 -7.59375 -3.84375q-2.0625 -3.109375 -2.0625 -7.718752q0 -5.625 3.046875 -8.953125q3.046875 -3.34375 7.140625 -3.34375q3.421875 0 5.9375 2.8125q2.515625 2.796875 2.703125 8.3125zm-5.921875 -1.625q0 -3.875 -0.421875 -5.3125q-0.421875 -1.453125 -1.3125 -2.203125q-0.5 -0.421875 -1.34375 -0.421875q-1.25 0 -2.046875 1.21875q-1.421875 2.15625 -1.421875 5.875l0 0.84375l6.546875 0zm18.08168 -8.828125l0 5.09375q2.25 -3.484375 3.9375 -4.625q1.6875 -1.140625 3.25 -1.140625q1.34375 0 2.140625 0.828125q0.8125 0.828125 0.8125 2.34375q0 1.609375 -0.78125 2.5q-0.78125 0.890625 -1.890625 0.890625q-1.265625 0 -2.21875 -0.8125q-0.9375 -0.8125 -1.09375 -0.921875q-0.25 -0.140625 -0.5625 -0.140625q-0.703125 0 -1.328125 0.53125q-0.984375 0.8125 -1.484375 2.34375q-0.78125 2.328125 -0.78125 5.140625l0 5.187502l0.03125 1.34375q0 1.375 0.171875 1.765625q0.28125 0.640625 0.84375 0.953125q0.578125 0.296875 1.921875 0.375l0 0.859375l-12.15625 0l0 -0.859375q1.46875 -0.125 1.984375 -0.8125q0.515625 -0.6875 0.515625 -3.625l0 -12.453127q0 -1.921875 -0.1875 -2.453125q-0.25 -0.671875 -0.703125 -0.984375q-0.453125 -0.328125 -1.609375 -0.4375l0 -0.890625l9.1875 0zm26.784805 -0.625l0.375 7.671875l-0.828125 0q-1.46875 -3.421875 -3.046875 -4.671875q-1.578125 -1.25 -3.140625 -1.25q-0.984375 0 -1.6875 0.671875q-0.703125 0.65625 -0.703125 1.515625q0 0.65625 0.484375 1.265625q0.765625 0.984375 4.3125 3.390625q3.546875 2.390625 4.65625 4.0625q1.125 1.671875 1.125 3.734377q0 1.890625 -0.9375 3.703125q-0.9375 1.796875 -2.65625 2.765625q-1.703125 0.953125 -3.78125 0.953125q-1.609375 0 -4.3125 -1.015625q-0.71875 -0.265625 -0.984375 -0.265625q-0.796875 0 -1.328125 1.21875l-0.78125 0l-0.390625 -8.09375l0.8125 0q1.09375 3.171875 2.984375 4.765625q1.890625 1.59375 3.578125 1.59375q1.15625 0 1.890625 -0.703125q0.734375 -0.71875 0.734375 -1.734375q0 -1.15625 -0.734375 -2.0q-0.71875 -0.84375 -3.21875 -2.546875q-3.6875 -2.562502 -4.765625 -3.906252q-1.59375 -1.984375 -1.59375 -4.359375q0 -2.609375 1.796875 -4.703125q1.796875 -2.109375 5.1875 -2.109375q1.828125 0 3.53125 0.890625q0.65625 0.359375 1.0625 0.359375q0.4375 0 0.703125 -0.171875q0.265625 -0.1875 0.84375 -1.03125l0.8125 0zm15.587173 -0.046875q2.9375 0 5.46875 1.515625q2.53125 1.515625 3.84375 4.3125q1.3125 2.78125 1.3125 6.109375q0 4.796877 -2.4375 8.015627q-2.9375 3.90625 -8.109375 3.90625q-5.078125 0 -7.828125 -3.5625q-2.75 -3.5625 -2.75 -8.265627q0 -4.84375 2.796875 -8.4375q2.8125 -3.59375 7.703125 -3.59375zm0.09375 1.703125q-1.21875 0 -2.109375 0.9375q-0.875 0.921875 -1.15625 3.65625q-0.265625 2.734375 -0.265625 7.59375q0 2.578127 0.328125 4.812502q0.265625 1.71875 1.125 2.609375q0.875 0.890625 1.984375 0.890625q1.09375 0 1.8125 -0.609375q0.9375 -0.8125 1.25 -2.28125q0.484375 -2.296875 0.484375 -9.250002q0 -4.09375 -0.46875 -5.625q-0.453125 -1.53125 -1.34375 -2.234375q-0.625 -0.5 -1.640625 -0.5zm23.148438 -1.03125l0 2.90625q1.734375 -1.875 3.328125 -2.71875q1.59375 -0.859375 3.421875 -0.859375q2.1875 0 3.625 1.21875q1.453125 1.203125 1.9375 3.015625q0.390625 1.375 0.390625 5.265625l0 8.781252q0 2.59375 0.46875 3.234375q0.46875 0.640625 1.953125 0.8125l0 0.859375l-11.390625 0l0 -0.859375q1.28125 -0.171875 1.828125 -1.0625q0.390625 -0.609375 0.390625 -2.984375l0 -10.031252q0 -2.765625 -0.21875 -3.484375q-0.21875 -0.71875 -0.734375 -1.109375q-0.515625 -0.40625 -1.140625 -0.40625q-2.078125 0 -3.859375 2.953125l0 12.078127q0 2.515625 0.46875 3.203125q0.46875 0.671875 1.75 0.84375l0 0.859375l-11.390625 0l0 -0.859375q1.421875 -0.15625 2.015625 -0.921875q0.421875 -0.53125 0.421875 -3.125l0 -12.718752q0 -2.5625 -0.484375 -3.1875q-0.46875 -0.625 -1.953125 -0.8125l0 -0.890625l9.171875 0zm30.668335 19.187502q-4.125 3.640625 -7.390625 3.640625q-1.9375 0 -3.21875 -1.265625q-1.265625 -1.265625 -1.265625 -3.171875q0 -2.578125 2.203125 -4.625q2.21875 -2.062502 9.671875 -5.484377l0 -2.265625q0 -2.546875 -0.28125 -3.203125q-0.28125 -0.671875 -1.046875 -1.15625q-0.765625 -0.5 -1.734375 -0.5q-1.5625 0 -2.578125 0.6875q-0.625 0.4375 -0.625 1.015625q0 0.515625 0.671875 1.25q0.921875 1.046875 0.921875 2.0q0 1.1875 -0.890625 2.015625q-0.875 0.828125 -2.296875 0.828125q-1.515625 0 -2.546875 -0.90625q-1.015625 -0.921875 -1.015625 -2.15625q0 -1.734375 1.375 -3.3125q1.375 -1.578125 3.828125 -2.40625q2.453125 -0.84375 5.109375 -0.84375q3.203125 0 5.0625 1.359375q1.875 1.359375 2.421875 2.9375q0.34375 1.015625 0.34375 4.65625l0 8.750002q0 1.53125 0.109375 1.9375q0.125 0.390625 0.359375 0.59375q0.25 0.1875 0.5625 0.1875q0.625 0 1.28125 -0.890625l0.71875 0.578125q-1.203125 1.78125 -2.5 2.59375q-1.28125 0.796875 -2.921875 0.796875q-1.921875 0 -3.015625 -0.90625q-1.078125 -0.90625 -1.3125 -2.734375zm0 -1.75l0 -7.546877q-2.921875 1.71875 -4.34375 3.671875q-0.9375 1.2968769 -0.9375 2.625002q0 1.09375 0.796875 1.9375q0.609375 0.65625 1.6875 0.65625q1.203125 0 2.796875 -1.34375zm21.054688 -27.578127l0 27.984377q0 2.390625 0.546875 3.046875q0.546875 0.65625 2.171875 0.765625l0 0.859375l-12.171875 0l0 -0.859375q1.5 -0.0625 2.21875 -0.875q0.484375 -0.546875 0.484375 -2.9375l0 -23.312502q0 -2.359375 -0.5625 -3.015625q-0.546875 -0.671875 -2.140625 -0.765625l0 -0.890625l9.453125 0zm39.536957 33.328125l-6.15625 -16.515627l-6.046875 16.515627l-1.25 0l-6.0 -16.328127q-1.359375 -3.734375 -2.296875 -4.859375q-0.59375 -0.78125 -1.828125 -1.109375l0 -0.890625l11.375 0l0 0.890625q-1.15625 0 -1.59375 0.34375q-0.4375 0.328125 -0.4375 0.765625q0 0.40625 0.78125 2.453125l3.296875 8.796875l3.171875 -8.796875l-0.234375 -0.578125q-0.71875 -1.8125 -1.265625 -2.296875q-0.546875 -0.5 -1.671875 -0.6875l0 -0.890625l11.53125 0l0 0.890625q-1.34375 0.0625 -1.703125 0.375q-0.359375 0.296875 -0.359375 0.84375q0 0.53125 0.6875 2.34375l3.1875 8.796875l2.890625 -8.09375q0.625 -1.734375 0.625 -2.359375q0 -0.953125 -0.46875 -1.375q-0.453125 -0.4375 -1.765625 -0.53125l0 -0.890625l6.671875 0l0 0.890625q-1.109375 0.140625 -1.765625 0.78125q-0.65625 0.640625 -1.6875 3.625l-6.3125 17.890627l-1.375 0zm32.3732 -12.734377l-12.359375 0q0.21875 4.468752 2.390625 7.078127q1.65625 2.0 4.0 2.0q1.4375 0 2.609375 -0.796875q1.1875 -0.8125 2.546875 -2.921875l0.8125 0.53125q-1.828125 3.734375 -4.046875 5.296875q-2.21875 1.546875 -5.125 1.546875q-5.015625 0 -7.59375 -3.84375q-2.0625 -3.109375 -2.0625 -7.718752q0 -5.625 3.046875 -8.953125q3.046875 -3.34375 7.140625 -3.34375q3.421875 0 5.9375 2.8125q2.515625 2.796875 2.703125 8.3125zm-5.921875 -1.625q0 -3.875 -0.421875 -5.3125q-0.421875 -1.453125 -1.3125 -2.203125q-0.5 -0.421875 -1.34375 -0.421875q-1.25 0 -2.046875 1.21875q-1.421875 2.15625 -1.421875 5.875l0 0.84375l6.546875 0zm17.456696 -18.96875l0 12.40625q2.84375 -2.9375 6.21875 -2.9375q2.3125 0 4.359375 1.359375q2.046875 1.359375 3.203125 3.859375q1.15625 2.5 1.15625 5.78125q0 3.687502 -1.46875 6.703127q-1.46875 3.0 -3.921875 4.578125q-2.453125 1.578125 -5.609375 1.578125q-1.84375 0 -3.265625 -0.578125q-1.40625 -0.578125 -2.78125 -1.875l-3.734375 2.4375l-0.828125 0l0 -28.640627q0 -1.953125 -0.15625 -2.40625q-0.25 -0.6875 -0.765625 -1.0q-0.515625 -0.328125 -1.75 -0.375l0 -0.890625l9.34375 0zm0 14.546875l0 10.015627q0 3.0625 0.15625 3.90625q0.234375 1.421875 1.140625 2.296875q0.921875 0.875 2.34375 0.875q1.234375 0 2.109375 -0.6875q0.875 -0.703125 1.46875 -2.765625q0.59375 -2.078125 0.59375 -7.484377q0 -5.171875 -1.296875 -7.09375q-0.953125 -1.40625 -2.53125 -1.40625q-2.078125 0 -3.984375 2.34375zm32.949585 -5.03125l0.375 7.671875l-0.828125 0q-1.46875 -3.421875 -3.046875 -4.671875q-1.578125 -1.25 -3.140625 -1.25q-0.984375 0 -1.6875 0.671875q-0.703125 0.65625 -0.703125 1.515625q0 0.65625 0.484375 1.265625q0.765625 0.984375 4.3125 3.390625q3.546875 2.390625 4.65625 4.0625q1.125 1.671875 1.125 3.734377q0 1.890625 -0.9375 3.703125q-0.9375 1.796875 -2.65625 2.765625q-1.703125 0.953125 -3.78125 0.953125q-1.609375 0 -4.3125 -1.015625q-0.71875 -0.265625 -0.984375 -0.265625q-0.796875 0 -1.328125 1.21875l-0.78125 0l-0.390625 -8.09375l0.8125 0q1.09375 3.171875 2.984375 4.765625q1.890625 1.59375 3.578125 1.59375q1.15625 0 1.890625 -0.703125q0.734375 -0.71875 0.734375 -1.734375q0 -1.15625 -0.734375 -2.0q-0.71875 -0.84375 -3.21875 -2.546875q-3.6875 -2.562502 -4.765625 -3.906252q-1.59375 -1.984375 -1.59375 -4.359375q0 -2.609375 1.796875 -4.703125q1.796875 -2.109375 5.1875 -2.109375q1.828125 0 3.53125 0.890625q0.65625 0.359375 1.0625 0.359375q0.4375 0 0.703125 -0.171875q0.265625 -0.1875 0.84375 -1.03125l0.8125 0zm10.384033 -10.296875q1.5625 0 2.640625 1.109375q1.09375 1.09375 1.09375 2.625q0 1.546875 -1.09375 2.640625q-1.09375 1.078125 -2.640625 1.078125q-1.53125 0 -2.625 -1.078125q-1.078125 -1.09375 -1.078125 -2.640625q0 -1.53125 1.078125 -2.625q1.09375 -1.109375 2.625 -1.109375zm3.375 10.921875l0 17.843752q0 2.390625 0.546875 3.046875q0.5625 0.65625 2.171875 0.765625l0 0.859375l-12.15625 0l0 -0.859375q1.484375 -0.0625 2.21875 -0.875q0.46875 -0.546875 0.46875 -2.9375l0 -13.156252q0 -2.375 -0.5625 -3.03125q-0.546875 -0.671875 -2.125 -0.765625l0 -0.890625l9.4375 0zm13.845581 -8.25l0 8.25l5.34375 0l0 2.375l-5.34375 0l0 13.906252q0 1.953125 0.171875 2.515625q0.1875 0.5625 0.640625 0.921875q0.46875 0.34375 0.859375 0.34375q1.5625 0 2.953125 -2.390625l0.71875 0.53125q-1.9375 4.625 -6.328125 4.625q-2.140625 0 -3.625 -1.1875q-1.484375 -1.203125 -1.890625 -2.671875q-0.234375 -0.8125 -0.234375 -4.421875l0 -12.171877l-2.9375 0l0 -0.84375q3.03125 -2.140625 5.15625 -4.5q2.140625 -2.359375 3.71875 -5.28125l0.796875 0zm26.56726 18.703125l-12.359375 0q0.21875 4.468752 2.390625 7.078127q1.65625 2.0 4.0 2.0q1.4375 0 2.609375 -0.796875q1.1875 -0.8125 2.546875 -2.921875l0.8125 0.53125q-1.828125 3.734375 -4.046875 5.296875q-2.21875 1.546875 -5.125 1.546875q-5.015625 0 -7.59375 -3.84375q-2.0625 -3.109375 -2.0625 -7.718752q0 -5.625 3.046875 -8.953125q3.046875 -3.34375 7.140625 -3.34375q3.421875 0 5.9375 2.8125q2.515625 2.796875 2.703125 8.3125zm-5.921875 -1.625q0 -3.875 -0.421875 -5.3125q-0.421875 -1.453125 -1.3125 -2.203125q-0.5 -0.421875 -1.34375 -0.421875q-1.25 0 -2.046875 1.21875q-1.421875 2.15625 -1.421875 5.875l0 0.84375l6.546875 0z" fill-rule="nonzero"/></g></svg>