<svg version="1.1" viewBox="0.0 0.0 883.6509186351706 76.8005249343832" fill="none" stroke="none" stroke-linecap="square" stroke-miterlimit="10" xmlns:xlink="http://www.w3.org/1999/xlink" xmlns="http://www.w3.org/2000/svg"><clipPath id="p.0"><path d="m0 0l883.65094 0l0 76.80052l-883.65094 0l0 -76.80052z" clip-rule="nonzero"/></clipPath><g clip-path="url(#p.0)"><path fill="#000000" fill-opacity="0.0" d="m0 0l883.65094 0l0 76.80052l-883.65094 0z" fill-rule="evenodd"/><defs><linearGradient id="p.1" gradientUnits="userSpaceOnUse" gradientTransform="matrix(8.763024609922383 0.0 0.0 8.763024609922383 0.0 0.0)" spreadMethod="pad" x1="0.0017971012819137065" y1="0.06163492308393159" x2="0.0017653792387706925" y2="8.824659532948894"><stop offset="0.0" stop-color="#1c4587"/><stop offset="0.39" stop-color="#4675ae"/><stop offset="1.0" stop-color="#70a4d5"/></linearGradient></defs><path fill="url(#p.1)" d="m0.015748031 0.54330707l883.6221 0l0 76.78741l-883.6221 0z" fill-rule="evenodd"/><path fill="#000000" fill-opacity="0.0" d="m0.015748031 4.4645667l878.3307 0l0 67.874016l-878.3307 0z" fill-rule="evenodd"/><path fill="#ffffff" d="m11.953248 23.22394l11.437501 0q3.40625 0 5.0625 0.296875q1.671875 0.28125 2.984375 1.1875q1.3281231 0.890625 2.203123 2.390625q0.890625 1.484375 0.890625 3.34375q0 1.9999981 -1.09375 3.687498q-1.078125 1.671875 -2.937498 2.515625q2.624998 0.765625 4.031248 2.609375q1.40625 1.828125 1.40625 4.3125q0 1.953125 -0.921875 3.796875q-0.90625 1.84375 -2.484375 2.953125q-1.5624981 1.09375 -3.859373 1.34375q-1.453125 0.15625 -6.984375 0.203125l-9.734376 0l0 -28.640623zm5.781251 4.765625l0 6.624998l3.78125 0q3.375 0 4.203125 -0.09375q1.484375 -0.171875 2.328125 -1.015625q0.859375 -0.859375 0.859375 -2.249998q0 -1.328125 -0.734375 -2.15625q-0.734375 -0.828125 -2.1875 -1.0q-0.859375 -0.109375 -4.9375 -0.109375l-3.3125 0zm0 11.390623l0 7.65625l5.34375 0q3.125 0 3.96875 -0.171875q1.28125 -0.234375 2.09375 -1.140625q0.8125 -0.90625 0.8125 -2.4375q0 -1.28125 -0.625 -2.171875q-0.625 -0.90625 -1.8125 -1.3125q-1.171875 -0.421875 -5.125 -0.421875l-4.65625 0zm22.996092 12.484375l0 -28.640623l8.65625 0l5.203125 19.531248l5.125 -19.531248l8.671875 0l0 28.640623l-5.359375 0l0 -22.546873l-5.6875 22.546873l-5.5625 0l-5.671875 -22.546873l0 22.546873l-5.375 0zm33.226562 -28.546873l5.484375 0l0 3.921875q0 2.390625 -0.40625 3.765625q-0.40625 1.3749981 -1.546875 2.468748q-1.140625 1.09375 -2.90625 1.71875l-1.078125 -2.265625q1.671875 -0.546875 2.375 -1.4999981q0.703125 -0.96875 0.734375 -2.625l-2.65625 0l0 -5.484375zm7.8320312 22.624998l5.515625 -0.84375q0.34375 1.609375 1.421875 2.4375q1.078125 0.828125 3.0 0.828125q2.140625 0 3.203125 -0.78125q0.734375 -0.546875 0.734375 -1.46875q0 -0.625 -0.390625 -1.03125q-0.421875 -0.390625 -1.84375 -0.71875q-6.640625 -1.46875 -8.421875 -2.671875q-2.453125 -1.6875 -2.453125 -4.671875q0 -2.703125 2.125 -4.53125q2.125 -1.8437481 6.609375 -1.8437481q4.25 0 6.3125 1.3906231q2.078125 1.390625 2.859375 4.109375l-5.171875 0.953125q-0.328125 -1.21875 -1.265625 -1.859375q-0.921875 -0.640625 -2.640625 -0.640625q-2.171875 0 -3.109375 0.609375q-0.625 0.421875 -0.625 1.109375q0 0.578125 0.546875 1.0q0.75 0.546875 5.125 1.546875q4.390625 0.984375 6.125 2.4375q1.71875 1.453125 1.71875 4.078125q0 2.84375 -2.390625 4.90625q-2.375 2.046875 -7.046875 2.046875q-4.234375 0 -6.703125 -1.71875q-2.46875 -1.71875 -3.234375 -4.671875zm35.140625 -14.828123l5.109375 0l0 3.046873q1.0 -1.5625 2.703125 -2.531248q1.703125 -0.984375 3.765625 -0.984375q3.609375 0 6.125 2.843748q2.53125 2.828125 2.53125 7.890625q0 5.1875 -2.546875 8.078125q-2.53125 2.875 -6.140625 2.875q-1.71875 0 -3.125 -0.6875q-1.390625 -0.6875 -2.9375 -2.34375l0 10.453125l-5.484375 0l0 -28.640623zm5.421875 10.031248q0 3.484375 1.390625 5.15625q1.390625 1.671875 3.375 1.671875q1.921875 0 3.1875 -1.53125q1.265625 -1.53125 1.265625 -5.03125q0 -3.265625 -1.3125 -4.84375q-1.296875 -1.578125 -3.234375 -1.578125q-2.015625 0 -3.34375 1.5625q-1.328125 1.546875 -1.328125 4.59375zm31.183594 4.109375l5.46875 0.921875q-1.0625 3.015625 -3.34375 4.59375q-2.265625 1.5625 -5.6875 1.5625q-5.40625 0 -8.0 -3.53125q-2.0625 -2.84375 -2.0625 -7.15625q0 -5.15625 2.6875 -8.078125q2.703125 -2.921873 6.828125 -2.921873q4.625 0 7.296875 3.062498q2.6875 3.0625 2.5625 9.359375l-13.75 0q0.0625 2.453125 1.328125 3.8125q1.28125 1.34375 3.171875 1.34375q1.28125 0 2.15625 -0.703125q0.890625 -0.703125 1.34375 -2.265625zm0.3125 -5.546875q-0.0625 -2.375 -1.234375 -3.609375q-1.171875 -1.25 -2.859375 -1.25q-1.796875 0 -2.96875 1.3125q-1.171875 1.3125 -1.140625 3.546875l8.203125 0zm15.167969 12.15625l-5.484375 0l0 -20.749998l5.09375 0l0 2.953123q1.3125 -2.093748 2.359375 -2.749998q1.046875 -0.671875 2.375 -0.671875q1.875 0 3.609375 1.046875l-1.703125 4.781248q-1.390625 -0.90625 -2.578125 -0.90625q-1.15625 0 -1.953125 0.640625q-0.796875 0.640625 -1.265625 2.296875q-0.453125 1.65625 -0.453125 6.953125l0 6.40625zm8.378906 -5.921875l5.515625 -0.84375q0.34375 1.609375 1.421875 2.4375q1.078125 0.828125 3.0 0.828125q2.140625 0 3.203125 -0.78125q0.734375 -0.546875 0.734375 -1.46875q0 -0.625 -0.390625 -1.03125q-0.421875 -0.390625 -1.84375 -0.71875q-6.640625 -1.46875 -8.421875 -2.671875q-2.453125 -1.6875 -2.453125 -4.671875q0 -2.703125 2.125 -4.53125q2.125 -1.8437481 6.609375 -1.8437481q4.25 0 6.3125 1.3906231q2.078125 1.390625 2.859375 4.109375l-5.171875 0.953125q-0.328125 -1.21875 -1.265625 -1.859375q-0.921875 -0.640625 -2.640625 -0.640625q-2.171875 0 -3.109375 0.609375q-0.625 0.421875 -0.625 1.109375q0 0.578125 0.546875 1.0q0.75 0.546875 5.125 1.546875q4.390625 0.984375 6.125 2.4375q1.71875 1.453125 1.71875 4.078125q0 2.84375 -2.390625 4.90625q-2.375 2.046875 -7.046875 2.046875q-4.234375 0 -6.703125 -1.71875q-2.46875 -1.71875 -3.234375 -4.671875zm22.917969 -4.75q0 -2.734375 1.34375 -5.28125q1.34375 -2.5625 3.8125 -3.90625q2.46875 -1.3593731 5.515625 -1.3593731q4.71875 0 7.71875 3.062498q3.015625 3.0625 3.015625 7.71875q0 4.71875 -3.046875 7.8125q-3.03125 3.09375 -7.640625 3.09375q-2.859375 0 -5.453125 -1.28125q-2.578125 -1.296875 -3.921875 -3.78125q-1.34375 -2.5 -1.34375 -6.078125zm5.625 0.296875q0 3.09375 1.453125 4.734375q1.46875 1.640625 3.625 1.640625q2.140625 0 3.59375 -1.640625q1.453125 -1.640625 1.453125 -4.765625q0 -3.046875 -1.453125 -4.6875q-1.453125 -1.640625 -3.59375 -1.640625q-2.15625 0 -3.625 1.640625q-1.453125 1.640625 -1.453125 4.71875zm38.933594 10.375l-5.484375 0l0 -10.59375q0 -3.359375 -0.359375 -4.34375q-0.34375 -0.984375 -1.140625 -1.53125q-0.78125 -0.546875 -1.890625 -0.546875q-1.4375 0 -2.578125 0.78125q-1.125 0.78125 -1.546875 2.078125q-0.40625 1.28125 -0.40625 4.765625l0 9.390625l-5.5 0l0 -20.749998l5.109375 0l0 3.046873q2.703125 -3.515623 6.828125 -3.515623q1.8125 0 3.3125 0.65625q1.515625 0.65625 2.28125 1.6718731q0.78125 1.015625 1.078125 2.3125q0.296875 1.28125 0.296875 3.6875l0 12.890625zm9.667969 -14.421875l-4.96875 -0.890625q0.828125 -3.015625 2.875 -4.453125q2.0625 -1.4531231 6.109375 -1.4531231q3.671875 0 5.46875 0.875q1.796875 0.8749981 2.515625 2.218748q0.734375 1.328125 0.734375 4.90625l-0.046875 6.40625q0 2.734375 0.25 4.03125q0.265625 1.296875 1.0 2.78125l-5.4375 0q-0.21875 -0.546875 -0.53125 -1.625q-0.125 -0.484375 -0.1875 -0.640625q-1.40625 1.359375 -3.015625 2.046875q-1.59375 0.6875 -3.40625 0.6875q-3.203125 0 -5.0625 -1.734375q-1.84375 -1.75 -1.84375 -4.40625q0 -1.75 0.84375 -3.125q0.84375 -1.375 2.359375 -2.109375q1.515625 -0.734375 4.359375 -1.28125q3.84375 -0.71875 5.328125 -1.34375l0 -0.546875q0 -1.59375 -0.78125 -2.265625q-0.78125 -0.671875 -2.9375 -0.671875q-1.46875 0 -2.296875 0.578125q-0.8125 0.578125 -1.328125 2.015625zm7.34375 4.453125q-1.046875 0.359375 -3.34375 0.84375q-2.28125 0.484375 -2.984375 0.953125q-1.0625 0.765625 -1.0625 1.9375q0 1.15625 0.859375 2.0q0.859375 0.828125 2.1875 0.828125q1.484375 0 2.828125 -0.96875q1.0 -0.75 1.3125 -1.8125q0.203125 -0.703125 0.203125 -2.6875l0 -1.09375zm10.808594 9.96875l0 -28.640623l5.484375 0l0 28.640623l-5.484375 0zm26.085938 0l-6.5625 -20.749998l5.34375 0l3.875 13.593748l3.578125 -13.593748l5.296875 0l3.453125 13.593748l3.96875 -13.593748l5.40625 0l-6.65625 20.749998l-5.28125 0l-3.5625 -13.34375l-3.515625 13.34375l-5.34375 0zm39.26953 -6.609375l5.46875 0.921875q-1.0625 3.015625 -3.34375 4.59375q-2.265625 1.5625 -5.6875 1.5625q-5.40625 0 -8.0 -3.53125q-2.0625 -2.84375 -2.0625 -7.15625q0 -5.15625 2.6875 -8.078125q2.703125 -2.921873 6.828125 -2.921873q4.625 0 7.296875 3.062498q2.6875 3.0625 2.5625 9.359375l-13.75 0q0.0625 2.453125 1.328125 3.8125q1.28125 1.34375 3.171875 1.34375q1.28125 0 2.15625 -0.703125q0.890625 -0.703125 1.34375 -2.265625zm0.3125 -5.546875q-0.0625 -2.375 -1.234375 -3.609375q-1.171875 -1.25 -2.859375 -1.25q-1.796875 0 -2.96875 1.3125q-1.171875 1.3125 -1.140625 3.546875l8.203125 0zm9.683594 12.15625l0 -28.640623l5.484375 0l0 10.312498q2.546875 -2.890623 6.015625 -2.890623q3.796875 0 6.265625 2.749998q2.484375 2.75 2.484375 7.875q0 5.3125 -2.53125 8.1875q-2.53125 2.875 -6.140625 2.875q-1.78125 0 -3.515625 -0.890625q-1.71875 -0.890625 -2.96875 -2.625l0 3.046875l-5.09375 0zm5.453125 -10.828125q0 3.234375 1.015625 4.765625q1.421875 2.1875 3.78125 2.1875q1.8125 0 3.09375 -1.546875q1.28125 -1.546875 1.28125 -4.890625q0 -3.5625 -1.296875 -5.125q-1.28125 -1.578125 -3.296875 -1.578125q-1.96875 0 -3.28125 1.53125q-1.296875 1.53125 -1.296875 4.65625zm17.277344 4.90625l5.515625 -0.84375q0.34375 1.609375 1.421875 2.4375q1.078125 0.828125 3.0 0.828125q2.140625 0 3.203125 -0.78125q0.734375 -0.546875 0.734375 -1.46875q0 -0.625 -0.390625 -1.03125q-0.421875 -0.390625 -1.84375 -0.71875q-6.640625 -1.46875 -8.421875 -2.671875q-2.453125 -1.6875 -2.453125 -4.671875q0 -2.703125 2.125 -4.53125q2.125 -1.8437481 6.609375 -1.8437481q4.25 0 6.3125 1.3906231q2.078125 1.390625 2.859375 4.109375l-5.171875 0.953125q-0.328125 -1.21875 -1.265625 -1.859375q-0.921875 -0.640625 -2.640625 -0.640625q-2.171875 0 -3.109375 0.609375q-0.625 0.421875 -0.625 1.109375q0 0.578125 0.546875 1.0q0.75 0.546875 5.125 1.546875q4.390625 0.984375 6.125 2.4375q1.71875 1.453125 1.71875 4.078125q0 2.84375 -2.390625 4.90625q-2.375 2.046875 -7.046875 2.046875q-4.234375 0 -6.703125 -1.71875q-2.46875 -1.71875 -3.234375 -4.671875zm24.183594 -17.640623l0 -5.078125l5.484375 0l0 5.078125l-5.484375 0zm0 23.562498l0 -20.749998l5.484375 0l0 20.749998l-5.484375 0zm20.628906 -20.749998l0 4.374998l-3.75 0l0 8.359375q0 2.546875 0.09375 2.96875q0.109375 0.421875 0.484375 0.703125q0.390625 0.265625 0.9375 0.265625q0.765625 0 2.203125 -0.53125l0.46875 4.25q-1.90625 0.828125 -4.328125 0.828125q-1.484375 0 -2.6875 -0.5q-1.1875 -0.5 -1.75 -1.28125q-0.546875 -0.796875 -0.765625 -2.140625q-0.171875 -0.96875 -0.171875 -3.875l0 -9.046875l-2.515625 0l0 -4.374998l2.515625 0l0 -4.109375l5.515625 -3.203125l0 7.3125l3.75 0zm15.8203125 14.140623l5.46875 0.921875q-1.0625 3.015625 -3.34375 4.59375q-2.265625 1.5625 -5.6875 1.5625q-5.40625 0 -8.0 -3.53125q-2.0625 -2.84375 -2.0625 -7.15625q0 -5.15625 2.6875 -8.078125q2.703125 -2.921873 6.828125 -2.921873q4.625 0 7.296875 3.062498q2.6875 3.0625 2.5625 9.359375l-13.75 0q0.0625 2.453125 1.328125 3.8125q1.28125 1.34375 3.171875 1.34375q1.28125 0 2.15625 -0.703125q0.890625 -0.703125 1.34375 -2.265625zm0.3125 -5.546875q-0.0625 -2.375 -1.234375 -3.609375q-1.171875 -1.25 -2.859375 -1.25q-1.796875 0 -2.96875 1.3125q-1.171875 1.3125 -1.140625 3.546875l8.203125 0z" fill-rule="nonzero"/><path fill="#ffffff" d="m846.57825 28.69269q0 -0.15625 0 -0.3125q0 -1.140625 1.28125 -1.140625q0.328125 0.984375 0.328125 1.078125q1.046875 0.46875 0.828125 1.140625q0 1.140625 -0.828125 1.96875q-0.671875 0.9062481 -2.03125 0.9062481q-1.609375 0 -1.609375 -1.4374981q0.328125 -0.984375 1.234375 -1.28125q0.796875 -0.1875 0.796875 -0.921875zm-4.46875 21.593748q-2.0 0.59375 -2.0 0.75q0 0.5625 5.734375 0.421875q5.734375 0.140625 5.734375 -0.421875q0 -0.03125 -1.734375 -0.609375q-1.90625 -0.4375 -4.28125 -0.4375q-2.296875 0.15625 -3.453125 0.296875zm-4.71875 -1.015625q0.0625 0.203125 0.046875 -0.078125q3.3125 -2.265625 9.703125 -2.109375q4.453125 0.328125 7.109375 2.109375q-0.015625 0.28125 0.15625 0.046875q0.15625 0.375 -0.171875 0.234375q0 -0.125 -0.21875 -0.359375q-0.828125 -0.8125 -2.546875 -1.53125q-2.65625 -1.03125 -5.46875 -1.03125q-2.234375 0 -4.46875 0.59375q-2.453125 0.71875 -3.828125 1.953125q-0.25 0.34375 -0.25 0.265625q-0.203125 0.140625 -0.0625 -0.09375zm13.828125 -4.75q0.625 0.3125 0.96875 0.203125q0.1875 0.046875 0.171875 -0.09375q0 -0.4375 -0.125 -0.5625q-0.171875 -0.09375 -0.90625 -0.390625q-1.109375 -0.40625 -1.578125 -0.40625q0 -0.203125 0.203125 -0.203125q0 0.75 0.015625 0.765625q0.359375 0.234375 1.25 0.6875zm4.15625 1.9375q0.15625 0 0.109375 -0.375q0 -0.625 -0.265625 -0.625q-0.109375 0 -0.109375 0.375q0.0625 0.625 0.265625 0.625zm-19.171875 -0.375q0 0.375 0.109375 0.375q0.265625 0 0.265625 -0.578125q0 -0.421875 -0.109375 -0.421875q-0.203125 0 -0.265625 0.625zm4.421875 -1.5625q0.828125 -0.421875 0.984375 -0.578125q0.125 -0.1875 0.125 -0.796875q0.203125 -0.0625 0.203125 0.125q-0.46875 0 -1.546875 0.40625q-1.0625 0.53125 -1.265625 0.078125q0.203125 0.4375 0.203125 0.875q-0.015625 0.140625 0.140625 0.09375q0.5 0.125 1.15625 -0.203125zm4.328125 -1.078125q0 0.203125 1.203125 0.203125q1.0 0 1.046875 -0.359375q0.0625 -0.640625 -1.046875 -0.640625q-0.578125 0 -0.984375 0.203125q-0.125 0.078125 -0.21875 0.59375zm-8.09375 -17.296873q2.765625 0 4.03125 1.84375q-0.375 -0.171875 -0.203125 -0.546875q-1.875 -0.734375 -3.59375 -0.734375q-1.84375 0 -3.15625 1.3125q-1.46875 1.59375 -1.328125 4.359373q0.296875 2.78125 2.234375 6.21875q0.890625 1.59375 0.5 1.890625q-0.25 -0.3125 -0.234375 -0.328125q-2.734375 -5.46875 -2.90625 -8.312498q0 -1.859375 1.25 -3.640625q1.3125 -1.6875 3.40625 -2.0625zm0.4375 11.718748q0.390625 0.796875 0.375 0.84375q2.28125 -1.125 4.90625 -1.625q-0.046875 -0.359375 -0.59375 -1.578125q0.109375 -0.296875 0.109375 -0.046875q0 -0.28125 -0.78125 1.046875q-0.703125 -1.203125 -1.171875 -1.90625q-0.234375 -0.390625 -0.4375 -0.390625q-0.375 0.109375 -0.375 1.84375q0.15625 0.46875 -0.671875 1.078125q-0.984375 -0.734375 -1.25 -0.734375q-0.109375 0 -0.109375 1.46875zm18.125 4.9375q0.3125 -0.328125 0.390625 -0.59375q-5.015625 -2.984375 -10.6875 -2.53125q-5.375 0.453125 -9.171875 2.796875q0.484375 -0.140625 0.171875 0.171875q3.6875 -2.90625 9.71875 -2.90625q6.375 0 9.984375 3.46875l-0.40625 -0.40625zm-15.46875 -11.499998q1.671875 0.203125 2.140625 1.7812481q-0.15625 -0.078125 -0.25 0.046875q-0.65625 -0.5 -1.09375 -1.2187481q-1.375 -2.734375 -3.21875 -2.859375q-0.875 0 -1.421875 0.53125q-1.0 1.015625 -1.0 2.1875q0.140625 1.2499981 0.578125 2.390623q0.3125 -0.515625 1.125 -0.515625q0.171875 -0.515625 0.9375 -1.484375q1.078125 -0.8593731 2.203125 -0.8593731zm6.671875 5.468748q0.15625 0 0.15625 0.4375q-0.03125 -1.828125 0.453125 -2.484375q-0.078125 0.453125 -1.75 0.265625q-1.28125 0 -1.21875 -0.5625q0.96875 1.078125 1.1875 2.34375q0.390625 0 1.171875 0zm2.875 0.109375q2.5 0.21875 5.0 1.40625q-0.109375 0.125 -0.109375 -0.21875q0 -1.671875 -0.109375 -1.671875q-0.0625 0 -2.078125 5.03125q0 -4.609375 0 -5.671875q-0.109375 -1.546875 -0.28125 -1.546875q-0.109375 0.03125 -0.359375 0.375q-0.359375 0.84375 -1.1875 1.921875q-0.78125 -1.203125 -0.78125 -1.046875q0 -0.25 0.171875 -0.0625q-0.140625 1.15625 -0.265625 1.484375zm-4.03125 -4.796875q1.3125 0.125 2.109375 -0.6718731q0.84375 -0.96875 0.71875 -2.15625q-0.109375 -0.953125 -0.6875 -1.546875q-0.859375 -0.84375 -1.921875 -0.84375q-0.78125 0 -1.796875 0.890625q-0.8125 0.6875 -0.8125 1.671875q0.125 1.234375 0.84375 1.96875q0.59375 0.578125 1.546875 0.6874981zm-1.078125 -8.468748l-0.484375 0.390625l0.53125 0.4375l-0.046875 -0.828125zm10.59375 10.031248q0.90625 0 1.09375 0.46875q0.203125 -0.625 0.34375 -2.0625q0.125 -1.4843731 -0.84375 -2.468748q-0.546875 -0.53125 -1.421875 -0.53125q-1.71875 0.125 -2.890625 2.21875q-0.296875 0.59375 -1.453125 1.8906231q-0.0625 -0.15625 -0.21875 -0.078125q0.46875 -1.5781231 2.140625 -1.7812481q1.125 0 2.328125 0.9999981q0.828125 0.84375 0.921875 1.34375zm1.484375 6.171875q-0.15625 -0.359375 0.546875 -1.421875q2.21875 -3.53125 2.21875 -6.734373q0 -2.3125 -1.3125 -3.640625q-1.328125 -1.3125 -3.328125 -1.3125q-1.734375 0 -3.6875 0.71875q0.109375 0.234375 -0.203125 0.40625q0.828125 -1.5 3.203125 -1.6875q2.25 -0.1875 3.765625 1.34375q1.65625 1.640625 1.65625 3.84375q0.171875 2.999998 -2.484375 8.437498q-0.109375 -0.109375 -0.375 0.046875zm-10.625 -17.359373l1.71875 -0.421875q-0.34375 0.765625 -0.65625 0.453125l-2.28125 -0.265625q0.015625 0.578125 -0.5 -0.1875l1.71875 0.421875zm1.9375 1.546875l-0.421875 -0.34375l0 0.6875l0.421875 -0.34375zm6.78125 -0.203125q3.015625 0 5.28125 2.09375q2.296875 2.125 2.296875 5.765625q0 4.140623 -2.765625 8.531248l-0.15625 0.328125q-0.203125 0.296875 -0.203125 0.75q0.203125 1.03125 -1.234375 3.1875l-0.03125 -0.015625q0.328125 0.375 0.328125 1.90625q0 2.140625 -1.140625 2.3125q0.359375 0.0625 0.359375 1.09375q0.203125 2.296875 -3.171875 3.609375q-2.328125 1.0 -8.28125 1.0q-5.609375 0 -8.40625 -0.984375q-3.203125 -1.140625 -3.203125 -3.59375q0 -1.0625 0.3125 -1.171875q-1.09375 -0.34375 -1.09375 -2.265625q0 -1.546875 0.8125 -2.09375l-0.25 0.125q-1.1875 -2.203125 -1.1875 -3.03125q0 -0.53125 -0.125 -0.71875l-0.328125 -0.328125q-2.34375 -3.84375 -2.671875 -7.640625q-0.34375 -4.281248 2.28125 -6.906248q2.125 -1.953125 5.109375 -1.953125q2.328125 0 4.328125 0.734375l0 -2.09375q0 -1.203125 0.90625 -1.875q0.625 -0.609375 1.890625 -0.828125l3.03125 0q1.4375 0 2.140625 0.71875q0.875 0.859375 0.875 2.140625l0 2.109375q2.125 -0.734375 4.296875 -0.90625z" fill-rule="nonzero"/></g></svg>