<svg version="1.1" viewBox="0.0 0.0 883.6509186351706 100.0" fill="none" stroke="none" stroke-linecap="square" stroke-miterlimit="10" xmlns:xlink="http://www.w3.org/1999/xlink" xmlns="http://www.w3.org/2000/svg"><clipPath id="p.0"><path d="m0 0l883.65094 0l0 100.0l-883.65094 0l0 -100.0z" clip-rule="nonzero"/></clipPath><g clip-path="url(#p.0)"><path fill="#000000" fill-opacity="0.0" d="m0 0l883.65094 0l0 100.0l-883.65094 0z" fill-rule="evenodd"/><defs><linearGradient id="p.1" gradientUnits="userSpaceOnUse" gradientTransform="matrix(9.929042039628026 0.0 0.0 9.929042039628026 0.0 0.0)" spreadMethod="pad" x1="0.0014538872930393524" y1="0.07105043525919912" x2="0.0014179441781655615" y2="10.000092474822168"><stop offset="0.0" stop-color="#1c4587"/><stop offset="0.39" stop-color="#4675ae"/><stop offset="1.0" stop-color="#70a4d5"/></linearGradient></defs><path fill="url(#p.1)" d="m0.0144356955 0.70866144l883.622 0l0 98.58267l-883.622 0z" fill-rule="evenodd"/><path fill="#ffffff" d="m13.764436 72.428665l0 -46.765625l15.156249 0q8.609375 0 11.234375 0.703125q4.015625 1.046875 6.71875 4.578125q2.71875 3.531248 2.71875 9.109373q0 4.296875 -1.5625 7.234375q-1.5625 2.9375 -3.984375 4.609375q-2.40625 1.671875 -4.890625 2.21875q-3.375 0.671875 -9.796875 0.671875l-6.15625 0l0 17.640629l-9.437499 0zm9.437499 -38.85938l0 13.28125l5.171875 0q5.578125 0 7.453125 -0.734375q1.890625 -0.734375 2.953125 -2.296875q1.078125 -1.5625 1.078125 -3.640625q0 -2.546875 -1.5 -4.203125q-1.5 -1.671875 -3.796875 -2.078125q-1.6875 -0.328125 -6.796875 -0.328125l-4.5625 0zm56.370224 38.85938l0 -5.078125q-1.84375 2.71875 -4.859375 4.28125q-3.015625 1.5625 -6.359375 1.5625q-3.421875 0 -6.140625 -1.5q-2.703125 -1.5 -3.921875 -4.203125q-1.203125 -2.71875 -1.203125 -7.500004l0 -21.4375l8.96875 0l0 15.5625q0 7.140625 0.484375 8.765625q0.5 1.6093788 1.796875 2.5468788q1.3125 0.9375 3.328125 0.9375q2.296875 0 4.109375 -1.25q1.828125 -1.2656288 2.484375 -3.1250038q0.671875 -1.875 0.671875 -9.140625l0 -14.296875l8.96875 0l0 33.875004l-8.328125 0zm17.233154 0l0 -46.765625l8.953125 0l0 16.843748q4.15625 -4.71875 9.828125 -4.71875q6.1875 0 10.234375 4.484375q4.0625 4.484375 4.0625 12.875q0 8.671875 -4.140625 13.359379q-4.125 4.6875 -10.03125 4.6875q-2.90625 0 -5.734375 -1.453125q-2.8125 -1.453125 -4.859375 -4.28125l0 4.96875l-8.3125 0zm8.890625 -17.671879q0 5.265625 1.65625 7.78125q2.328125 3.5781288 6.1875 3.5781288q2.96875 0 5.0625 -2.5312538q2.09375 -2.546875 2.09375 -8.0q0 -5.796875 -2.109375 -8.359375q-2.109375 -2.578125 -5.390625 -2.578125q-3.21875 0 -5.359375 2.5q-2.140625 2.5 -2.140625 7.609375zm31.389404 17.671879l0 -46.765625l8.96875 0l0 46.765625l-8.96875 0zm18.150253 -38.468754l0 -8.296873l8.96875 0l0 8.296873l-8.96875 0zm0 38.468754l0 -33.875004l8.96875 0l0 33.875004l-8.96875 0zm47.69713 -23.859379l-8.84375 1.59375q-0.453125 -2.640625 -2.03125 -3.984375q-1.578125 -1.34375 -4.09375 -1.34375q-3.34375 0 -5.34375 2.3125q-1.984375 2.3125 -1.984375 7.734375q0 6.03125 2.015625 8.515625q2.03125 2.4843788 5.4375 2.4843788q2.5625 0 4.1875 -1.4375q1.625 -1.4531288 2.296875 -5.000004l8.796875 1.5q-1.375 6.062504 -5.265625 9.156254q-3.890625 3.09375 -10.421875 3.09375q-7.4375 0 -11.859375 -4.6875q-4.40625 -4.687504 -4.40625 -12.984379q0 -8.390625 4.421875 -13.0625q4.4375 -4.671875 12.0 -4.671875q6.1875 0 9.828125 2.671875q3.65625 2.65625 5.265625 8.109375zm13.488647 0.3125l-8.140625 -1.46875q1.375 -4.90625 4.71875 -7.265625q3.359375 -2.359375 9.953125 -2.359375q6.0 0 8.9375 1.421875q2.9375 1.421875 4.125 3.609375q1.203125 2.171875 1.203125 8.015625l-0.09375 10.46875q0 4.453129 0.421875 6.578129q0.4375 2.125 1.609375 4.546875l-8.859375 0q-0.359375 -0.890625 -0.859375 -2.640625q-0.234375 -0.796875 -0.328125 -1.0625q-2.296875 2.234375 -4.90625 3.359375q-2.609375 1.109375 -5.578125 1.109375q-5.234375 0 -8.25 -2.828125q-3.015625 -2.84375 -3.015625 -7.187504q0 -2.875 1.375 -5.125q1.375 -2.25 3.84375 -3.4375q2.46875 -1.203125 7.125 -2.09375q6.28125 -1.171875 8.703125 -2.203125l0 -0.890625q0 -2.578125 -1.28125 -3.671875q-1.265625 -1.109375 -4.8125 -1.109375q-2.390625 0 -3.734375 0.9375q-1.328125 0.9375 -2.15625 3.296875zm11.984375 7.28125q-1.71875 0.578125 -5.453125 1.375q-3.734375 0.796875 -4.875 1.5625q-1.75 1.234375 -1.75 3.15625q0 1.8750038 1.390625 3.2500038q1.40625 1.375 3.578125 1.375q2.421875 0 4.625 -1.59375q1.625 -1.21875 2.140625 -2.9687538q0.34375 -1.15625 0.34375 -4.375l0 -1.78125zm33.176132 -17.609375l0 7.140625l-6.1249847 0l0 13.65625q0 4.140625 0.171875 4.828129q0.1875 0.6875 0.79685974 1.140625q0.625 0.4375 1.53125 0.4375q1.234375 0 3.59375 -0.859375l0.765625 6.953125q-3.125 1.34375 -7.0781097 1.34375q-2.421875 0 -4.375 -0.8125q-1.9375 -0.8125 -2.859375 -2.09375q-0.90625 -1.296875 -1.25 -3.5q-0.28125 -1.5625 -0.28125 -6.328129l0 -14.765625l-4.125 0l0 -7.140625l4.125 0l0 -6.734373l8.984375 -5.234375l0 11.968748l6.1249847 0zm6.2235413 -4.59375l0 -8.296873l8.96875 0l0 8.296873l-8.96875 0zm0 38.468754l0 -33.875004l8.96875 0l0 33.875004l-8.96875 0zm16.072113 -17.421879q0 -4.453125 2.203125 -8.625q2.203125 -4.1875 6.234375 -6.390625q4.046875 -2.203125 9.015625 -2.203125q7.6875 0 12.59375 5.0q4.921875 4.984375 4.921875 12.609375q0 7.6875 -4.96875 12.750004q-4.953125 5.046875 -12.484375 5.046875q-4.65625 0 -8.890625 -2.09375q-4.21875 -2.109375 -6.421875 -6.171875q-2.203125 -4.078129 -2.203125 -9.921879zm9.1875 0.484375q0 5.046875 2.390625 7.71875q2.40625 2.6718788 5.90625 2.6718788q3.515625 0 5.890625 -2.6718788q2.375 -2.671875 2.375 -7.78125q0 -4.984375 -2.375 -7.65625q-2.375 -2.6875 -5.890625 -2.6875q-3.5 0 -5.90625 2.6875q-2.390625 2.671875 -2.390625 7.71875zm63.608154 16.937504l-8.953125 0l0 -17.281254q0 -5.5 -0.578125 -7.109375q-0.578125 -1.609375 -1.875 -2.5q-1.28125 -0.890625 -3.109375 -0.890625q-2.328125 0 -4.1875 1.28125q-1.84375 1.265625 -2.53125 3.375q-0.671875 2.109375 -0.671875 7.78125l0 15.343754l-8.96875 0l0 -33.875004l8.328125 0l0 4.96875q4.4375 -5.734375 11.15625 -5.734375q2.96875 0 5.421875 1.078125q2.46875 1.0625 3.71875 2.71875q1.265625 1.65625 1.75 3.765625q0.5 2.109375 0.5 6.03125l0 21.046879zm5.9362793 -9.671879l9.0 -1.359375q0.5625 2.6093788 2.3125 3.9687538q1.765625 1.359375 4.921875 1.359375q3.484375 0 5.234375 -1.28125q1.171875 -0.890625 1.171875 -2.3906288q0 -1.03125 -0.625 -1.6875q-0.671875 -0.640625 -3.0 -1.1875q-10.84375 -2.390625 -13.75 -4.375q-4.015625 -2.734375 -4.015625 -7.625q0 -4.390625 3.46875 -7.390625q3.484375 -3.0 10.78125 -3.0q6.953125 0 10.328125 2.265625q3.390625 2.265625 4.671875 6.703125l-8.453125 1.5625q-0.546875 -1.984375 -2.0625 -3.03125q-1.515625 -1.0625 -4.328125 -1.0625q-3.53125 0 -5.0625 1.0q-1.03125 0.703125 -1.03125 1.8125q0 0.953125 0.90625 1.625q1.203125 0.890625 8.359375 2.515625q7.171875 1.625 10.015625 4.0q2.796875 2.390625 2.796875 6.65625q0 4.656254 -3.890625 8.015629q-3.890625 3.34375 -11.515625 3.34375q-6.921875 0 -10.953125 -2.796875q-4.03125 -2.8125 -5.28125 -7.640629z" fill-rule="nonzero"/></g></svg>