<svg version="1.1" viewBox="0.0 0.0 883.6509186351706 100.0" fill="none" stroke="none" stroke-linecap="square" stroke-miterlimit="10" xmlns:xlink="http://www.w3.org/1999/xlink" xmlns="http://www.w3.org/2000/svg"><clipPath id="p.0"><path d="m0 0l883.65094 0l0 100.0l-883.65094 0l0 -100.0z" clip-rule="nonzero"/></clipPath><g clip-path="url(#p.0)"><path fill="#000000" fill-opacity="0.0" d="m0 0l883.65094 0l0 100.0l-883.65094 0z" fill-rule="evenodd"/><defs><linearGradient id="p.1" gradientUnits="userSpaceOnUse" gradientTransform="matrix(9.929042039628026 0.0 0.0 9.929042039628026 0.0 0.0)" spreadMethod="pad" x1="0.0014538872930393524" y1="0.07105043525919912" x2="0.0014179441781655615" y2="10.000092474822168"><stop offset="0.0" stop-color="#1c4587"/><stop offset="0.39" stop-color="#4675ae"/><stop offset="1.0" stop-color="#70a4d5"/></linearGradient></defs><path fill="url(#p.1)" d="m0.0144356955 0.70866144l883.622 0l0 98.58267l-883.622 0z" fill-rule="evenodd"/><path fill="#000000" fill-opacity="0.0" d="m-0.28346458 12.031496l369.7323 0l0 79.18111l-369.7323 0z" fill-rule="evenodd"/><path fill="#ffffff" d="m12.310286 68.391495l0 -35.3125l11.4375 0q6.5 0 8.484373 0.53125q3.03125 0.796875 5.078125 3.46875q2.046875 2.65625 2.046875 6.859375q0 3.25 -1.1875 5.46875q-1.171875 2.21875 -3.0 3.484375q-1.8125 1.265625 -3.687498 1.671875q-2.5625 0.515625 -7.40625 0.515625l-4.640625 0l0 13.3125l-7.125 0zm7.125 -29.34375l0 10.03125l3.90625 0q4.203125 0 5.625 -0.546875q1.421875 -0.5625 2.234375 -1.734375q0.8124981 -1.1875 0.8124981 -2.75q0 -1.9375 -1.1406231 -3.1875q-1.125 -1.25 -2.859375 -1.5625q-1.28125 -0.25 -5.140625 -0.25l-3.4375 0zm42.557724 29.34375l0 -3.828125q-1.390625 2.046875 -3.671875 3.234375q-2.28125 1.171875 -4.796875 1.171875q-2.578125 0 -4.625 -1.125q-2.046875 -1.140625 -2.96875 -3.1875q-0.921875 -2.046875 -0.921875 -5.65625l0 -16.1875l6.78125 0l0 11.75q0 5.390625 0.359375 6.609375q0.375 1.21875 1.359375 1.9375q1.0 0.703125 2.515625 0.703125q1.734375 0 3.109375 -0.953125q1.375 -0.953125 1.875 -2.359375q0.5 -1.40625 0.5 -6.890625l0 -10.796875l6.765629 0l0 25.578125l-6.281254 0zm13.006596 0l0 -35.3125l6.765625 0l0 12.71875q3.140625 -3.5625 7.421875 -3.5625q4.671875 0 7.734375 3.390625q3.0625 3.375 3.0625 9.71875q0 6.546875 -3.125 10.09375q-3.125 3.53125 -7.578125 3.53125q-2.1875 0 -4.328125 -1.09375q-2.125 -1.09375 -3.671875 -3.234375l0 3.75l-6.28125 0zm6.71875 -13.34375q0 3.96875 1.25 5.875q1.765625 2.703125 4.671875 2.703125q2.25 0 3.828125 -1.90625q1.578125 -1.921875 1.578125 -6.046875q0 -4.375 -1.59375 -6.3125q-1.59375 -1.953125 -4.078125 -1.953125q-2.421875 0 -4.046875 1.890625q-1.609375 1.890625 -1.609375 5.75zm23.709717 13.34375l0 -35.3125l6.765625 0l0 35.3125l-6.765625 0zm13.704941 -29.046875l0 -6.265625l6.765625 0l0 6.265625l-6.765625 0zm0 29.046875l0 -25.578125l6.765625 0l0 25.578125l-6.765625 0zm36.001816 -18.015625l-6.671875 1.203125q-0.34375 -2.0 -1.53125 -3.0q-1.1875 -1.015625 -3.09375 -1.015625q-2.53125 0 -4.03125 1.75q-1.5 1.734375 -1.5 5.828125q0 4.5625 1.515625 6.4375q1.53125 1.875 4.109375 1.875q1.9375 0 3.15625 -1.09375q1.234375 -1.09375 1.734375 -3.765625l6.65625 1.125q-1.046875 4.578125 -3.984375 6.921875q-2.9375 2.328125 -7.875 2.328125q-5.609375 0 -8.953125 -3.53125q-3.328125 -3.546875 -3.328125 -9.8125q0 -6.328125 3.34375 -9.859375q3.359375 -3.53125 9.0625 -3.53125q4.671875 0 7.421875 2.015625q2.765625 2.0 3.96875 6.125zm10.18396 0.234375l-6.140625 -1.109375q1.046875 -3.703125 3.5625 -5.484375q2.53125 -1.78125 7.515625 -1.78125q4.53125 0 6.75 1.078125q2.21875 1.0625 3.109375 2.71875q0.90625 1.640625 0.90625 6.046875l-0.0625 7.90625q0 3.375 0.3125 4.984375q0.328125 1.59375 1.21875 3.421875l-6.6875 0q-0.265625 -0.671875 -0.65625 -2.0q-0.171875 -0.59375 -0.234375 -0.796875q-1.734375 1.6875 -3.71875 2.53125q-1.96875 0.84375 -4.203125 0.84375q-3.953125 0 -6.234375 -2.140625q-2.265625 -2.140625 -2.265625 -5.421875q0 -2.171875 1.03125 -3.859375q1.03125 -1.703125 2.890625 -2.609375q1.875 -0.90625 5.390625 -1.578125q4.75 -0.890625 6.578125 -1.65625l0 -0.671875q0 -1.953125 -0.96875 -2.78125q-0.953125 -0.84375 -3.640625 -0.84375q-1.796875 0 -2.8125 0.71875q-1.015625 0.703125 -1.640625 2.484375zm9.0625 5.5q-1.296875 0.4375 -4.125 1.046875q-2.8125 0.59375 -3.6875 1.171875q-1.3125 0.9375 -1.3125 2.375q0 1.421875 1.046875 2.46875q1.0625 1.03125 2.703125 1.03125q1.828125 0 3.5 -1.203125q1.21875 -0.921875 1.609375 -2.25q0.265625 -0.859375 0.265625 -3.296875l0 -1.34375zm25.043335 -13.296875l0 5.390625l-4.625 0l0 10.3125q0 3.125 0.125 3.65625q0.140625 0.515625 0.609375 0.859375q0.46875 0.328125 1.15625 0.328125q0.9375 0 2.71875 -0.65625l0.578125 5.25q-2.359375 1.015625 -5.34375 1.015625q-1.84375 0 -3.3125 -0.609375q-1.46875 -0.625 -2.15625 -1.59375q-0.6875 -0.96875 -0.9375 -2.640625q-0.21875 -1.171875 -0.21875 -4.765625l0 -11.15625l-3.109375 0l0 -5.390625l3.109375 0l0 -5.078125l6.78125 -3.953125l0 9.03125l4.625 0zm4.707901 -3.46875l0 -6.265625l6.765625 0l0 6.265625l-6.765625 0zm0 29.046875l0 -25.578125l6.765625 0l0 25.578125l-6.765625 0zm12.126816 -13.15625q0 -3.359375 1.65625 -6.515625q1.671875 -3.15625 4.71875 -4.8125q3.046875 -1.671875 6.8125 -1.671875q5.796875 0 9.5 3.765625q3.71875 3.765625 3.71875 9.53125q0 5.796875 -3.75 9.625q-3.75 3.8125 -9.421875 3.8125q-3.515625 0 -6.71875 -1.578125q-3.1875 -1.59375 -4.859375 -4.671875q-1.65625 -3.078125 -1.65625 -7.484375zm6.9375 0.359375q0 3.8125 1.8125 5.84375q1.8125 2.015625 4.453125 2.015625q2.65625 0 4.4375 -2.015625q1.796875 -2.03125 1.796875 -5.890625q0 -3.75 -1.796875 -5.765625q-1.78125 -2.03125 -4.4375 -2.03125q-2.640625 0 -4.453125 2.03125q-1.8125 2.015625 -1.8125 5.8125zm48.03781 12.796875l-6.765625 0l0 -13.046875q0 -4.15625 -0.4375 -5.359375q-0.4375 -1.21875 -1.421875 -1.890625q-0.96875 -0.6875 -2.34375 -0.6875q-1.75 0 -3.15625 0.96875q-1.3906097 0.96875 -1.9062195 2.5625q-0.515625 1.578125 -0.515625 5.875l0 11.578125l-6.765625 0l0 -25.578125l6.28125 0l0 3.75q3.3437195 -4.328125 8.4218445 -4.328125q2.25 0 4.09375 0.8125q1.859375 0.796875 2.8125 2.0625q0.953125 1.25 1.328125 2.84375q0.375 1.578125 0.375 4.546875l0 15.890625zm4.475342 -7.296875l6.796875 -1.03125q0.421875 1.96875 1.75 3.0q1.328125 1.015625 3.71875 1.015625q2.625 0 3.9375 -0.96875q0.890625 -0.671875 0.890625 -1.796875q0 -0.78125 -0.46875 -1.28125q-0.515625 -0.484375 -2.265625 -0.890625q-8.1875 -1.8125 -10.390625 -3.296875q-3.03125 -2.078125 -3.03125 -5.765625q0 -3.3125 2.625 -5.578125q2.625 -2.265625 8.140625 -2.265625q5.25 0 7.796875 1.71875q2.5625 1.703125 3.53125 5.046875l-6.390625 1.1875q-0.40625 -1.5 -1.546875 -2.296875q-1.140625 -0.796875 -3.265625 -0.796875q-2.671875 0 -3.828125 0.75q-0.78125 0.53125 -0.78125 1.375q0 0.71875 0.6875 1.234375q0.90625 0.671875 6.3125 1.90625q5.40625 1.21875 7.5625 3.0q2.109375 1.8125 2.109375 5.03125q0 3.515625 -2.9375 6.046875q-2.9375 2.53125 -8.6875 2.53125q-5.234375 0 -8.28125 -2.109375q-3.046875 -2.125 -3.984375 -5.765625z" fill-rule="nonzero"/></g></svg>