<svg version="1.1" viewBox="0.0 0.0 883.6509186351706 76.8005249343832" fill="none" stroke="none" stroke-linecap="square" stroke-miterlimit="10" xmlns:xlink="http://www.w3.org/1999/xlink" xmlns="http://www.w3.org/2000/svg"><clipPath id="p.0"><path d="m0 0l883.65094 0l0 76.80052l-883.65094 0l0 -76.80052z" clip-rule="nonzero"/></clipPath><g clip-path="url(#p.0)"><path fill="#000000" fill-opacity="0.0" d="m0 0l883.65094 0l0 76.80052l-883.65094 0z" fill-rule="evenodd"/><defs><linearGradient id="p.1" gradientUnits="userSpaceOnUse" gradientTransform="matrix(8.763024609922383 0.0 0.0 8.763024609922383 0.0 0.0)" spreadMethod="pad" x1="0.0017971012819137065" y1="0.06163492308393159" x2="0.0017653792387706925" y2="8.824659532948894"><stop offset="0.0" stop-color="#1c4587"/><stop offset="0.39" stop-color="#4675ae"/><stop offset="1.0" stop-color="#70a4d5"/></linearGradient></defs><path fill="url(#p.1)" d="m0.015748031 0.54330707l883.6221 0l0 76.78741l-883.6221 0z" fill-rule="evenodd"/><path fill="#000000" fill-opacity="0.0" d="m0.015748031 4.4645667l563.4961 0l0 67.874016l-563.4961 0z" fill-rule="evenodd"/><path fill="#ffffff" d="m11.921998 51.864563l0 -28.640623l9.281251 0q5.28125 0 6.875 0.4375q2.46875 0.640625 4.124998 2.796875q1.65625 2.15625 1.65625 5.578123q0 2.640625 -0.953125 4.4375q-0.9531231 1.796875 -2.437498 2.828125q-1.46875 1.015625 -3.0 1.34375q-2.0625 0.421875 -5.984375 0.421875l-3.78125 0l0 10.796875l-5.781251 0zm5.781251 -23.796873l0 8.124998l3.171875 0q3.421875 0 4.5625 -0.4375q1.15625 -0.453125 1.8125 -1.40625q0.65625 -0.96875 0.65625 -2.234375q0 -1.5624981 -0.921875 -2.578123q-0.921875 -1.015625 -2.328125 -1.265625q-1.03125 -0.203125 -4.15625 -0.203125l-2.796875 0zm34.523438 23.796873l0 -3.109375q-1.140625 1.65625 -2.984375 2.625q-1.84375 0.953125 -3.890625 0.953125q-2.09375 0 -3.765625 -0.921875q-1.65625 -0.921875 -2.40625 -2.578125q-0.734375 -1.65625 -0.734375 -4.59375l0 -13.124998l5.5 0l0 9.531248q0 4.375 0.296875 5.375q0.296875 0.984375 1.09375 1.5625q0.8125 0.5625 2.046875 0.5625q1.40625 0 2.515625 -0.765625q1.109375 -0.765625 1.515625 -1.90625q0.421875 -1.15625 0.421875 -5.609375l0 -8.749998l5.484375 0l0 20.749998l-5.09375 0zm10.542969 0l0 -28.640623l5.484375 0l0 10.312498q2.546875 -2.890623 6.015625 -2.890623q3.796875 0 6.265625 2.749998q2.484375 2.75 2.484375 7.875q0 5.3125 -2.53125 8.1875q-2.53125 2.875 -6.140625 2.875q-1.78125 0 -3.515625 -0.890625q-1.71875 -0.890625 -2.96875 -2.625l0 3.046875l-5.09375 0zm5.453125 -10.828125q0 3.234375 1.015625 4.765625q1.421875 2.1875 3.78125 2.1875q1.8125 0 3.09375 -1.546875q1.28125 -1.546875 1.28125 -4.890625q0 -3.5625 -1.296875 -5.125q-1.28125 -1.578125 -3.296875 -1.578125q-1.96875 0 -3.28125 1.53125q-1.296875 1.53125 -1.296875 4.65625zm19.214844 10.828125l0 -28.640623l5.484375 0l0 28.640623l-5.484375 0zm11.113281 -23.562498l0 -5.078125l5.484375 0l0 5.078125l-5.484375 0zm0 23.562498l0 -20.749998l5.484375 0l0 20.749998l-5.484375 0zm29.191406 -14.609375l-5.40625 0.96875q-0.265625 -1.609375 -1.234375 -2.421875q-0.96875 -0.828125 -2.515625 -0.828125q-2.046875 0 -3.265625 1.421875q-1.21875 1.40625 -1.21875 4.71875q0 3.703125 1.234375 5.234375q1.234375 1.515625 3.328125 1.515625q1.5625 0 2.5625 -0.890625q1.0 -0.890625 1.40625 -3.0625l5.390625 0.921875q-0.84375 3.703125 -3.234375 5.609375q-2.375 1.890625 -6.375 1.890625q-4.546875 0 -7.265625 -2.875q-2.703125 -2.875 -2.703125 -7.953125q0 -5.125 2.71875 -7.984375q2.71875 -2.874998 7.34375 -2.874998q3.796875 0 6.03125 1.6406231q2.234375 1.625 3.203125 4.96875zm8.261719 0.1875l-4.96875 -0.890625q0.828125 -3.015625 2.875 -4.453125q2.0625 -1.4531231 6.109375 -1.4531231q3.671875 0 5.46875 0.875q1.796875 0.8749981 2.515625 2.218748q0.734375 1.328125 0.734375 4.90625l-0.046875 6.40625q0 2.734375 0.25 4.03125q0.265625 1.296875 1.0 2.78125l-5.4375 0q-0.21875 -0.546875 -0.53125 -1.625q-0.125 -0.484375 -0.1875 -0.640625q-1.40625 1.359375 -3.015625 2.046875q-1.59375 0.6875 -3.40625 0.6875q-3.203125 0 -5.0625 -1.734375q-1.84375 -1.75 -1.84375 -4.40625q0 -1.75 0.84375 -3.125q0.84375 -1.375 2.359375 -2.109375q1.515625 -0.734375 4.359375 -1.28125q3.84375 -0.71875 5.328125 -1.34375l0 -0.546875q0 -1.59375 -0.78125 -2.265625q-0.78125 -0.671875 -2.9375 -0.671875q-1.46875 0 -2.296875 0.578125q-0.8125 0.578125 -1.328125 2.015625zm7.34375 4.453125q-1.046875 0.359375 -3.34375 0.84375q-2.28125 0.484375 -2.984375 0.953125q-1.0625 0.765625 -1.0625 1.9375q0 1.15625 0.859375 2.0q0.859375 0.828125 2.1875 0.828125q1.484375 0 2.828125 -0.96875q1.0 -0.75 1.3125 -1.8125q0.203125 -0.703125 0.203125 -2.6875l0 -1.09375zm20.324219 -10.781248l0 4.374998l-3.75 0l0 8.359375q0 2.546875 0.09375 2.96875q0.109375 0.421875 0.484375 0.703125q0.390625 0.265625 0.9375 0.265625q0.765625 0 2.203125 -0.53125l0.46875 4.25q-1.90625 0.828125 -4.328125 0.828125q-1.484375 0 -2.6875 -0.5q-1.1875 -0.5 -1.75 -1.28125q-0.546875 -0.796875 -0.765625 -2.140625q-0.171875 -0.96875 -0.171875 -3.875l0 -9.046875l-2.515625 0l0 -4.374998l2.515625 0l0 -4.109375l5.515625 -3.203125l0 7.3125l3.75 0zm3.8046875 -2.8125l0 -5.078125l5.484375 0l0 5.078125l-5.484375 0zm0 23.562498l0 -20.749998l5.484375 0l0 20.749998l-5.484375 0zm9.847656 -10.671875q0 -2.734375 1.34375 -5.28125q1.34375 -2.5625 3.8125 -3.90625q2.46875 -1.3593731 5.515625 -1.3593731q4.71875 0 7.71875 3.062498q3.015625 3.0625 3.015625 7.71875q0 4.71875 -3.046875 7.8125q-3.03125 3.09375 -7.640625 3.09375q-2.859375 0 -5.453125 -1.28125q-2.578125 -1.296875 -3.921875 -3.78125q-1.34375 -2.5 -1.34375 -6.078125zm5.625 0.296875q0 3.09375 1.453125 4.734375q1.46875 1.640625 3.625 1.640625q2.140625 0 3.59375 -1.640625q1.453125 -1.640625 1.453125 -4.765625q0 -3.046875 -1.453125 -4.6875q-1.453125 -1.640625 -3.59375 -1.640625q-2.15625 0 -3.625 1.640625q-1.453125 1.640625 -1.453125 4.71875zm38.933594 10.375l-5.484375 0l0 -10.59375q0 -3.359375 -0.359375 -4.34375q-0.34375 -0.984375 -1.140625 -1.53125q-0.78125 -0.546875 -1.890625 -0.546875q-1.4375 0 -2.578125 0.78125q-1.125 0.78125 -1.546875 2.078125q-0.40625 1.28125 -0.40625 4.765625l0 9.390625l-5.5 0l0 -20.749998l5.109375 0l0 3.046873q2.703125 -3.515623 6.828125 -3.515623q1.8125 0 3.3125 0.65625q1.515625 0.65625 2.28125 1.6718731q0.78125 1.015625 1.078125 2.3125q0.296875 1.28125 0.296875 3.6875l0 12.890625zm3.6367188 -5.921875l5.515625 -0.84375q0.34375 1.609375 1.421875 2.4375q1.078125 0.828125 3.0 0.828125q2.140625 0 3.203125 -0.78125q0.734375 -0.546875 0.734375 -1.46875q0 -0.625 -0.390625 -1.03125q-0.421875 -0.390625 -1.84375 -0.71875q-6.640625 -1.46875 -8.421875 -2.671875q-2.453125 -1.6875 -2.453125 -4.671875q0 -2.703125 2.125 -4.53125q2.125 -1.8437481 6.609375 -1.8437481q4.25 0 6.3125 1.3906231q2.078125 1.390625 2.859375 4.109375l-5.171875 0.953125q-0.328125 -1.21875 -1.265625 -1.859375q-0.921875 -0.640625 -2.640625 -0.640625q-2.171875 0 -3.109375 0.609375q-0.625 0.421875 -0.625 1.109375q0 0.578125 0.546875 1.0q0.75 0.546875 5.125 1.546875q4.390625 0.984375 6.125 2.4375q1.71875 1.453125 1.71875 4.078125q0 2.84375 -2.390625 4.90625q-2.375 2.046875 -7.046875 2.046875q-4.234375 0 -6.703125 -1.71875q-2.46875 -1.71875 -3.234375 -4.671875z" fill-rule="nonzero"/></g></svg>