<svg version="1.1" viewBox="0.0 0.0 883.6509186351706 100.0" fill="none" stroke="none" stroke-linecap="square" stroke-miterlimit="10" xmlns:xlink="http://www.w3.org/1999/xlink" xmlns="http://www.w3.org/2000/svg"><clipPath id="p.0"><path d="m0 0l883.65094 0l0 100.0l-883.65094 0l0 -100.0z" clip-rule="nonzero"/></clipPath><g clip-path="url(#p.0)"><path fill="#000000" fill-opacity="0.0" d="m0 0l883.65094 0l0 100.0l-883.65094 0z" fill-rule="evenodd"/><defs><linearGradient id="p.1" gradientUnits="userSpaceOnUse" gradientTransform="matrix(9.929042039628026 0.0 0.0 9.929042039628026 0.0 0.0)" spreadMethod="pad" x1="0.0014538872930393524" y1="0.07105043525919912" x2="0.0014179441781655615" y2="10.000092474822168"><stop offset="0.0" stop-color="#1c4587"/><stop offset="0.39" stop-color="#4675ae"/><stop offset="1.0" stop-color="#70a4d5"/></linearGradient></defs><path fill="url(#p.1)" d="m0.0144356955 0.70866144l883.622 0l0 98.58267l-883.622 0z" fill-rule="evenodd"/><path fill="#000000" fill-opacity="0.0" d="m-0.28346458 12.031496l706.6771 0l0 79.18111l-706.6771 0z" fill-rule="evenodd"/><path fill="#ffffff" d="m20.247786 68.391495l0 -29.34375l-10.46875 0l0 -5.96875l28.062498 0l0 5.96875l-10.453123 0l0 29.34375l-7.140625 0zm23.532637 -17.78125l-6.140625 -1.109375q1.046875 -3.703125 3.5625 -5.484375q2.53125 -1.78125 7.515625 -1.78125q4.53125 0 6.75 1.078125q2.21875 1.0625 3.109375 2.71875q0.90625 1.640625 0.90625 6.046875l-0.0625 7.90625q0 3.375 0.3125 4.984375q0.328125 1.59375 1.21875 3.421875l-6.6875 0q-0.265625 -0.671875 -0.65625 -2.0q-0.171875 -0.59375 -0.234375 -0.796875q-1.734375 1.6875 -3.71875 2.53125q-1.96875 0.84375 -4.203125 0.84375q-3.953125 0 -6.234375 -2.140625q-2.265625 -2.140625 -2.265625 -5.421875q0 -2.171875 1.03125 -3.859375q1.03125 -1.703125 2.890625 -2.609375q1.875 -0.90625 5.390625 -1.578125q4.75 -0.890625 6.578125 -1.65625l0 -0.671875q0 -1.953125 -0.96875 -2.78125q-0.953125 -0.84375 -3.640625 -0.84375q-1.796875 0 -2.8125 0.71875q-1.015625 0.703125 -1.640625 2.484375zm9.0625 5.5q-1.296875 0.4375 -4.125 1.046875q-2.8125 0.59375 -3.6875 1.171875q-1.3125 0.9375 -1.3125 2.375q0 1.421875 1.046875 2.46875q1.0625 1.03125 2.703125 1.03125q1.828125 0 3.5 -1.203125q1.21875 -0.921875 1.609375 -2.25q0.265625 -0.859375 0.265625 -3.296875l0 -1.34375zm13.324589 12.28125l0 -35.3125l6.765625 0l0 35.3125l-6.765625 0zm13.454941 0l0 -35.3125l6.765625 0l0 18.734375l7.9375 -9.0l8.328125 0l-8.75 9.34375l9.375 16.234375l-7.296875 0l-6.4375 -11.484375l-3.15625 3.296875l0 8.1875l-6.765625 0zm25.293335 -7.296875l6.796875 -1.03125q0.421875 1.96875 1.75 3.0q1.328125 1.015625 3.71875 1.015625q2.625 0 3.9375 -0.96875q0.890625 -0.671875 0.890625 -1.796875q0 -0.78125 -0.46875 -1.28125q-0.515625 -0.484375 -2.265625 -0.890625q-8.1875 -1.8125 -10.390625 -3.296875q-3.03125 -2.078125 -3.03125 -5.765625q0 -3.3125 2.625 -5.578125q2.625 -2.265625 8.140625 -2.265625q5.25 0 7.796875 1.71875q2.5625 1.703125 3.53125 5.046875l-6.390625 1.1875q-0.40625 -1.5 -1.546875 -2.296875q-1.140625 -0.796875 -3.265625 -0.796875q-2.671875 0 -3.828125 0.75q-0.78125 0.53125 -0.78125 1.375q0 0.71875 0.6875 1.234375q0.90625 0.671875 6.3125 1.90625q5.40625 1.21875 7.5625 3.0q2.109375 1.8125 2.109375 5.03125q0 3.515625 -2.9375 6.046875q-2.9375 2.53125 -8.6875 2.53125q-5.234375 0 -8.28125 -2.109375q-3.046875 -2.125 -3.984375 -5.765625zm74.810776 2.984375l-4.09375 5.234375q-3.015625 -1.46875 -5.78125 -4.046875q-2.140625 1.921875 -4.546875 2.84375q-2.40625 0.90625 -5.734375 0.90625q-6.609375 0 -9.921875 -3.703125q-2.578125 -2.875 -2.578125 -6.609375q0 -3.390625 2.015625 -6.09375q2.03125 -2.71875 6.046875 -4.71875q-1.796875 -2.140625 -2.71875 -4.078125q-0.921875 -1.9375 -0.921875 -3.671875q0 -3.203125 2.5625 -5.421875q2.578125 -2.234375 7.3125 -2.234375q4.578125 0 7.15625 2.34375q2.578125 2.328125 2.578125 5.6875q0 2.15625 -1.28125 4.078125q-1.265625 1.921875 -5.140625 4.359375l4.90625 6.484375q0.875 -1.546875 1.5 -4.03125l6.109375 1.40625q-0.90625 3.25 -1.59375 4.75q-0.671875 1.5 -1.4375 2.515625q1.125 1.0625 2.921875 2.328125q1.796875 1.265625 2.640625 1.671875zm-18.421875 -19.203125l1.828125 -1.390625q2.015625 -1.5625 2.015625 -3.109375q0 -1.296875 -0.96875 -2.203125q-0.96875 -0.921875 -2.640625 -0.921875q-1.609375 0 -2.53125 0.8125q-0.90625 0.796875 -0.90625 1.859375q0 1.25 1.53125 3.03125l1.671875 1.921875zm-2.65625 7.359375q-2.328125 1.171875 -3.484375 2.84375q-1.15625 1.65625 -1.15625 3.390625q0 2.1875 1.421875 3.578125q1.4375 1.375 3.84375 1.375q1.59375 0 3.0625 -0.625q1.46875 -0.625 3.203125 -2.0625l-6.890625 -8.5zm39.17189 16.15625l0 -35.3125l11.4375 0q6.5 0 8.484375 0.53125q3.03125 0.796875 5.078125 3.46875q2.046875 2.65625 2.046875 6.859375q0 3.25 -1.1875 5.46875q-1.171875 2.21875 -3.0 3.484375q-1.8125 1.265625 -3.6875 1.671875q-2.5625 0.515625 -7.40625 0.515625l-4.640625 0l0 13.3125l-7.125 0zm7.125 -29.34375l0 10.03125l3.90625 0q4.203125 0 5.625 -0.546875q1.421875 -0.5625 2.234375 -1.734375q0.8125 -1.1875 0.8125 -2.75q0 -1.9375 -1.140625 -3.1875q-1.125 -1.25 -2.859375 -1.5625q-1.28125 -0.25 -5.140625 -0.25l-3.4375 0zm32.19835 29.34375l-6.765625 0l0 -25.578125l6.28125 0l0 3.640625q1.625 -2.578125 2.90625 -3.390625q1.296875 -0.828125 2.921875 -0.828125q2.3125 0 4.46875 1.28125l-2.09375 5.890625q-1.71875 -1.109375 -3.1875 -1.109375q-1.421875 0 -2.40625 0.796875q-0.984375 0.78125 -1.5625 2.828125q-0.5625 2.046875 -0.5625 8.5625l0 7.90625zm27.540283 -8.140625l6.734375 1.125q-1.296875 3.71875 -4.109375 5.65625q-2.796875 1.9375 -7.015625 1.9375q-6.6718597 0 -9.874985 -4.359375q-2.53125 -3.5 -2.53125 -8.8125q0 -6.359375 3.328125 -9.953125q3.328125 -3.609375 8.406235 -3.609375q5.703125 0 9.0 3.765625q3.3125 3.765625 3.15625 11.546875l-16.95311 0q0.078125 3.015625 1.6406097 4.6875q1.5625 1.671875 3.90625 1.671875q1.578125 0 2.65625 -0.859375q1.09375 -0.875 1.65625 -2.796875zm0.375 -6.84375q-0.0625 -2.9375 -1.515625 -4.46875q-1.4375 -1.53125 -3.515625 -1.53125q-2.21875 0 -3.65625 1.625q-1.4531097 1.609375 -1.4218597 4.375l10.10936 0zm9.855835 7.6875l6.796875 -1.03125q0.421875 1.96875 1.75 3.0q1.328125 1.015625 3.71875 1.015625q2.625 0 3.9375 -0.96875q0.890625 -0.671875 0.890625 -1.796875q0 -0.78125 -0.46875 -1.28125q-0.515625 -0.484375 -2.265625 -0.890625q-8.1875 -1.8125 -10.390625 -3.296875q-3.03125 -2.078125 -3.03125 -5.765625q0 -3.3125 2.625 -5.578125q2.625 -2.265625 8.140625 -2.265625q5.25 0 7.796875 1.71875q2.5625 1.703125 3.53125 5.046875l-6.390625 1.1875q-0.40625 -1.5 -1.546875 -2.296875q-1.140625 -0.796875 -3.265625 -0.796875q-2.671875 0 -3.828125 0.75q-0.78125 0.53125 -0.78125 1.375q0 0.71875 0.6875 1.234375q0.90625 0.671875 6.3125 1.90625q5.40625 1.21875 7.5625 3.0q2.109375 1.8125 2.109375 5.03125q0 3.515625 -2.9375 6.046875q-2.9375 2.53125 -8.6875 2.53125q-5.234375 0 -8.28125 -2.109375q-3.046875 -2.125 -3.984375 -5.765625zm44.637085 -0.84375l6.734375 1.125q-1.296875 3.71875 -4.109375 5.65625q-2.796875 1.9375 -7.015625 1.9375q-6.671875 0 -9.875 -4.359375q-2.53125 -3.5 -2.53125 -8.8125q0 -6.359375 3.328125 -9.953125q3.328125 -3.609375 8.40625 -3.609375q5.703125 0 9.0 3.765625q3.3125 3.765625 3.15625 11.546875l-16.953125 0q0.078125 3.015625 1.640625 4.6875q1.5625 1.671875 3.90625 1.671875q1.578125 0 2.65625 -0.859375q1.09375 -0.875 1.65625 -2.796875zm0.375 -6.84375q-0.0625 -2.9375 -1.515625 -4.46875q-1.4375 -1.53125 -3.515625 -1.53125q-2.21875 0 -3.65625 1.625q-1.453125 1.609375 -1.421875 4.375l10.109375 0zm35.512085 14.984375l-6.765625 0l0 -13.046875q0 -4.15625 -0.4375 -5.359375q-0.4375 -1.21875 -1.421875 -1.890625q-0.96875 -0.6875 -2.34375 -0.6875q-1.75 0 -3.15625 0.96875q-1.390625 0.96875 -1.90625 2.5625q-0.515625 1.578125 -0.515625 5.875l0 11.578125l-6.765625 0l0 -25.578125l6.28125 0l0 3.75q3.34375 -4.328125 8.421875 -4.328125q2.25 0 4.09375 0.8125q1.859375 0.796875 2.8125 2.0625q0.953125 1.25 1.328125 2.84375q0.375 1.578125 0.375 4.546875l0 15.890625zm18.584717 -25.578125l0 5.390625l-4.625 0l0 10.3125q0 3.125 0.125 3.65625q0.140625 0.515625 0.609375 0.859375q0.46875 0.328125 1.15625 0.328125q0.9375 0 2.71875 -0.65625l0.578125 5.25q-2.359375 1.015625 -5.34375 1.015625q-1.84375 0 -3.3125 -0.609375q-1.46875 -0.625 -2.15625 -1.59375q-0.6875 -0.96875 -0.9375 -2.640625q-0.21875 -1.171875 -0.21875 -4.765625l0 -11.15625l-3.109375 0l0 -5.390625l3.109375 0l0 -5.078125l6.78125 -3.953125l0 9.03125l4.625 0zm9.754791 7.796875l-6.140625 -1.109375q1.046875 -3.703125 3.5625 -5.484375q2.53125 -1.78125 7.515625 -1.78125q4.53125 0 6.75 1.078125q2.21875 1.0625 3.109375 2.71875q0.90625 1.640625 0.90625 6.046875l-0.0625 7.90625q0 3.375 0.3125 4.984375q0.328125 1.59375 1.21875 3.421875l-6.6875 0q-0.265625 -0.671875 -0.65625 -2.0q-0.171875 -0.59375 -0.234375 -0.796875q-1.734375 1.6875 -3.71875 2.53125q-1.96875 0.84375 -4.203125 0.84375q-3.953125 0 -6.234375 -2.140625q-2.265625 -2.140625 -2.265625 -5.421875q0 -2.171875 1.03125 -3.859375q1.03125 -1.703125 2.890625 -2.609375q1.875 -0.90625 5.390625 -1.578125q4.75 -0.890625 6.578125 -1.65625l0 -0.671875q0 -1.953125 -0.96875 -2.78125q-0.953125 -0.84375 -3.640625 -0.84375q-1.796875 0 -2.8125 0.71875q-1.015625 0.703125 -1.640625 2.484375zm9.0625 5.5q-1.296875 0.4375 -4.125 1.046875q-2.8125 0.59375 -3.6875 1.171875q-1.3125 0.9375 -1.3125 2.375q0 1.421875 1.046875 2.46875q1.0625 1.03125 2.703125 1.03125q1.828125 0 3.5 -1.203125q1.21875 -0.921875 1.609375 -2.25q0.265625 -0.859375 0.265625 -3.296875l0 -1.34375zm25.043335 -13.296875l0 5.390625l-4.625 0l0 10.3125q0 3.125 0.125 3.65625q0.140625 0.515625 0.609375 0.859375q0.46875 0.328125 1.15625 0.328125q0.9375 0 2.71875 -0.65625l0.578125 5.25q-2.359375 1.015625 -5.34375 1.015625q-1.84375 0 -3.3125 -0.609375q-1.46875 -0.625 -2.15625 -1.59375q-0.6875 -0.96875 -0.9375 -2.640625q-0.21875 -1.171875 -0.21875 -4.765625l0 -11.15625l-3.109375 0l0 -5.390625l3.109375 0l0 -5.078125l6.78125 -3.953125l0 9.03125l4.625 0zm4.7078857 -3.46875l0 -6.265625l6.765625 0l0 6.265625l-6.765625 0zm0 29.046875l0 -25.578125l6.765625 0l0 25.578125l-6.765625 0zm12.126831 -13.15625q0 -3.359375 1.65625 -6.515625q1.671875 -3.15625 4.71875 -4.8125q3.046875 -1.671875 6.8125 -1.671875q5.796875 0 9.5 3.765625q3.71875 3.765625 3.71875 9.53125q0 5.796875 -3.75 9.625q-3.75 3.8125 -9.421875 3.8125q-3.515625 0 -6.71875 -1.578125q-3.1875 -1.59375 -4.859375 -4.671875q-1.65625 -3.078125 -1.65625 -7.484375zm6.9375 0.359375q0 3.8125 1.8125 5.84375q1.8125 2.015625 4.453125 2.015625q2.65625 0 4.4375 -2.015625q1.796875 -2.03125 1.796875 -5.890625q0 -3.75 -1.796875 -5.765625q-1.78125 -2.03125 -4.4375 -2.03125q-2.640625 0 -4.453125 2.03125q-1.8125 2.015625 -1.8125 5.8125zm48.03784 12.796875l-6.765625 0l0 -13.046875q0 -4.15625 -0.4375 -5.359375q-0.4375 -1.21875 -1.421875 -1.890625q-0.96875 -0.6875 -2.34375 -0.6875q-1.75 0 -3.15625 0.96875q-1.390625 0.96875 -1.90625 2.5625q-0.515625 1.578125 -0.515625 5.875l0 11.578125l-6.765625 0l0 -25.578125l6.28125 0l0 3.75q3.34375 -4.328125 8.421875 -4.328125q2.25 0 4.09375 0.8125q1.859375 0.796875 2.8125 2.0625q0.953125 1.25 1.328125 2.84375q0.375 1.578125 0.375 4.546875l0 15.890625zm4.475342 -7.296875l6.796875 -1.03125q0.421875 1.96875 1.75 3.0q1.328125 1.015625 3.71875 1.015625q2.625 0 3.9375 -0.96875q0.890625 -0.671875 0.890625 -1.796875q0 -0.78125 -0.46875 -1.28125q-0.515625 -0.484375 -2.265625 -0.890625q-8.1875 -1.8125 -10.390625 -3.296875q-3.03125 -2.078125 -3.03125 -5.765625q0 -3.3125 2.625 -5.578125q2.625 -2.265625 8.140625 -2.265625q5.25 0 7.7969055 1.71875q2.5625 1.703125 3.53125 5.046875l-6.3906555 1.1875q-0.40625 -1.5 -1.546875 -2.296875q-1.140625 -0.796875 -3.265625 -0.796875q-2.671875 0 -3.828125 0.75q-0.78125 0.53125 -0.78125 1.375q0 0.71875 0.6875 1.234375q0.90625 0.671875 6.3125 1.90625q5.4062805 1.21875 7.5625305 3.0q2.109375 1.8125 2.109375 5.03125q0 3.515625 -2.9375 6.046875q-2.9375 2.53125 -8.6875305 2.53125q-5.234375 0 -8.28125 -2.109375q-3.046875 -2.125 -3.984375 -5.765625z" fill-rule="nonzero"/></g></svg>